{"glyphs":{"0":{"ha":826,"x_min":0,"x_max":0,"o":"m 414 -14 b 738 456 672 -14 738 197 b 414 925 738 715 672 925 b 88 456 156 925 88 715 b 414 -14 88 197 156 -14 z m 414 71 b 176 456 224 71 176 246 b 414 840 176 667 224 840 b 650 456 603 840 650 667 b 414 71 650 246 603 71 z "},"1":{"ha":465,"x_min":0,"x_max":0,"o":"m 319 925 l 38 796 l 38 708 l 236 793 l 236 0 l 324 0 l 324 925 z "},"2":{"ha":701,"x_min":0,"x_max":0,"o":"m 221 86 l 511 432 b 614 665 569 501 614 589 b 339 925 614 822 501 925 b 65 718 194 925 88 846 l 144 699 b 339 840 161 786 238 840 b 525 665 449 840 525 771 b 432 472 525 611 486 539 l 71 38 l 71 0 l 625 0 l 625 86 z "},"3":{"ha":736,"x_min":0,"x_max":0,"o":"m 490 492 b 613 686 565 526 613 600 b 346 925 613 829 506 925 b 101 794 244 925 147 872 l 165 744 b 344 840 200 801 272 840 b 524 685 451 840 524 778 b 357 528 524 592 457 528 l 268 528 l 268 450 l 361 450 b 569 257 481 450 569 372 b 338 72 569 146 469 72 b 125 210 247 72 167 125 l 51 169 b 340 -12 103 57 214 -12 b 658 260 525 -12 658 96 b 490 492 658 375 588 464 z "},"4":{"ha":781,"x_min":0,"x_max":0,"o":"m 725 278 l 589 278 l 589 914 l 569 914 l 22 214 l 22 193 l 500 193 l 500 0 l 589 0 l 589 193 l 725 193 z m 169 278 l 500 701 l 500 278 z "},"5":{"ha":761,"x_min":0,"x_max":0,"o":"m 403 572 b 188 510 331 572 253 549 l 247 829 l 633 829 l 633 914 l 175 914 l 94 461 l 146 415 b 388 493 222 461 311 493 b 606 286 511 493 606 411 b 375 71 606 157 507 71 b 136 218 264 71 181 133 l 63 178 b 381 -14 121 65 233 -14 b 694 288 560 -14 694 106 b 403 572 694 460 572 572 z "},"6":{"ha":803,"x_min":0,"x_max":0,"o":"m 421 579 b 183 454 319 579 226 528 b 440 840 178 636 257 840 b 632 718 519 840 590 810 l 713 751 b 442 925 653 888 549 925 b 86 390 135 925 86 586 b 411 -14 86 126 200 -14 b 725 285 621 -14 725 140 b 421 579 725 443 601 579 z m 406 72 b 183 304 286 74 183 154 b 418 494 189 433 313 494 b 633 286 544 493 633 401 b 406 72 633 169 543 72 z "},"7":{"ha":683,"x_min":0,"x_max":0,"o":"m 67 914 l 67 829 l 521 829 l 65 0 l 169 0 l 667 904 l 667 914 z "},"8":{"ha":806,"x_min":0,"x_max":0,"o":"m 546 531 b 653 707 611 565 653 626 b 403 925 653 831 550 925 b 154 707 256 925 154 831 b 260 531 154 626 196 565 b 72 269 144 490 72 389 b 403 -14 72 107 211 -14 b 733 271 593 -14 733 107 b 546 531 733 389 658 490 z m 403 842 b 561 700 492 842 561 779 b 403 560 561 621 493 561 b 246 700 311 561 246 622 b 403 842 246 779 314 842 z m 403 71 b 165 276 268 71 165 160 b 403 485 165 393 268 482 b 640 275 535 485 640 393 b 403 71 640 161 540 71 z "},"9":{"ha":803,"x_min":0,"x_max":0,"o":"m 393 925 b 78 628 182 925 78 771 b 383 332 78 468 201 332 b 621 454 482 332 576 379 b 363 71 625 272 544 71 b 172 193 285 71 214 101 l 92 160 b 361 -14 151 24 256 -14 b 718 522 668 -14 718 325 b 393 925 718 765 603 925 z m 385 417 b 169 625 258 419 169 511 b 397 840 169 742 261 840 b 619 607 517 839 619 757 b 385 417 615 478 490 417 z "},"A":{"ha":846,"x_min":0,"x_max":0,"o":"m 740 0 l 836 0 l 472 957 l 375 957 l 10 0 l 107 0 l 203 254 l 644 254 z m 235 336 l 424 835 l 613 336 z "},"Á":{"ha":846,"x_min":0,"x_max":0,"o":"m 626 1265 l 519 1265 l 385 1053 l 471 1053 z m 740 0 l 836 0 l 472 957 l 375 957 l 10 0 l 107 0 l 203 254 l 644 254 z m 235 336 l 424 835 l 613 336 z "},"Ă":{"ha":846,"x_min":0,"x_max":0,"o":"m 422 1075 b 592 1247 524 1075 592 1140 l 514 1247 b 422 1146 514 1189 479 1146 b 329 1247 360 1146 329 1189 l 254 1247 b 422 1075 254 1156 303 1075 z m 740 0 l 836 0 l 472 957 l 375 957 l 10 0 l 107 0 l 203 254 l 644 254 z m 235 336 l 424 835 l 613 336 z "},"Ǎ":{"ha":846,"x_min":0,"x_max":0,"o":"m 471 1053 l 626 1265 l 544 1265 l 422 1122 l 301 1265 l 219 1265 l 375 1053 z m 740 0 l 836 0 l 472 957 l 375 957 l 10 0 l 107 0 l 203 254 l 644 254 z m 235 336 l 424 835 l 613 336 z "},"Â":{"ha":846,"x_min":0,"x_max":0,"o":"m 422 1197 l 544 1053 l 626 1053 l 471 1265 l 375 1265 l 219 1053 l 301 1053 z m 740 0 l 836 0 l 472 957 l 375 957 l 10 0 l 107 0 l 203 254 l 644 254 z m 235 336 l 424 835 l 613 336 z "},"Ä":{"ha":846,"x_min":0,"x_max":0,"o":"m 304 1094 b 372 1157 342 1094 372 1121 b 304 1221 372 1194 342 1221 b 238 1157 268 1221 238 1194 b 304 1094 238 1121 268 1094 z m 539 1094 b 607 1157 576 1094 607 1121 b 539 1221 607 1194 576 1221 b 472 1157 503 1221 472 1194 b 539 1094 472 1121 503 1094 z m 740 0 l 836 0 l 472 957 l 375 957 l 10 0 l 107 0 l 203 254 l 644 254 z m 235 336 l 424 835 l 613 336 z "},"À":{"ha":846,"x_min":0,"x_max":0,"o":"m 468 1053 l 336 1265 l 228 1265 l 382 1053 z m 740 0 l 836 0 l 472 957 l 375 957 l 10 0 l 107 0 l 203 254 l 644 254 z m 235 336 l 424 835 l 613 336 z "},"Ā":{"ha":846,"x_min":0,"x_max":0,"o":"m 592 1194 l 256 1194 l 256 1115 l 592 1115 z m 740 0 l 836 0 l 472 957 l 375 957 l 10 0 l 107 0 l 203 254 l 644 254 z m 235 336 l 424 835 l 613 336 z "},"Ą":{"ha":846,"x_min":0,"x_max":0,"o":"m 871 -133 b 801 -212 868 -182 839 -212 b 735 -146 761 -212 735 -186 b 740 -117 735 -137 738 -126 l 785 0 l 836 0 l 472 957 l 375 957 l 10 0 l 107 0 l 203 254 l 644 254 l 731 26 l 682 -92 b 668 -147 675 -107 668 -131 b 801 -278 668 -225 722 -278 b 936 -133 882 -278 936 -219 z m 235 336 l 424 835 l 613 336 z "},"Å":{"ha":846,"x_min":0,"x_max":0,"o":"m 421 1057 b 556 1189 496 1057 556 1115 b 421 1322 556 1263 496 1322 b 290 1189 349 1322 290 1263 b 421 1057 290 1115 349 1057 z m 421 1264 b 497 1189 464 1264 497 1231 b 421 1115 497 1147 464 1115 b 349 1189 381 1115 349 1147 b 421 1264 349 1231 381 1264 z m 740 0 l 836 0 l 472 957 l 375 957 l 10 0 l 107 0 l 203 254 l 644 254 z m 235 336 l 424 835 l 613 336 z "},"Ǻ":{"ha":846,"x_min":0,"x_max":0,"o":"m 421 1057 b 556 1189 496 1057 556 1115 b 472 1313 556 1244 522 1292 l 557 1428 l 450 1428 l 385 1317 b 290 1189 331 1301 290 1250 b 421 1057 290 1115 349 1057 z m 421 1264 b 497 1189 464 1264 497 1231 b 421 1115 497 1147 464 1115 b 349 1189 381 1115 349 1147 b 421 1264 349 1231 381 1264 z m 740 0 l 836 0 l 472 957 l 375 957 l 10 0 l 107 0 l 203 254 l 644 254 z m 235 336 l 424 835 l 613 336 z "},"Ã":{"ha":846,"x_min":0,"x_max":0,"o":"m 357 1146 b 488 1081 397 1146 424 1081 b 597 1217 540 1081 592 1119 l 532 1217 b 488 1154 531 1172 508 1154 b 357 1219 450 1154 422 1219 b 249 1082 304 1219 253 1179 l 314 1082 b 357 1146 315 1125 338 1146 z m 740 0 l 836 0 l 472 957 l 375 957 l 10 0 l 107 0 l 203 254 l 644 254 z m 235 336 l 424 835 l 613 336 z "},"Æ":{"ha":1285,"x_min":0,"x_max":0,"o":"m 743 86 l 743 426 l 1139 426 l 1139 513 l 743 513 l 743 871 l 1196 871 l 1196 957 l 569 957 l -22 0 l 82 0 l 239 254 l 653 254 l 653 0 l 1213 0 l 1213 86 z m 293 342 l 621 869 l 653 869 l 653 342 z "},"Ǽ":{"ha":1285,"x_min":0,"x_max":0,"o":"m 844 1265 l 738 1265 l 603 1053 l 689 1053 z m 743 86 l 743 426 l 1139 426 l 1139 513 l 743 513 l 743 871 l 1196 871 l 1196 957 l 569 957 l -22 0 l 82 0 l 239 254 l 653 254 l 653 0 l 1213 0 l 1213 86 z m 293 342 l 621 869 l 653 869 l 653 342 z "},"B":{"ha":872,"x_min":0,"x_max":0,"o":"m 617 510 b 743 721 706 546 743 635 b 489 957 743 869 643 957 l 142 957 l 142 0 l 524 0 b 794 264 693 0 794 128 b 617 510 794 364 739 478 z m 488 871 b 651 714 589 871 651 811 b 506 546 651 619 600 546 l 233 546 l 233 871 z m 508 86 l 233 86 l 233 465 l 504 465 b 703 271 629 465 703 374 b 508 86 703 172 632 86 z "},"C":{"ha":942,"x_min":0,"x_max":0,"o":"m 553 -14 b 892 131 688 -14 808 42 l 826 189 b 553 72 757 117 660 72 b 164 476 335 72 164 254 b 553 881 164 699 335 881 b 826 764 660 881 758 836 l 892 822 b 553 967 808 911 688 967 b 72 476 285 967 72 747 b 553 -14 72 206 285 -14 z "},"Ć":{"ha":942,"x_min":0,"x_max":0,"o":"m 428 1053 l 514 1053 l 669 1265 l 563 1265 z m 553 -14 b 892 131 688 -14 808 42 l 826 189 b 553 72 757 117 660 72 b 164 476 335 72 164 254 b 553 881 164 699 335 881 b 826 764 660 881 758 836 l 892 822 b 553 967 808 911 688 967 b 72 476 285 967 72 747 b 553 -14 72 206 285 -14 z "},"Č":{"ha":942,"x_min":0,"x_max":0,"o":"m 479 1053 l 575 1053 l 731 1265 l 649 1265 l 526 1122 l 406 1265 l 324 1265 z m 553 -14 b 892 131 688 -14 808 42 l 826 189 b 553 72 757 117 660 72 b 164 476 335 72 164 254 b 553 881 164 699 335 881 b 826 764 660 881 758 836 l 892 822 b 553 967 808 911 688 967 b 72 476 285 967 72 747 b 553 -14 72 206 285 -14 z "},"Ç":{"ha":942,"x_min":0,"x_max":0,"o":"m 553 72 b 164 476 335 72 164 254 b 553 881 164 699 335 881 b 826 764 660 881 758 836 l 892 822 b 553 967 808 911 688 967 b 72 476 285 967 72 747 b 513 -12 72 219 264 8 l 553 -117 b 558 -146 557 -126 558 -137 b 493 -212 558 -186 533 -212 b 424 -133 454 -212 426 -182 l 358 -133 b 493 -278 358 -219 411 -278 b 625 -147 571 -278 625 -225 b 613 -92 625 -131 619 -107 l 579 -12 b 892 131 703 -7 814 47 l 826 189 b 553 72 757 117 660 72 z "},"Ċ":{"ha":942,"x_min":0,"x_max":0,"o":"m 535 1088 b 603 1150 574 1088 603 1114 b 535 1214 603 1188 574 1214 b 467 1150 497 1214 467 1188 b 535 1088 467 1114 497 1088 z m 553 -14 b 892 131 688 -14 808 42 l 826 189 b 553 72 757 117 660 72 b 164 476 335 72 164 254 b 553 881 164 699 335 881 b 826 764 660 881 758 836 l 892 822 b 553 967 808 911 688 967 b 72 476 285 967 72 747 b 553 -14 72 206 285 -14 z "},"D":{"ha":1008,"x_min":0,"x_max":0,"o":"m 142 0 l 504 0 b 932 476 775 0 932 206 b 504 957 932 749 775 957 l 142 957 z m 233 86 l 233 871 l 504 871 b 840 476 722 871 840 699 b 504 86 840 256 722 86 z "},"Ð":{"ha":1014,"x_min":0,"x_max":0,"o":"m 510 957 l 146 957 l 146 511 l 38 511 l 38 440 l 146 440 l 146 0 l 510 0 b 936 476 781 0 936 206 b 510 957 936 749 781 957 z m 510 86 l 238 86 l 238 440 l 503 440 l 503 511 l 238 511 l 238 871 l 510 871 b 844 476 726 871 844 699 b 510 86 844 256 726 86 z "},"Ď":{"ha":1008,"x_min":0,"x_max":0,"o":"m 400 1053 l 496 1053 l 651 1265 l 569 1265 l 447 1122 l 326 1265 l 244 1265 z m 142 0 l 504 0 b 932 476 775 0 932 206 b 504 957 932 749 775 957 l 142 957 z m 233 86 l 233 871 l 504 871 b 840 476 722 871 840 699 b 504 86 840 256 722 86 z "},"Đ":{"ha":1014,"x_min":0,"x_max":0,"o":"m 510 957 l 146 957 l 146 511 l 38 511 l 38 440 l 146 440 l 146 0 l 510 0 b 936 476 781 0 936 206 b 510 957 936 749 781 957 z m 510 86 l 238 86 l 238 440 l 503 440 l 503 511 l 238 511 l 238 871 l 510 871 b 844 476 726 871 844 699 b 510 86 844 256 726 86 z "},"E":{"ha":775,"x_min":0,"x_max":0,"o":"m 232 86 l 232 426 l 629 426 l 629 513 l 232 513 l 232 871 l 688 871 l 688 957 l 142 957 l 142 0 l 703 0 l 703 86 z "},"É":{"ha":775,"x_min":0,"x_max":0,"o":"m 593 1265 l 486 1265 l 351 1053 l 438 1053 z m 232 86 l 232 426 l 629 426 l 629 513 l 232 513 l 232 871 l 688 871 l 688 957 l 142 957 l 142 0 l 703 0 l 703 86 z "},"Ě":{"ha":775,"x_min":0,"x_max":0,"o":"m 438 1053 l 593 1265 l 511 1265 l 389 1122 l 268 1265 l 186 1265 l 342 1053 z m 232 86 l 232 426 l 629 426 l 629 513 l 232 513 l 232 871 l 688 871 l 688 957 l 142 957 l 142 0 l 703 0 l 703 86 z "},"Ê":{"ha":775,"x_min":0,"x_max":0,"o":"m 389 1197 l 511 1053 l 593 1053 l 438 1265 l 342 1265 l 186 1053 l 268 1053 z m 232 86 l 232 426 l 629 426 l 629 513 l 232 513 l 232 871 l 688 871 l 688 957 l 142 957 l 142 0 l 703 0 l 703 86 z "},"Ë":{"ha":775,"x_min":0,"x_max":0,"o":"m 271 1094 b 339 1157 308 1094 339 1121 b 271 1221 339 1194 308 1221 b 204 1157 235 1221 204 1194 b 271 1094 204 1121 235 1094 z m 506 1094 b 574 1157 543 1094 574 1121 b 506 1221 574 1194 543 1221 b 439 1157 469 1221 439 1194 b 506 1094 439 1121 469 1094 z m 232 86 l 232 426 l 629 426 l 629 513 l 232 513 l 232 871 l 688 871 l 688 957 l 142 957 l 142 0 l 703 0 l 703 86 z "},"Ė":{"ha":775,"x_min":0,"x_max":0,"o":"m 390 1088 b 458 1150 429 1088 458 1114 b 390 1214 458 1188 429 1214 b 322 1150 353 1214 322 1188 b 390 1088 322 1114 353 1088 z m 232 86 l 232 426 l 629 426 l 629 513 l 232 513 l 232 871 l 688 871 l 688 957 l 142 957 l 142 0 l 703 0 l 703 86 z "},"È":{"ha":775,"x_min":0,"x_max":0,"o":"m 435 1053 l 303 1265 l 194 1265 l 349 1053 z m 232 86 l 232 426 l 629 426 l 629 513 l 232 513 l 232 871 l 688 871 l 688 957 l 142 957 l 142 0 l 703 0 l 703 86 z "},"Ē":{"ha":775,"x_min":0,"x_max":0,"o":"m 558 1194 l 222 1194 l 222 1115 l 558 1115 z m 232 86 l 232 426 l 629 426 l 629 513 l 232 513 l 232 871 l 688 871 l 688 957 l 142 957 l 142 0 l 703 0 l 703 86 z "},"Ę":{"ha":775,"x_min":0,"x_max":0,"o":"m 550 0 l 703 0 l 703 86 l 232 86 l 232 426 l 629 426 l 629 513 l 232 513 l 232 871 l 688 871 l 688 957 l 142 957 l 142 0 l 485 0 l 447 -92 b 433 -147 440 -107 433 -131 b 567 -278 433 -225 488 -278 b 700 -133 647 -278 700 -219 l 636 -133 b 567 -212 633 -182 604 -212 b 500 -146 525 -212 500 -186 b 506 -117 500 -137 501 -126 z "},"F":{"ha":721,"x_min":0,"x_max":0,"o":"m 681 871 l 681 957 l 142 957 l 142 0 l 233 0 l 233 426 l 588 426 l 588 513 l 233 513 l 233 871 z "},"G":{"ha":1050,"x_min":0,"x_max":0,"o":"m 557 -14 b 1004 464 817 -14 1000 140 l 617 464 l 617 382 l 904 382 l 903 361 b 557 72 878 175 738 72 b 165 476 336 72 165 254 b 557 882 165 699 336 882 b 800 794 649 882 735 847 l 861 857 b 557 968 781 925 674 968 b 74 476 285 968 74 749 b 557 -14 74 206 285 -14 z "},"Ğ":{"ha":1050,"x_min":0,"x_max":0,"o":"m 526 1075 b 696 1247 628 1075 696 1140 l 618 1247 b 526 1146 618 1189 583 1146 b 433 1247 464 1146 433 1189 l 358 1247 b 526 1075 358 1156 407 1075 z m 557 -14 b 1004 464 817 -14 1000 140 l 617 464 l 617 382 l 904 382 l 903 361 b 557 72 878 175 738 72 b 165 476 336 72 165 254 b 557 882 165 699 336 882 b 800 794 649 882 735 847 l 861 857 b 557 968 781 925 674 968 b 74 476 285 968 74 749 b 557 -14 74 206 285 -14 z "},"Ģ":{"ha":1050,"x_min":0,"x_max":0,"o":"m 557 -14 b 1004 464 817 -14 1000 140 l 617 464 l 617 382 l 904 382 l 903 361 b 557 72 878 175 738 72 b 165 476 336 72 165 254 b 557 882 165 699 336 882 b 800 794 649 882 735 847 l 861 857 b 557 968 781 925 674 968 b 74 476 285 968 74 749 b 557 -14 74 206 285 -14 z m 468 -314 b 575 -54 528 -267 576 -171 l 485 -54 b 413 -292 492 -160 465 -228 z "},"Ġ":{"ha":1050,"x_min":0,"x_max":0,"o":"m 528 1088 b 596 1150 567 1088 596 1114 b 528 1214 596 1188 567 1214 b 460 1150 490 1214 460 1188 b 528 1088 460 1114 490 1088 z m 557 -14 b 1004 464 817 -14 1000 140 l 617 464 l 617 382 l 904 382 l 903 361 b 557 72 878 175 738 72 b 165 476 336 72 165 254 b 557 882 165 699 336 882 b 800 794 649 882 735 847 l 861 857 b 557 968 781 925 674 968 b 74 476 285 968 74 749 b 557 -14 74 206 285 -14 z "},"H":{"ha":993,"x_min":0,"x_max":0,"o":"m 760 957 l 760 517 l 233 517 l 233 957 l 142 957 l 142 0 l 233 0 l 233 435 l 760 435 l 760 0 l 851 0 l 851 957 z "},"Ħ":{"ha":996,"x_min":0,"x_max":0,"o":"m 953 776 l 853 776 l 853 957 l 761 957 l 761 776 l 233 776 l 233 957 l 142 957 l 142 776 l 50 776 l 50 713 l 142 713 l 142 0 l 233 0 l 233 435 l 761 435 l 761 0 l 853 0 l 853 713 l 953 713 z m 761 517 l 233 517 l 233 713 l 761 713 z "},"I":{"ha":374,"x_min":0,"x_max":0,"o":"m 142 0 l 233 0 l 233 957 l 142 957 z "},"Ĳ":{"ha":758,"x_min":0,"x_max":0,"o":"m 142 0 l 233 0 l 233 957 l 142 957 z m 332 -324 b 618 -19 540 -324 618 -185 l 618 957 l 526 957 l 526 -19 b 332 -235 526 -137 474 -235 b 256 -226 318 -235 276 -232 l 246 -314 b 332 -324 274 -318 307 -324 z "},"Í":{"ha":374,"x_min":0,"x_max":0,"o":"m 149 1053 l 235 1053 l 390 1265 l 283 1265 z m 142 0 l 233 0 l 233 957 l 142 957 z "},"Ǐ":{"ha":374,"x_min":0,"x_max":0,"o":"m 139 1053 l 235 1053 l 390 1265 l 308 1265 l 186 1122 l 65 1265 l -17 1265 z m 142 0 l 233 0 l 233 957 l 142 957 z "},"Î":{"ha":374,"x_min":0,"x_max":0,"o":"m -17 1053 l 65 1053 l 186 1197 l 308 1053 l 390 1053 l 235 1265 l 139 1265 z m 142 0 l 233 0 l 233 957 l 142 957 z "},"Ï":{"ha":374,"x_min":0,"x_max":0,"o":"m 68 1094 b 136 1157 106 1094 136 1121 b 68 1221 136 1194 106 1221 b 1 1157 32 1221 1 1194 b 68 1094 1 1121 32 1094 z m 303 1094 b 371 1157 340 1094 371 1121 b 303 1221 371 1194 340 1221 b 236 1157 267 1221 236 1194 b 303 1094 236 1121 267 1094 z m 142 0 l 233 0 l 233 957 l 142 957 z "},"İ":{"ha":374,"x_min":0,"x_max":0,"o":"m 188 1088 b 256 1150 226 1088 256 1114 b 188 1214 256 1188 226 1214 b 119 1150 150 1214 119 1188 b 188 1088 119 1114 150 1088 z m 142 0 l 233 0 l 233 957 l 142 957 z "},"Ì":{"ha":374,"x_min":0,"x_max":0,"o":"m 146 1053 l 232 1053 l 100 1265 l -8 1265 z m 142 0 l 233 0 l 233 957 l 142 957 z "},"Ī":{"ha":374,"x_min":0,"x_max":0,"o":"m 19 1115 l 356 1115 l 356 1194 l 19 1194 z m 142 0 l 233 0 l 233 957 l 142 957 z "},"Į":{"ha":374,"x_min":0,"x_max":0,"o":"m 283 -133 b 214 -212 281 -182 253 -212 b 149 -146 174 -212 149 -186 b 154 -117 149 -137 150 -126 l 199 0 l 233 0 l 233 957 l 142 957 l 142 18 l 94 -92 b 82 -147 88 -107 82 -131 b 214 -278 82 -225 136 -278 b 349 -133 296 -278 349 -219 z "},"Ĩ":{"ha":374,"x_min":0,"x_max":0,"o":"m 13 1082 l 78 1082 b 121 1146 79 1125 101 1146 b 251 1081 161 1146 188 1081 b 361 1217 304 1081 356 1119 l 296 1217 b 251 1154 294 1172 272 1154 b 121 1219 214 1154 186 1219 b 13 1082 68 1219 17 1179 z m 142 0 l 233 0 l 233 957 l 142 957 z "},"J":{"ha":385,"x_min":0,"x_max":0,"o":"m -42 -324 b 244 -19 167 -324 244 -185 l 244 957 l 153 957 l 153 -19 b -42 -235 153 -137 100 -235 b -118 -226 -56 -235 -97 -232 l -128 -314 b -42 -324 -100 -318 -67 -324 z "},"Ĵ":{"ha":385,"x_min":0,"x_max":0,"o":"m -6 1053 l 76 1053 l 197 1197 l 319 1053 l 401 1053 l 246 1265 l 150 1265 z m -42 -324 b 244 -19 167 -324 244 -185 l 244 957 l 153 957 l 153 -19 b -42 -235 153 -137 100 -235 b -118 -226 -56 -235 -97 -232 l -128 -314 b -42 -324 -100 -318 -67 -324 z "},"K":{"ha":760,"x_min":0,"x_max":0,"o":"m 774 0 l 313 467 l 704 957 l 590 957 l 232 507 l 232 957 l 142 957 l 142 0 l 232 0 l 232 421 l 650 0 z "},"Ķ":{"ha":760,"x_min":0,"x_max":0,"o":"m 313 467 l 704 957 l 590 957 l 232 507 l 232 957 l 142 957 l 142 0 l 232 0 l 232 421 l 650 0 l 774 0 z m 343 -54 b 271 -292 350 -160 324 -228 l 326 -314 b 433 -54 386 -267 435 -171 z "},"L":{"ha":672,"x_min":0,"x_max":0,"o":"m 142 0 l 640 0 l 640 86 l 233 86 l 233 957 l 142 957 z "},"Ĺ":{"ha":672,"x_min":0,"x_max":0,"o":"m 144 1053 l 231 1053 l 386 1265 l 279 1265 z m 142 0 l 640 0 l 640 86 l 233 86 l 233 957 l 142 957 z "},"Ľ":{"ha":675,"x_min":0,"x_max":0,"o":"m 142 0 l 640 0 l 640 86 l 233 86 l 233 957 l 142 957 z m 439 713 b 526 957 488 767 526 833 l 438 957 b 378 729 446 865 425 799 z "},"Ļ":{"ha":672,"x_min":0,"x_max":0,"o":"m 142 0 l 640 0 l 640 86 l 233 86 l 233 957 l 142 957 z m 283 -314 b 390 -54 343 -267 392 -171 l 300 -54 b 228 -292 307 -160 281 -228 z "},"Ł":{"ha":675,"x_min":0,"x_max":0,"o":"m 236 86 l 236 421 l 386 515 l 386 590 l 236 496 l 236 957 l 144 957 l 144 439 l 46 376 l 46 301 l 144 364 l 144 0 l 643 0 l 643 86 z "},"M":{"ha":1315,"x_min":0,"x_max":0,"o":"m 1231 0 l 1111 957 l 1026 957 l 658 197 l 290 957 l 204 957 l 86 0 l 175 0 l 274 796 l 617 99 l 701 99 l 1042 793 l 1140 0 z "},"N":{"ha":958,"x_min":0,"x_max":0,"o":"m 726 957 l 726 161 l 238 957 l 142 957 l 142 0 l 233 0 l 233 797 l 724 0 l 818 0 l 818 957 z "},"Ń":{"ha":958,"x_min":0,"x_max":0,"o":"m 682 1265 l 575 1265 l 440 1053 l 526 1053 z m 726 957 l 726 161 l 238 957 l 142 957 l 142 0 l 233 0 l 233 797 l 724 0 l 818 0 l 818 957 z "},"Ň":{"ha":958,"x_min":0,"x_max":0,"o":"m 526 1053 l 682 1265 l 600 1265 l 478 1122 l 357 1265 l 275 1265 l 431 1053 z m 726 957 l 726 161 l 238 957 l 142 957 l 142 0 l 233 0 l 233 797 l 724 0 l 818 0 l 818 957 z "},"Ņ":{"ha":958,"x_min":0,"x_max":0,"o":"m 726 957 l 726 161 l 238 957 l 142 957 l 142 0 l 233 0 l 233 797 l 724 0 l 818 0 l 818 957 z m 436 -54 b 364 -292 443 -160 417 -228 l 419 -314 b 526 -54 479 -267 528 -171 z "},"Ŋ":{"ha":958,"x_min":0,"x_max":0,"o":"m 726 957 l 726 161 l 238 957 l 142 957 l 142 0 l 233 0 l 233 797 l 721 6 l 726 -11 b 532 -225 726 -128 674 -225 b 456 -217 518 -225 476 -222 l 446 -304 b 532 -315 474 -310 507 -315 b 818 -11 740 -315 818 -176 l 818 957 z "},"Ñ":{"ha":958,"x_min":0,"x_max":0,"o":"m 413 1146 b 543 1081 453 1146 479 1081 b 653 1217 596 1081 647 1119 l 588 1217 b 543 1154 586 1172 564 1154 b 413 1219 506 1154 478 1219 b 304 1082 360 1219 308 1179 l 369 1082 b 413 1146 371 1125 393 1146 z m 726 957 l 726 161 l 238 957 l 142 957 l 142 0 l 233 0 l 233 797 l 724 0 l 818 0 l 818 957 z "},"O":{"ha":1113,"x_min":0,"x_max":0,"o":"m 556 -14 b 1039 476 828 -14 1039 206 b 556 968 1039 749 828 968 b 72 476 283 968 72 749 b 556 -14 72 206 283 -14 z m 556 72 b 164 476 335 72 164 254 b 556 882 164 699 335 882 b 947 476 776 882 947 699 b 556 72 947 254 776 72 z "},"Ó":{"ha":1113,"x_min":0,"x_max":0,"o":"m 518 1053 l 604 1053 l 760 1265 l 653 1265 z m 556 -14 b 1039 476 828 -14 1039 206 b 556 968 1039 749 828 968 b 72 476 283 968 72 749 b 556 -14 72 206 283 -14 z m 556 72 b 164 476 335 72 164 254 b 556 882 164 699 335 882 b 947 476 776 882 947 699 b 556 72 947 254 776 72 z "},"Ǒ":{"ha":1113,"x_min":0,"x_max":0,"o":"m 508 1053 l 604 1053 l 760 1265 l 678 1265 l 556 1122 l 435 1265 l 353 1265 z m 556 -14 b 1039 476 828 -14 1039 206 b 556 968 1039 749 828 968 b 72 476 283 968 72 749 b 556 -14 72 206 283 -14 z m 556 72 b 164 476 335 72 164 254 b 556 882 164 699 335 882 b 947 476 776 882 947 699 b 556 72 947 254 776 72 z "},"Ô":{"ha":1113,"x_min":0,"x_max":0,"o":"m 353 1053 l 435 1053 l 556 1197 l 678 1053 l 760 1053 l 604 1265 l 508 1265 z m 556 -14 b 1039 476 828 -14 1039 206 b 556 968 1039 749 828 968 b 72 476 283 968 72 749 b 556 -14 72 206 283 -14 z m 556 72 b 164 476 335 72 164 254 b 556 882 164 699 335 882 b 947 476 776 882 947 699 b 556 72 947 254 776 72 z "},"Ö":{"ha":1113,"x_min":0,"x_max":0,"o":"m 438 1094 b 506 1157 475 1094 506 1121 b 438 1221 506 1194 475 1221 b 371 1157 401 1221 371 1194 b 438 1094 371 1121 401 1094 z m 672 1094 b 740 1157 710 1094 740 1121 b 672 1221 740 1194 710 1221 b 606 1157 636 1221 606 1194 b 672 1094 606 1121 636 1094 z m 556 -14 b 1039 476 828 -14 1039 206 b 556 968 1039 749 828 968 b 72 476 283 968 72 749 b 556 -14 72 206 283 -14 z m 556 72 b 164 476 335 72 164 254 b 556 882 164 699 335 882 b 947 476 776 882 947 699 b 556 72 947 254 776 72 z "},"Ò":{"ha":1113,"x_min":0,"x_max":0,"o":"m 515 1053 l 601 1053 l 469 1265 l 361 1265 z m 556 -14 b 1039 476 828 -14 1039 206 b 556 968 1039 749 828 968 b 72 476 283 968 72 749 b 556 -14 72 206 283 -14 z m 556 72 b 164 476 335 72 164 254 b 556 882 164 699 335 882 b 947 476 776 882 947 699 b 556 72 947 254 776 72 z "},"Ő":{"ha":1113,"x_min":0,"x_max":0,"o":"m 433 1053 l 513 1053 l 643 1265 l 554 1265 z m 607 1053 l 685 1053 l 826 1265 l 735 1265 z m 556 -14 b 1039 476 828 -14 1039 206 b 556 968 1039 749 828 968 b 72 476 283 968 72 749 b 556 -14 72 206 283 -14 z m 556 72 b 164 476 335 72 164 254 b 556 882 164 699 335 882 b 947 476 776 882 947 699 b 556 72 947 254 776 72 z "},"Ō":{"ha":1113,"x_min":0,"x_max":0,"o":"m 389 1115 l 725 1115 l 725 1194 l 389 1194 z m 556 -14 b 1039 476 828 -14 1039 206 b 556 968 1039 749 828 968 b 72 476 283 968 72 749 b 556 -14 72 206 283 -14 z m 556 72 b 164 476 335 72 164 254 b 556 882 164 699 335 882 b 947 476 776 882 947 699 b 556 72 947 254 776 72 z "},"Ø":{"ha":1119,"x_min":0,"x_max":0,"o":"m 1044 922 l 994 969 l 876 850 b 560 968 793 924 682 968 b 76 476 288 968 76 749 b 194 153 76 353 121 240 l 76 33 l 126 -17 l 244 103 b 560 -14 328 31 438 -14 b 1043 476 832 -14 1043 206 b 925 800 1043 600 999 714 z m 168 476 b 560 882 168 699 339 882 b 814 786 658 882 746 846 l 257 218 b 168 476 201 288 168 378 z m 951 476 b 560 72 951 254 781 72 b 306 167 463 72 374 108 l 863 736 b 951 476 918 665 951 575 z "},"Ǿ":{"ha":1119,"x_min":0,"x_max":0,"o":"m 763 1265 l 656 1265 l 521 1053 l 607 1053 z m 1044 922 l 994 969 l 876 850 b 560 968 793 924 682 968 b 76 476 288 968 76 749 b 194 153 76 353 121 240 l 76 33 l 126 -17 l 244 103 b 560 -14 328 31 438 -14 b 1043 476 832 -14 1043 206 b 925 800 1043 600 999 714 z m 168 476 b 560 882 168 699 339 882 b 814 786 658 882 746 846 l 257 218 b 168 476 201 288 168 378 z m 951 476 b 560 72 951 254 781 72 b 306 167 463 72 374 108 l 863 736 b 951 476 918 665 951 575 z "},"Õ":{"ha":1113,"x_min":0,"x_max":0,"o":"m 382 1082 l 447 1082 b 490 1146 449 1125 471 1146 b 621 1081 531 1146 557 1081 b 731 1217 674 1081 725 1119 l 665 1217 b 621 1154 664 1172 642 1154 b 490 1219 583 1154 556 1219 b 382 1082 438 1219 386 1179 z m 556 -14 b 1039 476 828 -14 1039 206 b 556 968 1039 749 828 968 b 72 476 283 968 72 749 b 556 -14 72 206 283 -14 z m 556 72 b 164 476 335 72 164 254 b 556 882 164 699 335 882 b 947 476 776 882 947 699 b 556 72 947 254 776 72 z "},"Œ":{"ha":1583,"x_min":0,"x_max":0,"o":"m 1040 86 l 1040 426 l 1438 426 l 1438 513 l 1040 513 l 1040 871 l 1494 871 l 1494 957 l 949 957 l 949 760 b 556 968 864 886 721 968 b 72 476 283 968 72 749 b 556 -14 72 206 283 -14 b 949 194 721 -14 864 68 l 949 0 l 1510 0 l 1510 86 z m 556 72 b 164 476 335 72 164 254 b 556 882 164 699 335 882 b 947 476 776 882 947 699 b 556 72 947 254 776 72 z "},"P":{"ha":843,"x_min":0,"x_max":0,"o":"m 518 957 l 142 957 l 142 0 l 233 0 l 233 374 l 514 374 b 792 665 714 374 792 517 b 518 957 792 813 714 957 z m 510 460 l 233 460 l 233 871 l 517 871 b 700 665 649 871 700 768 b 510 460 700 561 647 460 z "},"Þ":{"ha":807,"x_min":0,"x_max":0,"o":"m 458 768 l 233 768 l 233 957 l 142 957 l 142 0 l 233 0 l 233 190 l 458 190 b 743 482 617 190 743 306 b 458 768 743 657 617 768 z m 460 276 l 233 276 l 233 682 l 454 682 b 654 482 564 682 654 606 b 460 276 654 360 568 276 z "},"Q":{"ha":1113,"x_min":0,"x_max":0,"o":"m 1039 476 b 556 968 1039 749 828 968 b 72 476 283 968 72 749 b 556 -14 72 206 283 -14 b 725 17 615 -14 672 -3 l 835 -160 l 907 -117 l 800 53 b 1039 476 944 138 1039 296 z m 556 72 b 164 476 335 72 164 254 b 556 882 164 699 335 882 b 947 476 776 882 947 699 b 754 126 947 328 871 197 l 639 310 l 568 265 l 676 92 b 556 72 639 79 599 72 z "},"R":{"ha":853,"x_min":0,"x_max":0,"o":"m 774 665 b 497 957 774 813 697 957 l 142 957 l 142 0 l 233 0 l 233 375 l 393 375 l 656 0 l 767 0 l 501 375 b 774 665 699 379 774 519 z m 233 871 l 499 871 b 682 665 621 871 682 779 b 475 460 682 551 625 460 l 233 460 z "},"Ŕ":{"ha":853,"x_min":0,"x_max":0,"o":"m 631 1265 l 524 1265 l 389 1053 l 475 1053 z m 774 665 b 497 957 774 813 697 957 l 142 957 l 142 0 l 233 0 l 233 375 l 393 375 l 656 0 l 767 0 l 501 375 b 774 665 699 379 774 519 z m 233 871 l 499 871 b 682 665 621 871 682 779 b 475 460 682 551 625 460 l 233 460 z "},"Ř":{"ha":853,"x_min":0,"x_max":0,"o":"m 475 1053 l 631 1265 l 549 1265 l 426 1122 l 306 1265 l 224 1265 l 379 1053 z m 774 665 b 497 957 774 813 697 957 l 142 957 l 142 0 l 233 0 l 233 375 l 393 375 l 656 0 l 767 0 l 501 375 b 774 665 699 379 774 519 z m 233 871 l 499 871 b 682 665 621 871 682 779 b 475 460 682 551 625 460 l 233 460 z "},"Ŗ":{"ha":853,"x_min":0,"x_max":0,"o":"m 774 665 b 497 957 774 813 697 957 l 142 957 l 142 0 l 233 0 l 233 375 l 393 375 l 656 0 l 767 0 l 501 375 b 774 665 699 379 774 519 z m 233 871 l 499 871 b 682 665 621 871 682 779 b 475 460 682 551 625 460 l 233 460 z m 385 -54 b 313 -292 392 -160 365 -228 l 368 -314 b 475 -54 428 -267 476 -171 z "},"S":{"ha":786,"x_min":0,"x_max":0,"o":"m 397 -14 b 718 264 607 -14 718 129 b 461 522 718 403 613 485 l 332 553 b 175 707 189 586 175 663 b 385 882 175 814 276 882 b 593 708 500 882 588 814 l 685 708 b 388 968 679 868 550 968 b 83 707 229 968 83 865 b 310 468 83 631 113 515 l 439 438 b 626 260 533 414 626 364 b 397 72 626 169 550 72 b 167 257 263 72 176 163 l 76 257 b 397 -14 83 118 210 -14 z "},"Ś":{"ha":786,"x_min":0,"x_max":0,"o":"m 354 1053 l 440 1053 l 596 1265 l 489 1265 z m 397 -14 b 718 264 607 -14 718 129 b 461 522 718 403 613 485 l 332 553 b 175 707 189 586 175 663 b 385 882 175 814 276 882 b 593 708 500 882 588 814 l 685 708 b 388 968 679 868 550 968 b 83 707 229 968 83 865 b 310 468 83 631 113 515 l 439 438 b 626 260 533 414 626 364 b 397 72 626 169 550 72 b 167 257 263 72 176 163 l 76 257 b 397 -14 83 118 210 -14 z "},"Š":{"ha":786,"x_min":0,"x_max":0,"o":"m 344 1053 l 440 1053 l 596 1265 l 514 1265 l 392 1122 l 271 1265 l 189 1265 z m 397 -14 b 718 264 607 -14 718 129 b 461 522 718 403 613 485 l 332 553 b 175 707 189 586 175 663 b 385 882 175 814 276 882 b 593 708 500 882 588 814 l 685 708 b 388 968 679 868 550 968 b 83 707 229 968 83 865 b 310 468 83 631 113 515 l 439 438 b 626 260 533 414 626 364 b 397 72 626 169 550 72 b 167 257 263 72 176 163 l 76 257 b 397 -14 83 118 210 -14 z "},"Ş":{"ha":786,"x_min":0,"x_max":0,"o":"m 718 264 b 461 522 718 403 613 485 l 332 553 b 175 707 189 586 175 663 b 385 882 175 814 276 882 b 593 708 500 882 588 814 l 685 708 b 388 968 679 868 550 968 b 83 707 229 968 83 865 b 310 468 83 631 113 515 l 439 438 b 626 260 533 414 626 364 b 397 72 626 169 550 72 b 167 257 263 72 176 163 l 76 257 b 389 -14 83 121 206 -10 l 428 -117 b 433 -146 432 -126 433 -137 b 368 -212 433 -186 408 -212 b 299 -133 329 -212 301 -182 l 233 -133 b 368 -278 233 -219 286 -278 b 500 -147 446 -278 500 -225 b 488 -92 500 -131 494 -107 l 453 -10 b 718 264 626 13 718 142 z "},"Ș":{"ha":786,"x_min":0,"x_max":0,"o":"m 397 -14 b 718 264 607 -14 718 129 b 461 522 718 403 613 485 l 332 553 b 175 707 189 586 175 663 b 385 882 175 814 276 882 b 593 708 500 882 588 814 l 685 708 b 388 968 679 868 550 968 b 83 707 229 968 83 865 b 310 468 83 631 113 515 l 439 438 b 626 260 533 414 626 364 b 397 72 626 169 550 72 b 167 257 263 72 176 163 l 76 257 b 397 -14 83 118 210 -14 z m 333 -314 b 440 -54 393 -267 442 -171 l 350 -54 b 278 -292 357 -160 331 -228 z "},"ẞ":{"ha":931,"x_min":0,"x_max":0,"o":"m 590 576 l 786 894 l 786 911 b 485 968 714 944 574 968 b 131 608 251 968 131 849 l 131 0 l 222 0 l 222 607 b 483 882 222 797 306 882 b 660 858 526 882 606 875 l 482 572 l 497 500 l 531 499 b 772 292 675 490 772 404 b 526 69 772 154 674 69 b 400 85 482 69 432 75 l 381 6 b 526 -14 425 -8 483 -15 b 864 289 729 -14 864 103 b 590 576 864 428 763 547 z "},"T":{"ha":760,"x_min":0,"x_max":0,"o":"m 731 957 l 29 957 l 29 871 l 333 871 l 333 0 l 425 0 l 425 871 l 731 871 z "},"Ŧ":{"ha":783,"x_min":0,"x_max":0,"o":"m 743 871 l 743 957 l 42 957 l 42 871 l 346 871 l 346 535 l 167 535 l 167 467 l 346 467 l 346 0 l 438 0 l 438 467 l 617 467 l 617 535 l 438 535 l 438 871 z "},"Ť":{"ha":760,"x_min":0,"x_max":0,"o":"m 428 1053 l 583 1265 l 501 1265 l 379 1122 l 258 1265 l 176 1265 l 332 1053 z m 731 957 l 29 957 l 29 871 l 333 871 l 333 0 l 425 0 l 425 871 l 731 871 z "},"Ţ":{"ha":760,"x_min":0,"x_max":0,"o":"m 731 871 l 731 957 l 29 957 l 29 871 l 333 871 l 333 0 l 374 0 l 417 -117 b 424 -146 421 -126 424 -137 b 357 -212 424 -186 397 -212 b 288 -133 319 -212 290 -182 l 222 -133 b 357 -278 222 -219 276 -278 b 490 -147 436 -278 490 -225 b 476 -92 490 -131 483 -107 l 425 29 l 425 871 z "},"Ț":{"ha":760,"x_min":0,"x_max":0,"o":"m 29 957 l 29 871 l 333 871 l 333 0 l 425 0 l 425 871 l 731 871 l 731 957 z m 338 -54 b 265 -292 344 -160 318 -228 l 321 -314 b 428 -54 381 -267 429 -171 z "},"U":{"ha":942,"x_min":0,"x_max":0,"o":"m 471 -14 b 813 322 656 -14 813 113 l 813 957 l 721 957 l 721 322 b 471 74 721 163 607 74 b 221 322 335 74 221 163 l 221 957 l 129 957 l 129 322 b 471 -14 129 113 286 -14 z "},"Ú":{"ha":942,"x_min":0,"x_max":0,"o":"m 432 1053 l 518 1053 l 674 1265 l 567 1265 z m 471 -14 b 813 322 656 -14 813 113 l 813 957 l 721 957 l 721 322 b 471 74 721 163 607 74 b 221 322 335 74 221 163 l 221 957 l 129 957 l 129 322 b 471 -14 129 113 286 -14 z "},"Ǔ":{"ha":942,"x_min":0,"x_max":0,"o":"m 422 1053 l 518 1053 l 674 1265 l 592 1265 l 469 1122 l 349 1265 l 267 1265 z m 471 -14 b 813 322 656 -14 813 113 l 813 957 l 721 957 l 721 322 b 471 74 721 163 607 74 b 221 322 335 74 221 163 l 221 957 l 129 957 l 129 322 b 471 -14 129 113 286 -14 z "},"Û":{"ha":942,"x_min":0,"x_max":0,"o":"m 267 1053 l 349 1053 l 469 1197 l 592 1053 l 674 1053 l 518 1265 l 422 1265 z m 471 -14 b 813 322 656 -14 813 113 l 813 957 l 721 957 l 721 322 b 471 74 721 163 607 74 b 221 322 335 74 221 163 l 221 957 l 129 957 l 129 322 b 471 -14 129 113 286 -14 z "},"Ü":{"ha":942,"x_min":0,"x_max":0,"o":"m 351 1094 b 419 1157 389 1094 419 1121 b 351 1221 419 1194 389 1221 b 285 1157 315 1221 285 1194 b 351 1094 285 1121 315 1094 z m 586 1094 b 654 1157 624 1094 654 1121 b 586 1221 654 1194 624 1221 b 519 1157 550 1221 519 1194 b 586 1094 519 1121 550 1094 z m 471 -14 b 813 322 656 -14 813 113 l 813 957 l 721 957 l 721 322 b 471 74 721 163 607 74 b 221 322 335 74 221 163 l 221 957 l 129 957 l 129 322 b 471 -14 129 113 286 -14 z "},"Ǘ":{"ha":942,"x_min":0,"x_max":0,"o":"m 432 1279 l 518 1279 l 674 1492 l 567 1492 z m 351 1094 b 419 1157 389 1094 419 1121 b 351 1221 419 1194 389 1221 b 285 1157 315 1221 285 1194 b 351 1094 285 1121 315 1094 z m 586 1094 b 654 1157 624 1094 654 1121 b 586 1221 654 1194 624 1221 b 519 1157 550 1221 519 1194 b 586 1094 519 1121 550 1094 z m 471 -14 b 813 322 656 -14 813 113 l 813 957 l 721 957 l 721 322 b 471 74 721 163 607 74 b 221 322 335 74 221 163 l 221 957 l 129 957 l 129 322 b 471 -14 129 113 286 -14 z "},"Ǚ":{"ha":942,"x_min":0,"x_max":0,"o":"m 422 1279 l 518 1279 l 674 1492 l 592 1492 l 469 1349 l 349 1492 l 267 1492 z m 351 1094 b 419 1157 389 1094 419 1121 b 351 1221 419 1194 389 1221 b 285 1157 315 1221 285 1194 b 351 1094 285 1121 315 1094 z m 586 1094 b 654 1157 624 1094 654 1121 b 586 1221 654 1194 624 1221 b 519 1157 550 1221 519 1194 b 586 1094 519 1121 550 1094 z m 471 -14 b 813 322 656 -14 813 113 l 813 957 l 721 957 l 721 322 b 471 74 721 163 607 74 b 221 322 335 74 221 163 l 221 957 l 129 957 l 129 322 b 471 -14 129 113 286 -14 z "},"Ǜ":{"ha":942,"x_min":0,"x_max":0,"o":"m 429 1279 l 515 1279 l 383 1492 l 275 1492 z m 351 1094 b 419 1157 389 1094 419 1121 b 351 1221 419 1194 389 1221 b 285 1157 315 1221 285 1194 b 351 1094 285 1121 315 1094 z m 586 1094 b 654 1157 624 1094 654 1121 b 586 1221 654 1194 624 1221 b 519 1157 550 1221 519 1194 b 586 1094 519 1121 550 1094 z m 471 -14 b 813 322 656 -14 813 113 l 813 957 l 721 957 l 721 322 b 471 74 721 163 607 74 b 221 322 335 74 221 163 l 221 957 l 129 957 l 129 322 b 471 -14 129 113 286 -14 z "},"Ǖ":{"ha":942,"x_min":0,"x_max":0,"o":"m 303 1325 l 639 1325 l 639 1404 l 303 1404 z m 351 1094 b 419 1157 389 1094 419 1121 b 351 1221 419 1194 389 1221 b 285 1157 315 1221 285 1194 b 351 1094 285 1121 315 1094 z m 586 1094 b 654 1157 624 1094 654 1121 b 586 1221 654 1194 624 1221 b 519 1157 550 1221 519 1194 b 586 1094 519 1121 550 1094 z m 471 -14 b 813 322 656 -14 813 113 l 813 957 l 721 957 l 721 322 b 471 74 721 163 607 74 b 221 322 335 74 221 163 l 221 957 l 129 957 l 129 322 b 471 -14 129 113 286 -14 z "},"Ù":{"ha":942,"x_min":0,"x_max":0,"o":"m 429 1053 l 515 1053 l 383 1265 l 275 1265 z m 471 -14 b 813 322 656 -14 813 113 l 813 957 l 721 957 l 721 322 b 471 74 721 163 607 74 b 221 322 335 74 221 163 l 221 957 l 129 957 l 129 322 b 471 -14 129 113 286 -14 z "},"Ű":{"ha":942,"x_min":0,"x_max":0,"o":"m 347 1053 l 426 1053 l 557 1265 l 468 1265 z m 521 1053 l 599 1053 l 740 1265 l 649 1265 z m 471 -14 b 813 322 656 -14 813 113 l 813 957 l 721 957 l 721 322 b 471 74 721 163 607 74 b 221 322 335 74 221 163 l 221 957 l 129 957 l 129 322 b 471 -14 129 113 286 -14 z "},"Ū":{"ha":942,"x_min":0,"x_max":0,"o":"m 303 1115 l 639 1115 l 639 1194 l 303 1194 z m 471 -14 b 813 322 656 -14 813 113 l 813 957 l 721 957 l 721 322 b 471 74 721 163 607 74 b 221 322 335 74 221 163 l 221 957 l 129 957 l 129 322 b 471 -14 129 113 286 -14 z "},"Ų":{"ha":942,"x_min":0,"x_max":0,"o":"m 721 957 l 721 322 b 471 74 721 163 607 74 b 221 322 335 74 221 163 l 221 957 l 129 957 l 129 322 b 431 -12 129 128 264 6 l 397 -92 b 383 -147 390 -107 383 -131 b 517 -278 383 -225 438 -278 b 650 -133 597 -278 650 -219 l 586 -133 b 517 -212 583 -182 554 -212 b 450 -146 475 -212 450 -186 b 456 -117 450 -137 451 -126 l 494 -12 b 813 322 669 -3 813 122 l 813 957 z "},"Ů":{"ha":942,"x_min":0,"x_max":0,"o":"m 468 1057 b 603 1189 543 1057 603 1115 b 468 1322 603 1263 543 1322 b 338 1189 396 1322 338 1263 b 468 1057 338 1115 396 1057 z m 468 1115 b 396 1189 428 1115 396 1147 b 468 1264 396 1231 428 1264 b 544 1189 511 1264 544 1231 b 468 1115 544 1147 511 1115 z m 471 -14 b 813 322 656 -14 813 113 l 813 957 l 721 957 l 721 322 b 471 74 721 163 607 74 b 221 322 335 74 221 163 l 221 957 l 129 957 l 129 322 b 471 -14 129 113 286 -14 z "},"V":{"ha":756,"x_min":0,"x_max":0,"o":"m 618 957 l 378 144 l 136 957 l 40 957 l 331 0 l 426 0 l 713 957 z "},"W":{"ha":1257,"x_min":0,"x_max":0,"o":"m 1132 957 l 864 139 l 668 818 l 589 818 l 393 143 l 125 957 l 28 957 l 351 0 l 438 0 l 628 664 l 819 0 l 906 0 l 1229 957 z "},"Ẃ":{"ha":1257,"x_min":0,"x_max":0,"o":"m 832 1265 l 725 1265 l 590 1053 l 676 1053 z m 1132 957 l 864 139 l 668 818 l 589 818 l 393 143 l 125 957 l 28 957 l 351 0 l 438 0 l 628 664 l 819 0 l 906 0 l 1229 957 z "},"Ŵ":{"ha":1257,"x_min":0,"x_max":0,"o":"m 628 1197 l 750 1053 l 832 1053 l 676 1265 l 581 1265 l 425 1053 l 507 1053 z m 1132 957 l 864 139 l 668 818 l 589 818 l 393 143 l 125 957 l 28 957 l 351 0 l 438 0 l 628 664 l 819 0 l 906 0 l 1229 957 z "},"Ẅ":{"ha":1257,"x_min":0,"x_max":0,"o":"m 510 1094 b 578 1157 547 1094 578 1121 b 510 1221 578 1194 547 1221 b 443 1157 474 1221 443 1194 b 510 1094 443 1121 474 1094 z m 744 1094 b 813 1157 782 1094 813 1121 b 744 1221 813 1194 782 1221 b 678 1157 708 1221 678 1194 b 744 1094 678 1121 708 1094 z m 1132 957 l 864 139 l 668 818 l 589 818 l 393 143 l 125 957 l 28 957 l 351 0 l 438 0 l 628 664 l 819 0 l 906 0 l 1229 957 z "},"Ẁ":{"ha":1257,"x_min":0,"x_max":0,"o":"m 674 1053 l 542 1265 l 433 1265 l 588 1053 z m 1132 957 l 864 139 l 668 818 l 589 818 l 393 143 l 125 957 l 28 957 l 351 0 l 438 0 l 628 664 l 819 0 l 906 0 l 1229 957 z "},"X":{"ha":817,"x_min":0,"x_max":0,"o":"m 804 0 l 463 515 l 760 957 l 650 957 l 408 589 l 167 957 l 57 957 l 354 515 l 14 0 l 122 0 l 408 440 l 694 0 z "},"Y":{"ha":836,"x_min":0,"x_max":0,"o":"m 718 957 l 418 538 l 119 957 l 11 957 l 371 449 l 371 0 l 463 0 l 463 449 l 828 957 z "},"Ý":{"ha":836,"x_min":0,"x_max":0,"o":"m 621 1265 l 514 1265 l 379 1053 l 465 1053 z m 718 957 l 418 538 l 119 957 l 11 957 l 371 449 l 371 0 l 463 0 l 463 449 l 828 957 z "},"Ŷ":{"ha":836,"x_min":0,"x_max":0,"o":"m 417 1197 l 539 1053 l 621 1053 l 465 1265 l 369 1265 l 214 1053 l 296 1053 z m 718 957 l 418 538 l 119 957 l 11 957 l 371 449 l 371 0 l 463 0 l 463 449 l 828 957 z "},"Ÿ":{"ha":836,"x_min":0,"x_max":0,"o":"m 299 1094 b 367 1157 336 1094 367 1121 b 299 1221 367 1194 336 1221 b 232 1157 263 1221 232 1194 b 299 1094 232 1121 263 1094 z m 533 1094 b 601 1157 571 1094 601 1121 b 533 1221 601 1194 571 1221 b 467 1157 497 1221 467 1194 b 533 1094 467 1121 497 1094 z m 718 957 l 418 538 l 119 957 l 11 957 l 371 449 l 371 0 l 463 0 l 463 449 l 828 957 z "},"Ỳ":{"ha":836,"x_min":0,"x_max":0,"o":"m 463 1053 l 331 1265 l 222 1265 l 376 1053 z m 718 957 l 418 538 l 119 957 l 11 957 l 371 449 l 371 0 l 463 0 l 463 449 l 828 957 z "},"Z":{"ha":761,"x_min":0,"x_max":0,"o":"m 701 957 l 67 957 l 67 871 l 583 871 l 56 74 l 56 0 l 701 0 l 701 86 l 174 86 l 701 882 z "},"Ź":{"ha":761,"x_min":0,"x_max":0,"o":"m 585 1265 l 478 1265 l 343 1053 l 429 1053 z m 701 957 l 67 957 l 67 871 l 583 871 l 56 74 l 56 0 l 701 0 l 701 86 l 174 86 l 701 882 z "},"Ž":{"ha":761,"x_min":0,"x_max":0,"o":"m 429 1053 l 585 1265 l 503 1265 l 381 1122 l 260 1265 l 178 1265 l 333 1053 z m 701 957 l 67 957 l 67 871 l 583 871 l 56 74 l 56 0 l 701 0 l 701 86 l 174 86 l 701 882 z "},"Ż":{"ha":761,"x_min":0,"x_max":0,"o":"m 382 1088 b 450 1150 421 1088 450 1114 b 382 1214 450 1188 421 1214 b 314 1150 344 1214 314 1188 b 382 1088 314 1114 344 1088 z m 701 957 l 67 957 l 67 871 l 583 871 l 56 74 l 56 0 l 701 0 l 701 86 l 174 86 l 701 882 z "},"a":{"ha":854,"x_min":0,"x_max":0,"o":"m 654 649 l 654 524 b 396 663 606 611 506 663 b 67 325 214 663 67 522 b 396 -14 67 128 215 -14 b 654 126 504 -14 606 38 l 654 0 l 743 0 l 743 649 z m 403 71 b 156 326 267 71 156 182 b 403 578 156 469 267 578 b 654 322 532 578 654 479 b 403 71 654 172 538 71 z "},"á":{"ha":854,"x_min":0,"x_max":0,"o":"m 629 957 l 522 957 l 388 744 l 474 744 z m 654 649 l 654 524 b 396 663 606 611 506 663 b 67 325 214 663 67 522 b 396 -14 67 128 215 -14 b 654 126 504 -14 606 38 l 654 0 l 743 0 l 743 649 z m 403 71 b 156 326 267 71 156 182 b 403 578 156 469 267 578 b 654 322 532 578 654 479 b 403 71 654 172 538 71 z "},"ă":{"ha":854,"x_min":0,"x_max":0,"o":"m 425 767 b 594 939 526 767 594 832 l 517 939 b 425 838 517 881 482 838 b 332 939 363 838 332 881 l 257 939 b 425 767 257 847 306 767 z m 654 649 l 654 524 b 396 663 606 611 506 663 b 67 325 214 663 67 522 b 396 -14 67 128 215 -14 b 654 126 504 -14 606 38 l 654 0 l 743 0 l 743 649 z m 403 71 b 156 326 267 71 156 182 b 403 578 156 469 267 578 b 654 322 532 578 654 479 b 403 71 654 172 538 71 z "},"ǎ":{"ha":854,"x_min":0,"x_max":0,"o":"m 474 744 l 629 957 l 547 957 l 425 814 l 304 957 l 222 957 l 378 744 z m 654 649 l 654 524 b 396 663 606 611 506 663 b 67 325 214 663 67 522 b 396 -14 67 128 215 -14 b 654 126 504 -14 606 38 l 654 0 l 743 0 l 743 649 z m 403 71 b 156 326 267 71 156 182 b 403 578 156 469 267 578 b 654 322 532 578 654 479 b 403 71 654 172 538 71 z "},"â":{"ha":854,"x_min":0,"x_max":0,"o":"m 425 889 l 547 744 l 629 744 l 474 957 l 378 957 l 222 744 l 304 744 z m 654 649 l 654 524 b 396 663 606 611 506 663 b 67 325 214 663 67 522 b 396 -14 67 128 215 -14 b 654 126 504 -14 606 38 l 654 0 l 743 0 l 743 649 z m 403 71 b 156 326 267 71 156 182 b 403 578 156 469 267 578 b 654 322 532 578 654 479 b 403 71 654 172 538 71 z "},"ä":{"ha":854,"x_min":0,"x_max":0,"o":"m 307 786 b 375 849 344 786 375 813 b 307 913 375 886 344 913 b 240 849 271 913 240 886 b 307 786 240 813 271 786 z m 542 786 b 610 849 579 786 610 813 b 542 913 610 886 579 913 b 475 849 506 913 475 886 b 542 786 475 813 506 786 z m 654 649 l 654 524 b 396 663 606 611 506 663 b 67 325 214 663 67 522 b 396 -14 67 128 215 -14 b 654 126 504 -14 606 38 l 654 0 l 743 0 l 743 649 z m 403 71 b 156 326 267 71 156 182 b 403 578 156 469 267 578 b 654 322 532 578 654 479 b 403 71 654 172 538 71 z "},"à":{"ha":854,"x_min":0,"x_max":0,"o":"m 471 744 l 339 957 l 231 957 l 385 744 z m 654 649 l 654 524 b 396 663 606 611 506 663 b 67 325 214 663 67 522 b 396 -14 67 128 215 -14 b 654 126 504 -14 606 38 l 654 0 l 743 0 l 743 649 z m 403 71 b 156 326 267 71 156 182 b 403 578 156 469 267 578 b 654 322 532 578 654 479 b 403 71 654 172 538 71 z "},"ā":{"ha":854,"x_min":0,"x_max":0,"o":"m 594 886 l 258 886 l 258 807 l 594 807 z m 654 649 l 654 524 b 396 663 606 611 506 663 b 67 325 214 663 67 522 b 396 -14 67 128 215 -14 b 654 126 504 -14 606 38 l 654 0 l 743 0 l 743 649 z m 403 71 b 156 326 267 71 156 182 b 403 578 156 469 267 578 b 654 322 532 578 654 479 b 403 71 654 172 538 71 z "},"ą":{"ha":854,"x_min":0,"x_max":0,"o":"m 724 -278 b 858 -133 806 -278 858 -219 l 793 -133 b 724 -212 790 -182 763 -212 b 658 -146 683 -212 658 -186 b 664 -117 658 -137 660 -126 l 707 0 l 743 0 l 743 649 l 654 649 l 654 524 b 396 663 606 610 506 663 b 67 325 214 663 67 522 b 396 -14 67 128 215 -14 b 654 126 504 -14 606 40 l 654 28 l 604 -92 b 592 -147 597 -107 592 -131 b 724 -278 592 -225 646 -278 z m 403 71 b 156 326 267 71 156 182 b 403 578 156 469 267 578 b 654 322 532 578 654 479 b 403 71 654 172 538 71 z "},"å":{"ha":854,"x_min":0,"x_max":0,"o":"m 424 749 b 558 881 499 749 558 807 b 424 1014 558 954 499 1014 b 293 881 351 1014 293 954 b 424 749 293 807 351 749 z m 424 956 b 500 881 467 956 500 922 b 424 807 500 839 467 807 b 351 881 383 807 351 839 b 424 956 351 922 383 956 z m 654 649 l 654 524 b 396 663 606 611 506 663 b 67 325 214 663 67 522 b 396 -14 67 128 215 -14 b 654 126 504 -14 606 38 l 654 0 l 743 0 l 743 649 z m 403 71 b 156 326 267 71 156 182 b 403 578 156 469 267 578 b 654 322 532 578 654 479 b 403 71 654 172 538 71 z "},"ǻ":{"ha":854,"x_min":0,"x_max":0,"o":"m 424 749 b 558 881 500 749 558 807 b 489 999 558 932 531 975 l 583 1122 l 476 1122 l 408 1013 b 293 881 343 1006 293 949 b 424 749 293 807 351 749 z m 424 956 b 501 881 467 956 501 922 b 424 807 501 839 467 807 b 351 881 385 807 351 839 b 424 956 351 922 385 956 z m 654 649 l 654 524 b 396 663 606 611 506 663 b 67 325 214 663 67 522 b 396 -14 67 128 215 -14 b 654 126 504 -14 606 38 l 654 0 l 743 0 l 743 649 z m 403 71 b 156 326 267 71 156 182 b 403 578 156 469 267 578 b 654 322 532 578 654 479 b 403 71 654 172 538 71 z "},"ã":{"ha":854,"x_min":0,"x_max":0,"o":"m 360 838 b 490 772 400 838 426 772 b 600 908 543 772 594 811 l 535 908 b 490 846 533 864 511 846 b 360 911 453 846 425 911 b 251 774 307 911 256 871 l 317 774 b 360 838 318 817 340 838 z m 654 649 l 654 524 b 396 663 606 611 506 663 b 67 325 214 663 67 522 b 396 -14 67 128 215 -14 b 654 126 504 -14 606 38 l 654 0 l 743 0 l 743 649 z m 403 71 b 156 326 267 71 156 182 b 403 578 156 469 267 578 b 654 322 532 578 654 479 b 403 71 654 172 538 71 z "},"æ":{"ha":1267,"x_min":0,"x_max":0,"o":"m 1206 326 b 886 663 1206 532 1069 663 b 617 528 774 663 675 614 b 357 663 575 617 486 663 b 94 554 276 663 164 642 l 150 499 b 351 579 203 551 274 579 b 556 394 478 579 556 519 l 556 324 b 314 376 488 357 394 376 b 57 178 149 376 57 290 b 292 -14 57 60 153 -14 b 601 143 410 -14 515 39 b 886 -14 660 44 765 -14 b 1176 149 1008 -14 1119 44 l 1099 182 b 888 71 1057 111 976 71 b 646 288 760 71 661 156 l 1204 288 b 1206 326 1204 300 1206 314 z m 647 364 b 886 578 663 493 744 578 b 1117 364 1011 578 1104 499 z m 290 67 b 142 181 197 67 142 115 b 319 303 142 242 196 303 b 556 249 386 303 482 286 l 567 214 b 290 67 514 131 389 67 z "},"ǽ":{"ha":1267,"x_min":0,"x_max":0,"o":"m 835 957 l 728 957 l 593 744 l 679 744 z m 1206 326 b 886 663 1206 532 1069 663 b 617 528 774 663 675 614 b 357 663 575 617 486 663 b 94 554 276 663 164 642 l 150 499 b 351 579 203 551 274 579 b 556 394 478 579 556 519 l 556 324 b 314 376 488 357 394 376 b 57 178 149 376 57 290 b 292 -14 57 60 153 -14 b 601 143 410 -14 515 39 b 886 -14 660 44 765 -14 b 1176 149 1008 -14 1119 44 l 1099 182 b 888 71 1057 111 976 71 b 646 288 760 71 661 156 l 1204 288 b 1206 326 1204 300 1206 314 z m 647 364 b 886 578 663 493 744 578 b 1117 364 1011 578 1104 499 z m 290 67 b 142 181 197 67 142 115 b 319 303 142 242 196 303 b 556 249 386 303 482 286 l 567 214 b 290 67 514 131 389 67 z "},"ǣ":{"ha":1267,"x_min":0,"x_max":0,"o":"m 800 886 l 464 886 l 464 807 l 800 807 z m 1206 326 b 886 663 1206 532 1069 663 b 617 528 774 663 675 614 b 357 663 575 617 486 663 b 94 554 276 663 164 642 l 150 499 b 351 579 203 551 274 579 b 556 394 478 579 556 519 l 556 324 b 314 376 488 357 394 376 b 57 178 149 376 57 290 b 292 -14 57 60 153 -14 b 601 143 410 -14 515 39 b 886 -14 660 44 765 -14 b 1176 149 1008 -14 1119 44 l 1099 182 b 888 71 1057 111 976 71 b 646 288 760 71 661 156 l 1204 288 b 1206 326 1204 300 1206 314 z m 647 364 b 886 578 663 493 744 578 b 1117 364 1011 578 1104 499 z m 290 67 b 142 181 197 67 142 115 b 319 303 142 242 196 303 b 556 249 386 303 482 286 l 567 214 b 290 67 514 131 389 67 z "},"b":{"ha":854,"x_min":0,"x_max":0,"o":"m 458 663 b 200 522 349 663 249 611 l 200 1014 l 111 1014 l 111 0 l 200 0 l 200 128 b 458 -14 247 39 350 -14 b 788 325 640 -14 788 128 b 458 663 788 522 640 663 z m 451 71 b 200 322 317 71 200 172 b 451 578 200 479 322 578 b 700 326 589 578 700 469 b 451 71 700 182 589 71 z "},"c":{"ha":696,"x_min":0,"x_max":0,"o":"m 410 -12 b 643 76 503 -12 585 21 l 588 136 b 413 72 543 96 482 72 b 156 325 271 72 156 174 b 413 578 156 478 271 578 b 588 513 482 578 543 553 l 643 574 b 410 663 585 628 503 663 b 67 325 225 663 67 531 b 410 -12 67 119 225 -12 z "},"ć":{"ha":696,"x_min":0,"x_max":0,"o":"m 315 744 l 401 744 l 557 957 l 450 957 z m 410 -12 b 643 76 503 -12 585 21 l 588 136 b 413 72 543 96 482 72 b 156 325 271 72 156 174 b 413 578 156 478 271 578 b 588 513 482 578 543 553 l 643 574 b 410 663 585 628 503 663 b 67 325 225 663 67 531 b 410 -12 67 119 225 -12 z "},"č":{"ha":696,"x_min":0,"x_max":0,"o":"m 338 744 l 433 744 l 589 957 l 507 957 l 385 814 l 264 957 l 182 957 z m 410 -12 b 643 76 503 -12 585 21 l 588 136 b 413 72 543 96 482 72 b 156 325 271 72 156 174 b 413 578 156 478 271 578 b 588 513 482 578 543 553 l 643 574 b 410 663 585 628 503 663 b 67 325 225 663 67 531 b 410 -12 67 119 225 -12 z "},"ç":{"ha":696,"x_min":0,"x_max":0,"o":"m 588 136 b 413 72 543 96 482 72 b 156 325 271 72 156 174 b 413 578 156 478 271 578 b 588 513 482 578 543 553 l 643 574 b 410 663 585 628 503 663 b 67 325 225 663 67 531 b 400 -12 67 122 219 -8 l 440 -117 b 446 -146 444 -126 446 -137 b 381 -212 446 -186 421 -212 b 311 -133 342 -212 314 -182 l 246 -133 b 381 -278 246 -219 299 -278 b 513 -147 458 -278 513 -225 b 500 -92 513 -131 507 -107 l 465 -8 b 643 76 535 1 596 32 z "},"ċ":{"ha":696,"x_min":0,"x_max":0,"o":"m 385 779 b 453 842 424 779 453 806 b 385 906 453 879 424 906 b 317 842 347 906 317 879 b 385 779 317 806 347 779 z m 410 -12 b 643 76 503 -12 585 21 l 588 136 b 413 72 543 96 482 72 b 156 325 271 72 156 174 b 413 578 156 478 271 578 b 588 513 482 578 543 553 l 643 574 b 410 663 585 628 503 663 b 67 325 225 663 67 531 b 410 -12 67 119 225 -12 z "},"d":{"ha":854,"x_min":0,"x_max":0,"o":"m 654 1014 l 654 524 b 396 663 606 611 506 663 b 67 325 214 663 67 522 b 396 -14 67 128 215 -14 b 654 126 504 -14 606 38 l 654 0 l 743 0 l 743 1014 z m 403 71 b 156 326 267 71 156 182 b 403 578 156 469 267 578 b 654 322 532 578 654 479 b 403 71 654 172 538 71 z "},"ð":{"ha":813,"x_min":0,"x_max":0,"o":"m 668 546 l 435 850 l 553 899 l 532 950 l 400 896 l 310 1014 l 206 1014 l 321 864 l 163 800 l 183 749 l 357 819 l 485 653 b 406 663 460 660 433 663 b 67 326 221 663 67 532 b 406 -14 67 121 221 -14 b 746 326 590 -14 746 121 b 668 546 746 415 717 490 z m 406 71 b 156 326 268 71 156 172 b 406 578 156 479 268 578 b 657 326 542 578 657 479 b 406 71 657 172 542 71 z "},"ď":{"ha":882,"x_min":0,"x_max":0,"o":"m 654 524 b 396 663 606 611 506 663 b 67 325 214 663 67 522 b 396 -14 67 128 215 -14 b 654 126 504 -14 606 38 l 654 0 l 743 0 l 743 1014 l 654 1014 z m 961 957 l 872 957 b 813 729 882 865 860 799 l 874 713 b 961 957 922 767 963 833 z m 403 71 b 156 326 267 71 156 182 b 403 578 156 469 267 578 b 654 322 532 578 654 479 b 403 71 654 172 538 71 z "},"đ":{"ha":854,"x_min":0,"x_max":0,"o":"m 860 861 l 743 861 l 743 1014 l 654 1014 l 654 861 l 435 861 l 435 797 l 654 797 l 654 524 b 396 663 606 611 506 663 b 67 325 214 663 67 522 b 396 -14 67 128 215 -14 b 654 126 504 -14 606 38 l 654 0 l 743 0 l 743 797 l 860 797 z m 403 71 b 156 326 267 71 156 182 b 403 578 156 469 267 578 b 654 322 532 578 654 479 b 403 71 654 172 538 71 z "},"e":{"ha":779,"x_min":0,"x_max":0,"o":"m 717 326 b 397 663 717 532 582 663 b 67 326 214 663 67 532 b 397 -14 67 121 214 -14 b 688 149 519 -14 631 44 l 611 182 b 400 71 568 111 489 71 b 157 288 269 71 172 149 l 715 288 b 717 326 717 300 717 314 z m 158 364 b 397 578 175 503 269 578 b 629 364 524 578 617 499 z "},"é":{"ha":779,"x_min":0,"x_max":0,"o":"m 590 957 l 483 957 l 349 744 l 435 744 z m 717 326 b 397 663 717 532 582 663 b 67 326 214 663 67 532 b 397 -14 67 121 214 -14 b 688 149 519 -14 631 44 l 611 182 b 400 71 568 111 489 71 b 157 288 269 71 172 149 l 715 288 b 717 326 717 300 717 314 z m 158 364 b 397 578 175 503 269 578 b 629 364 524 578 617 499 z "},"ě":{"ha":779,"x_min":0,"x_max":0,"o":"m 435 744 l 590 957 l 508 957 l 386 814 l 265 957 l 183 957 l 339 744 z m 717 326 b 397 663 717 532 582 663 b 67 326 214 663 67 532 b 397 -14 67 121 214 -14 b 688 149 519 -14 631 44 l 611 182 b 400 71 568 111 489 71 b 157 288 269 71 172 149 l 715 288 b 717 326 717 300 717 314 z m 158 364 b 397 578 175 503 269 578 b 629 364 524 578 617 499 z "},"ê":{"ha":779,"x_min":0,"x_max":0,"o":"m 386 889 l 508 744 l 590 744 l 435 957 l 339 957 l 183 744 l 265 744 z m 717 326 b 397 663 717 532 582 663 b 67 326 214 663 67 532 b 397 -14 67 121 214 -14 b 688 149 519 -14 631 44 l 611 182 b 400 71 568 111 489 71 b 157 288 269 71 172 149 l 715 288 b 717 326 717 300 717 314 z m 158 364 b 397 578 175 503 269 578 b 629 364 524 578 617 499 z "},"ë":{"ha":779,"x_min":0,"x_max":0,"o":"m 268 786 b 336 849 306 786 336 813 b 268 913 336 886 306 913 b 201 849 232 913 201 886 b 268 786 201 813 232 786 z m 503 786 b 571 849 540 786 571 813 b 503 913 571 886 540 913 b 436 849 467 913 436 886 b 503 786 436 813 467 786 z m 717 326 b 397 663 717 532 582 663 b 67 326 214 663 67 532 b 397 -14 67 121 214 -14 b 688 149 519 -14 631 44 l 611 182 b 400 71 568 111 489 71 b 157 288 269 71 172 149 l 715 288 b 717 326 717 300 717 314 z m 158 364 b 397 578 175 503 269 578 b 629 364 524 578 617 499 z "},"ė":{"ha":779,"x_min":0,"x_max":0,"o":"m 388 779 b 456 842 426 779 456 806 b 388 906 456 879 426 906 b 319 842 350 906 319 879 b 388 779 319 806 350 779 z m 717 326 b 397 663 717 532 582 663 b 67 326 214 663 67 532 b 397 -14 67 121 214 -14 b 688 149 519 -14 631 44 l 611 182 b 400 71 568 111 489 71 b 157 288 269 71 172 149 l 715 288 b 717 326 717 300 717 314 z m 158 364 b 397 578 175 503 269 578 b 629 364 524 578 617 499 z "},"è":{"ha":779,"x_min":0,"x_max":0,"o":"m 432 744 l 300 957 l 192 957 l 346 744 z m 717 326 b 397 663 717 532 582 663 b 67 326 214 663 67 532 b 397 -14 67 121 214 -14 b 688 149 519 -14 631 44 l 611 182 b 400 71 568 111 489 71 b 157 288 269 71 172 149 l 715 288 b 717 326 717 300 717 314 z m 158 364 b 397 578 175 503 269 578 b 629 364 524 578 617 499 z "},"ē":{"ha":779,"x_min":0,"x_max":0,"o":"m 556 886 l 219 886 l 219 807 l 556 807 z m 717 326 b 397 663 717 532 582 663 b 67 326 214 663 67 532 b 397 -14 67 121 214 -14 b 688 149 519 -14 631 44 l 611 182 b 400 71 568 111 489 71 b 157 288 269 71 172 149 l 715 288 b 717 326 717 300 717 314 z m 158 364 b 397 578 175 503 269 578 b 629 364 524 578 617 499 z "},"ę":{"ha":779,"x_min":0,"x_max":0,"o":"m 717 326 b 397 663 717 532 582 663 b 67 326 214 663 67 532 b 397 -14 67 121 214 -14 b 481 -4 426 -14 454 -11 l 444 -92 b 431 -147 438 -107 431 -131 b 564 -278 431 -225 486 -278 b 699 -133 644 -278 699 -219 l 633 -133 b 564 -212 631 -182 601 -212 b 497 -146 524 -212 497 -186 b 504 -117 497 -137 500 -126 l 557 24 b 688 149 611 51 657 93 l 611 182 b 400 71 568 111 489 71 b 157 288 269 71 172 149 l 715 288 b 717 326 717 300 717 314 z m 158 364 b 397 578 175 503 269 578 b 629 364 524 578 617 499 z "},"f":{"ha":438,"x_min":0,"x_max":0,"o":"m 406 929 l 454 929 l 454 1014 l 393 1014 b 160 733 224 1014 160 896 l 160 649 l 32 649 l 32 572 l 160 572 l 160 0 l 249 0 l 249 572 l 414 572 l 414 649 l 249 649 l 249 743 b 406 929 249 847 283 929 z "},"g":{"ha":854,"x_min":0,"x_max":0,"o":"m 654 649 l 654 524 b 396 663 606 611 506 663 b 67 325 214 663 67 522 b 396 -14 67 128 215 -14 b 654 125 504 -14 606 38 l 654 92 b 392 -239 654 -158 550 -239 b 186 -124 314 -239 233 -200 l 111 -165 b 392 -324 175 -271 282 -324 b 743 96 603 -324 743 -218 l 743 649 z m 403 71 b 156 326 267 71 156 182 b 403 578 156 469 267 578 b 654 322 532 578 654 479 b 403 71 654 172 538 71 z "},"ğ":{"ha":854,"x_min":0,"x_max":0,"o":"m 425 767 b 594 939 526 767 594 832 l 517 939 b 425 838 517 881 482 838 b 332 939 363 838 332 881 l 257 939 b 425 767 257 847 306 767 z m 654 649 l 654 524 b 396 663 606 611 506 663 b 67 325 214 663 67 522 b 396 -14 67 128 215 -14 b 654 125 504 -14 606 38 l 654 92 b 392 -239 654 -158 550 -239 b 186 -124 314 -239 233 -200 l 111 -165 b 392 -324 175 -271 282 -324 b 743 96 603 -324 743 -218 l 743 649 z m 403 71 b 156 326 267 71 156 182 b 403 578 156 469 267 578 b 654 322 532 578 654 479 b 403 71 654 172 538 71 z "},"ģ":{"ha":854,"x_min":0,"x_max":0,"o":"m 457 760 b 529 997 450 864 476 933 l 474 1018 b 367 760 414 972 365 876 z m 654 649 l 654 524 b 396 663 606 611 506 663 b 67 325 214 663 67 522 b 396 -14 67 128 215 -14 b 654 125 504 -14 606 38 l 654 92 b 392 -239 654 -158 550 -239 b 186 -124 314 -239 233 -200 l 111 -165 b 392 -324 175 -271 282 -324 b 743 96 603 -324 743 -218 l 743 649 z m 403 71 b 156 326 267 71 156 182 b 403 578 156 469 267 578 b 654 322 532 578 654 479 b 403 71 654 172 538 71 z "},"ġ":{"ha":854,"x_min":0,"x_max":0,"o":"m 426 779 b 494 842 465 779 494 806 b 426 906 494 879 465 906 b 358 842 389 906 358 879 b 426 779 358 806 389 779 z m 654 649 l 654 524 b 396 663 606 611 506 663 b 67 325 214 663 67 522 b 396 -14 67 128 215 -14 b 654 125 504 -14 606 38 l 654 92 b 392 -239 654 -158 550 -239 b 186 -124 314 -239 233 -200 l 111 -165 b 392 -324 175 -271 282 -324 b 743 96 603 -324 743 -218 l 743 649 z m 403 71 b 156 326 267 71 156 182 b 403 578 156 469 267 578 b 654 322 532 578 654 479 b 403 71 654 172 538 71 z "},"h":{"ha":790,"x_min":0,"x_max":0,"o":"m 425 663 b 200 532 344 663 239 625 l 200 1014 l 111 1014 l 111 0 l 200 0 l 200 360 b 417 575 203 517 313 575 b 600 374 521 575 600 499 l 600 0 l 689 0 l 689 378 b 425 663 689 557 582 663 z "},"ħ":{"ha":790,"x_min":0,"x_max":0,"o":"m 425 663 b 200 532 344 663 239 625 l 200 751 l 457 751 l 457 815 l 200 815 l 200 1014 l 111 1014 l 111 815 l 50 815 l 50 751 l 111 751 l 111 0 l 200 0 l 200 360 b 417 575 203 517 313 575 b 600 374 521 575 600 499 l 600 0 l 689 0 l 689 378 b 425 663 689 557 582 663 z "},"i":{"ha":311,"x_min":0,"x_max":0,"o":"m 156 825 b 225 888 194 825 225 851 b 156 951 225 925 194 951 b 88 888 119 951 88 925 b 156 825 88 851 119 825 z m 111 0 l 200 0 l 200 649 l 111 649 z "},"ı":{"ha":311,"x_min":0,"x_max":0,"o":"m 111 0 l 200 0 l 200 649 l 111 649 z "},"í":{"ha":311,"x_min":0,"x_max":0,"o":"m 110 760 l 196 760 l 351 972 l 244 972 z m 111 0 l 200 0 l 200 649 l 111 649 z "},"ǐ":{"ha":311,"x_min":0,"x_max":0,"o":"m 107 744 l 203 744 l 358 957 l 276 957 l 154 814 l 33 957 l -49 957 z m 111 0 l 200 0 l 200 649 l 111 649 z "},"î":{"ha":311,"x_min":0,"x_max":0,"o":"m -47 760 l 35 760 l 156 903 l 278 760 l 360 760 l 204 972 l 108 972 z m 111 0 l 200 0 l 200 649 l 111 649 z "},"ï":{"ha":311,"x_min":0,"x_max":0,"o":"m 39 807 b 107 869 76 807 107 833 b 39 933 107 907 76 933 b -28 869 3 933 -28 907 b 39 807 -28 833 3 807 z m 274 807 b 342 869 311 807 342 833 b 274 933 342 907 311 933 b 207 869 238 933 207 907 b 274 807 207 833 238 807 z m 111 0 l 200 0 l 200 649 l 111 649 z "},"ì":{"ha":311,"x_min":0,"x_max":0,"o":"m 106 760 l 192 760 l 60 972 l -49 972 z m 111 0 l 200 0 l 200 649 l 111 649 z "},"ĳ":{"ha":633,"x_min":0,"x_max":0,"o":"m 156 825 b 225 888 194 825 225 851 b 156 951 225 925 194 951 b 88 888 119 951 88 925 b 156 825 88 851 119 825 z m 478 825 b 547 888 517 825 547 851 b 478 951 547 925 517 951 b 410 888 442 951 410 925 b 478 825 410 851 442 825 z m 111 0 l 200 0 l 200 649 l 111 649 z m 228 -315 l 297 -315 b 522 -39 467 -315 522 -197 l 522 649 l 433 649 l 433 -39 b 290 -231 435 -136 408 -231 l 228 -231 z "},"ī":{"ha":311,"x_min":0,"x_max":0,"o":"m -12 807 l 324 807 l 324 886 l -12 886 z m 111 0 l 200 0 l 200 649 l 111 649 z "},"į":{"ha":313,"x_min":0,"x_max":0,"o":"m 157 825 b 225 888 194 825 225 851 b 157 951 225 925 194 951 b 89 888 119 951 89 925 b 157 825 89 851 119 825 z m 181 -278 b 315 -133 263 -278 315 -219 l 250 -133 b 181 -212 247 -182 219 -212 b 114 -146 140 -212 114 -186 b 121 -117 114 -137 117 -126 l 164 0 l 201 0 l 201 649 l 113 649 l 113 29 l 61 -92 b 47 -147 54 -107 47 -131 b 181 -278 47 -225 103 -278 z "},"ĩ":{"ha":311,"x_min":0,"x_max":0,"o":"m -19 774 l 46 774 b 89 838 47 817 69 838 b 219 772 129 838 156 772 b 329 908 272 772 324 811 l 264 908 b 219 846 263 864 240 846 b 89 911 182 846 154 911 b -19 774 36 911 -15 871 z m 111 0 l 200 0 l 200 649 l 111 649 z "},"j":{"ha":322,"x_min":0,"x_max":0,"o":"m 167 825 b 236 888 206 825 236 851 b 167 951 236 925 206 951 b 99 888 131 951 99 925 b 167 825 99 851 131 825 z m -83 -315 l -14 -315 b 211 -39 156 -315 211 -197 l 211 649 l 122 649 l 122 -39 b -21 -231 124 -136 97 -231 l -83 -231 z "},"ĵ":{"ha":322,"x_min":0,"x_max":0,"o":"m -37 760 l 44 760 l 167 903 l 288 760 l 371 760 l 214 972 l 118 972 z m 122 649 l 122 -39 b -21 -231 124 -136 97 -231 l -83 -231 l -83 -315 l -14 -315 b 211 -39 156 -315 211 -197 l 211 649 z "},"k":{"ha":639,"x_min":0,"x_max":0,"o":"m 649 0 l 289 367 l 567 649 l 443 649 l 200 400 l 200 1014 l 111 1014 l 111 0 l 200 0 l 200 333 l 528 0 z "},"ķ":{"ha":639,"x_min":0,"x_max":0,"o":"m 289 367 l 567 649 l 443 649 l 200 400 l 200 1014 l 111 1014 l 111 0 l 200 0 l 200 333 l 528 0 l 649 0 z m 285 -54 b 213 -292 292 -160 265 -228 l 268 -314 b 375 -54 328 -267 376 -171 z "},"ĸ":{"ha":611,"x_min":0,"x_max":0,"o":"m 608 0 l 281 317 l 575 649 l 458 649 l 200 358 l 200 649 l 111 649 l 111 0 l 200 0 l 200 271 l 482 0 z "},"l":{"ha":311,"x_min":0,"x_max":0,"o":"m 111 0 l 200 0 l 200 1014 l 111 1014 z "},"ĺ":{"ha":311,"x_min":0,"x_max":0,"o":"m 113 1053 l 199 1053 l 354 1265 l 247 1265 z m 111 0 l 200 0 l 200 1014 l 111 1014 z "},"ľ":{"ha":339,"x_min":0,"x_max":0,"o":"m 111 0 l 200 0 l 200 1014 l 111 1014 z m 331 713 b 418 957 379 767 419 833 l 329 957 b 269 729 339 865 317 799 z "},"ļ":{"ha":311,"x_min":0,"x_max":0,"o":"m 111 0 l 200 0 l 200 1014 l 111 1014 z m 96 -314 b 203 -54 156 -267 204 -171 l 113 -54 b 40 -292 119 -160 93 -228 z "},"ł":{"ha":419,"x_min":0,"x_max":0,"o":"m 385 636 l 244 547 l 244 1014 l 156 1014 l 156 492 l 57 429 l 57 354 l 156 417 l 156 0 l 244 0 l 244 472 l 385 561 z "},"m":{"ha":1249,"x_min":0,"x_max":0,"o":"m 889 663 b 650 507 810 663 697 636 b 422 663 614 607 528 663 b 200 532 326 663 233 618 l 200 649 l 111 649 l 111 0 l 200 0 l 200 360 b 407 576 203 515 303 576 b 585 374 510 576 585 500 l 585 0 l 672 0 l 672 336 l 674 331 b 875 576 664 489 753 578 b 1057 374 982 576 1057 499 l 1057 0 l 1146 0 l 1146 378 b 889 663 1146 557 1046 663 z "},"n":{"ha":790,"x_min":0,"x_max":0,"o":"m 425 663 b 200 532 344 663 239 625 l 200 649 l 111 649 l 111 0 l 200 0 l 200 360 b 417 575 203 517 313 575 b 600 374 521 575 600 499 l 600 0 l 689 0 l 689 378 b 425 663 689 557 582 663 z "},"ń":{"ha":790,"x_min":0,"x_max":0,"o":"m 600 957 l 493 957 l 358 744 l 444 744 z m 425 663 b 200 532 344 663 239 625 l 200 649 l 111 649 l 111 0 l 200 0 l 200 360 b 417 575 203 517 313 575 b 600 374 521 575 600 499 l 600 0 l 689 0 l 689 378 b 425 663 689 557 582 663 z "},"ŉ":{"ha":857,"x_min":0,"x_max":0,"o":"m 181 957 l 92 957 b 32 729 101 865 79 799 l 93 713 b 181 957 142 767 182 833 z m 492 663 b 267 532 410 663 304 625 l 267 649 l 178 649 l 178 0 l 267 0 l 267 360 b 482 575 269 517 379 575 b 667 374 588 575 667 499 l 667 0 l 754 0 l 754 378 b 492 663 756 557 649 663 z "},"ň":{"ha":790,"x_min":0,"x_max":0,"o":"m 444 744 l 600 957 l 518 957 l 396 814 l 275 957 l 193 957 l 349 744 z m 425 663 b 200 532 344 663 239 625 l 200 649 l 111 649 l 111 0 l 200 0 l 200 360 b 417 575 203 517 313 575 b 600 374 521 575 600 499 l 600 0 l 689 0 l 689 378 b 425 663 689 557 582 663 z "},"ņ":{"ha":790,"x_min":0,"x_max":0,"o":"m 425 663 b 200 532 344 663 239 625 l 200 649 l 111 649 l 111 0 l 200 0 l 200 360 b 417 575 203 517 313 575 b 600 374 521 575 600 499 l 600 0 l 689 0 l 689 378 b 425 663 689 557 582 663 z m 354 -54 b 282 -292 361 -160 335 -228 l 338 -314 b 444 -54 397 -267 446 -171 z "},"ŋ":{"ha":790,"x_min":0,"x_max":0,"o":"m 425 663 b 200 532 344 663 239 625 l 200 649 l 111 649 l 111 0 l 200 0 l 200 360 b 417 575 203 517 313 575 b 600 374 521 575 600 499 l 600 -39 b 457 -231 600 -136 574 -231 l 394 -231 l 394 -315 l 463 -315 b 689 -39 633 -315 689 -197 l 689 378 b 425 663 689 557 582 663 z "},"ñ":{"ha":790,"x_min":0,"x_max":0,"o":"m 331 838 b 461 772 371 838 397 772 b 571 908 514 772 565 811 l 506 908 b 461 846 504 864 482 846 b 331 911 424 846 396 911 b 222 774 278 911 226 871 l 288 774 b 331 838 289 817 311 838 z m 425 663 b 200 532 344 663 239 625 l 200 649 l 111 649 l 111 0 l 200 0 l 200 360 b 417 575 203 517 313 575 b 600 374 521 575 600 499 l 600 0 l 689 0 l 689 378 b 425 663 689 557 582 663 z "},"o":{"ha":811,"x_min":0,"x_max":0,"o":"m 406 -14 b 746 326 590 -14 746 121 b 406 663 746 532 590 663 b 67 326 221 663 67 532 b 406 -14 67 121 221 -14 z m 406 71 b 156 326 268 71 156 172 b 406 578 156 479 268 578 b 657 326 542 578 657 479 b 406 71 657 172 542 71 z "},"ó":{"ha":811,"x_min":0,"x_max":0,"o":"m 368 744 l 454 744 l 610 957 l 503 957 z m 406 -14 b 746 326 590 -14 746 121 b 406 663 746 532 590 663 b 67 326 221 663 67 532 b 406 -14 67 121 221 -14 z m 406 71 b 156 326 268 71 156 172 b 406 578 156 479 268 578 b 657 326 542 578 657 479 b 406 71 657 172 542 71 z "},"ǒ":{"ha":811,"x_min":0,"x_max":0,"o":"m 358 744 l 454 744 l 610 957 l 528 957 l 406 814 l 285 957 l 203 957 z m 406 -14 b 746 326 590 -14 746 121 b 406 663 746 532 590 663 b 67 326 221 663 67 532 b 406 -14 67 121 221 -14 z m 406 71 b 156 326 268 71 156 172 b 406 578 156 479 268 578 b 657 326 542 578 657 479 b 406 71 657 172 542 71 z "},"ô":{"ha":811,"x_min":0,"x_max":0,"o":"m 203 744 l 285 744 l 406 889 l 528 744 l 610 744 l 454 957 l 358 957 z m 406 -14 b 746 326 590 -14 746 121 b 406 663 746 532 590 663 b 67 326 221 663 67 532 b 406 -14 67 121 221 -14 z m 406 71 b 156 326 268 71 156 172 b 406 578 156 479 268 578 b 657 326 542 578 657 479 b 406 71 657 172 542 71 z "},"ö":{"ha":811,"x_min":0,"x_max":0,"o":"m 288 786 b 356 849 325 786 356 813 b 288 913 356 886 325 913 b 221 849 251 913 221 886 b 288 786 221 813 251 786 z m 522 786 b 590 849 560 786 590 813 b 522 913 590 886 560 913 b 456 849 486 913 456 886 b 522 786 456 813 486 786 z m 406 -14 b 746 326 590 -14 746 121 b 406 663 746 532 590 663 b 67 326 221 663 67 532 b 406 -14 67 121 221 -14 z m 406 71 b 156 326 268 71 156 172 b 406 578 156 479 268 578 b 657 326 542 578 657 479 b 406 71 657 172 542 71 z "},"ò":{"ha":811,"x_min":0,"x_max":0,"o":"m 365 744 l 451 744 l 319 957 l 211 957 z m 406 -14 b 746 326 590 -14 746 121 b 406 663 746 532 590 663 b 67 326 221 663 67 532 b 406 -14 67 121 221 -14 z m 406 71 b 156 326 268 71 156 172 b 406 578 156 479 268 578 b 657 326 542 578 657 479 b 406 71 657 172 542 71 z "},"ő":{"ha":811,"x_min":0,"x_max":0,"o":"m 283 744 l 363 744 l 493 957 l 404 957 z m 457 744 l 535 744 l 676 957 l 585 957 z m 406 -14 b 746 326 590 -14 746 121 b 406 663 746 532 590 663 b 67 326 221 663 67 532 b 406 -14 67 121 221 -14 z m 406 71 b 156 326 268 71 156 172 b 406 578 156 479 268 578 b 657 326 542 578 657 479 b 406 71 657 172 542 71 z "},"ō":{"ha":811,"x_min":0,"x_max":0,"o":"m 239 807 l 575 807 l 575 886 l 239 886 z m 406 -14 b 746 326 590 -14 746 121 b 406 663 746 532 590 663 b 67 326 221 663 67 532 b 406 -14 67 121 221 -14 z m 406 71 b 156 326 268 71 156 172 b 406 578 156 479 268 578 b 657 326 542 578 657 479 b 406 71 657 172 542 71 z "},"ø":{"ha":817,"x_min":0,"x_max":0,"o":"m 749 619 l 699 667 l 625 592 b 408 663 565 638 490 663 b 69 326 224 663 69 532 b 146 104 69 238 99 161 l 67 24 l 115 -25 l 196 57 b 408 -14 254 11 328 -14 b 749 326 593 -14 749 121 b 674 543 749 414 721 488 z m 158 326 b 408 578 158 479 271 578 b 563 528 465 578 519 560 l 208 168 b 158 326 176 210 158 264 z m 660 326 b 408 71 660 172 544 71 b 257 119 351 71 299 88 l 611 479 b 660 326 642 439 660 388 z "},"ǿ":{"ha":817,"x_min":0,"x_max":0,"o":"m 611 957 l 504 957 l 369 744 l 456 744 z m 749 619 l 699 667 l 625 592 b 408 663 565 638 490 663 b 69 326 224 663 69 532 b 146 104 69 238 99 161 l 67 24 l 115 -25 l 196 57 b 408 -14 254 11 328 -14 b 749 326 593 -14 749 121 b 674 543 749 414 721 488 z m 158 326 b 408 578 158 479 271 578 b 563 528 465 578 519 560 l 208 168 b 158 326 176 210 158 264 z m 660 326 b 408 71 660 172 544 71 b 257 119 351 71 299 88 l 611 479 b 660 326 642 439 660 388 z "},"õ":{"ha":811,"x_min":0,"x_max":0,"o":"m 232 774 l 297 774 b 340 838 299 817 321 838 b 471 772 381 838 407 772 b 581 908 524 772 575 811 l 515 908 b 471 846 514 864 492 846 b 340 911 433 846 406 911 b 232 774 288 911 236 871 z m 406 -14 b 746 326 590 -14 746 121 b 406 663 746 532 590 663 b 67 326 221 663 67 532 b 406 -14 67 121 221 -14 z m 406 71 b 156 326 268 71 156 172 b 406 578 156 479 268 578 b 657 326 542 578 657 479 b 406 71 657 172 542 71 z "},"œ":{"ha":1368,"x_min":0,"x_max":0,"o":"m 1307 326 b 988 663 1307 532 1171 663 b 700 499 863 663 756 603 b 406 663 642 603 531 663 b 67 326 221 663 67 532 b 406 -14 67 121 221 -14 b 700 153 531 -14 642 47 b 988 -14 756 49 863 -14 b 1276 149 1108 -14 1221 44 l 1200 182 b 989 71 1157 111 1078 71 b 747 288 857 71 761 150 l 1306 288 b 1307 326 1306 300 1307 314 z m 406 71 b 156 326 268 71 156 172 b 406 578 156 479 268 578 b 657 326 542 578 657 479 b 406 71 657 172 542 71 z m 749 364 b 988 578 765 503 860 578 b 1218 364 1113 578 1206 499 z "},"p":{"ha":854,"x_min":0,"x_max":0,"o":"m 458 663 b 200 521 350 663 247 610 l 200 649 l 111 649 l 111 -315 l 200 -315 l 200 126 b 458 -14 249 38 349 -14 b 788 324 640 -14 788 126 b 458 663 788 521 640 663 z m 451 71 b 200 326 322 71 200 169 b 451 578 200 476 317 578 b 700 322 589 578 700 467 b 451 71 700 179 589 71 z "},"þ":{"ha":854,"x_min":0,"x_max":0,"o":"m 458 663 b 200 522 349 663 249 611 l 200 1014 l 111 1014 l 111 -315 l 200 -315 l 200 128 b 458 -14 247 39 350 -14 b 788 325 640 -14 788 128 b 458 663 788 522 640 663 z m 451 71 b 200 322 317 71 200 172 b 451 578 200 479 322 578 b 700 326 589 578 700 469 b 451 71 700 182 589 71 z "},"q":{"ha":854,"x_min":0,"x_max":0,"o":"m 654 649 l 654 522 b 396 663 606 611 504 663 b 67 324 215 663 67 521 b 396 -14 67 126 214 -14 b 654 125 506 -14 606 38 l 654 -315 l 743 -315 l 743 649 z m 403 71 b 156 322 267 71 156 179 b 403 578 156 467 267 578 b 654 326 538 578 654 476 b 403 71 654 169 532 71 z "},"r":{"ha":519,"x_min":0,"x_max":0,"o":"m 404 663 b 201 490 303 663 233 600 l 201 649 l 111 649 l 111 0 l 201 0 l 201 244 b 403 576 201 404 249 576 b 490 558 426 576 457 572 l 507 643 b 404 663 482 656 440 663 z "},"ŕ":{"ha":519,"x_min":0,"x_max":0,"o":"m 467 957 l 360 957 l 225 744 l 311 744 z m 404 663 b 201 490 303 663 233 600 l 201 649 l 111 649 l 111 0 l 201 0 l 201 244 b 403 576 201 404 249 576 b 490 558 426 576 457 572 l 507 643 b 404 663 482 656 440 663 z "},"ř":{"ha":519,"x_min":0,"x_max":0,"o":"m 311 744 l 467 957 l 385 957 l 263 814 l 142 957 l 60 957 l 215 744 z m 404 663 b 201 490 303 663 233 600 l 201 649 l 111 649 l 111 0 l 201 0 l 201 244 b 403 576 201 404 249 576 b 490 558 426 576 457 572 l 507 643 b 404 663 482 656 440 663 z "},"ŗ":{"ha":519,"x_min":0,"x_max":0,"o":"m 404 663 b 201 490 303 663 233 600 l 201 649 l 111 649 l 111 0 l 201 0 l 201 244 b 403 576 201 404 249 576 b 490 558 426 576 457 572 l 507 643 b 404 663 482 656 440 663 z m 40 -292 l 96 -314 b 203 -54 154 -267 203 -171 l 113 -54 b 40 -292 118 -160 93 -228 z "},"s":{"ha":596,"x_min":0,"x_max":0,"o":"m 294 -14 b 533 175 429 -14 533 60 b 368 357 533 250 494 326 l 272 381 b 172 479 225 392 172 418 b 299 583 172 540 224 583 b 424 486 363 583 419 544 l 510 486 b 297 663 506 603 406 663 b 83 481 174 663 83 586 b 249 303 83 372 157 325 l 342 281 b 444 176 408 264 444 229 b 294 65 444 111 388 65 b 140 175 200 65 150 121 l 58 175 b 294 -14 69 51 182 -14 z "},"ś":{"ha":596,"x_min":0,"x_max":0,"o":"m 258 744 l 344 744 l 500 957 l 393 957 z m 294 -14 b 533 175 429 -14 533 60 b 368 357 533 250 494 326 l 272 381 b 172 479 225 392 172 418 b 299 583 172 540 224 583 b 424 486 363 583 419 544 l 510 486 b 297 663 506 603 406 663 b 83 481 174 663 83 586 b 249 303 83 372 157 325 l 342 281 b 444 176 408 264 444 229 b 294 65 444 111 388 65 b 140 175 200 65 150 121 l 58 175 b 294 -14 69 51 182 -14 z "},"š":{"ha":596,"x_min":0,"x_max":0,"o":"m 249 744 l 344 744 l 500 957 l 418 957 l 296 814 l 175 957 l 93 957 z m 294 -14 b 533 175 429 -14 533 60 b 368 357 533 250 494 326 l 272 381 b 172 479 225 392 172 418 b 299 583 172 540 224 583 b 424 486 363 583 419 544 l 510 486 b 297 663 506 603 406 663 b 83 481 174 663 83 586 b 249 303 83 372 157 325 l 342 281 b 444 176 408 264 444 229 b 294 65 444 111 388 65 b 140 175 200 65 150 121 l 58 175 b 294 -14 69 51 182 -14 z "},"ş":{"ha":596,"x_min":0,"x_max":0,"o":"m 533 175 b 368 357 533 250 494 326 l 272 381 b 172 479 225 392 172 418 b 299 583 172 540 224 583 b 424 486 363 583 419 544 l 510 486 b 297 663 506 603 406 663 b 83 481 174 663 83 586 b 249 303 83 372 157 325 l 342 281 b 444 176 408 264 444 229 b 294 65 444 111 388 65 b 140 175 200 65 150 121 l 58 175 b 293 -14 69 51 181 -14 l 332 -117 b 338 -146 336 -126 338 -137 b 272 -212 338 -186 313 -212 b 203 -133 233 -212 206 -182 l 138 -133 b 272 -278 138 -219 190 -278 b 404 -147 350 -278 404 -225 b 392 -92 404 -131 399 -107 l 357 -8 b 533 175 460 11 533 78 z "},"ș":{"ha":596,"x_min":0,"x_max":0,"o":"m 294 -14 b 533 175 429 -14 533 60 b 368 357 533 250 494 326 l 272 381 b 172 479 225 392 172 418 b 299 583 172 540 224 583 b 424 486 363 583 419 544 l 510 486 b 297 663 506 603 406 663 b 83 481 174 663 83 586 b 249 303 83 372 157 325 l 342 281 b 444 176 408 264 444 229 b 294 65 444 111 388 65 b 140 175 200 65 150 121 l 58 175 b 294 -14 69 51 182 -14 z m 238 -314 b 344 -54 297 -267 346 -171 l 254 -54 b 182 -292 261 -160 235 -228 z "},"ß":{"ha":806,"x_min":0,"x_max":0,"o":"m 543 579 b 656 783 613 615 656 699 b 390 1022 656 915 557 1022 b 111 714 222 1022 111 914 l 111 0 l 200 0 l 200 714 b 392 938 200 863 274 938 b 567 775 503 938 567 867 b 410 608 567 682 503 608 l 368 608 l 368 532 l 417 532 b 651 304 551 532 649 433 b 418 69 651 169 561 69 b 306 89 382 69 340 76 l 285 11 b 417 -14 326 -6 379 -15 b 740 297 614 -14 740 122 b 543 579 740 428 661 544 z "},"ſ":{"ha":360,"x_min":0,"x_max":0,"o":"m 393 1014 b 160 733 224 1014 160 896 l 160 649 l 32 649 l 32 572 l 160 572 l 160 0 l 249 0 l 249 743 b 406 929 249 847 283 929 l 454 929 l 454 1014 z "},"t":{"ha":418,"x_min":0,"x_max":0,"o":"m 392 649 l 243 649 l 243 907 l 156 907 l 156 649 l 38 649 l 38 572 l 156 572 l 156 0 l 243 0 l 243 572 l 392 572 z "},"ŧ":{"ha":419,"x_min":0,"x_max":0,"o":"m 392 572 l 392 649 l 243 649 l 243 907 l 156 907 l 156 649 l 38 649 l 38 572 l 156 572 l 156 365 l 74 365 l 74 301 l 156 301 l 156 0 l 243 0 l 243 301 l 335 301 l 335 365 l 243 365 l 243 572 z "},"ť":{"ha":418,"x_min":0,"x_max":0,"o":"m 436 957 b 376 729 444 865 424 799 l 438 713 b 525 957 486 767 525 833 z m 243 907 l 156 907 l 156 649 l 38 649 l 38 572 l 156 572 l 156 0 l 243 0 l 243 572 l 392 572 l 392 649 l 243 649 z "},"ţ":{"ha":418,"x_min":0,"x_max":0,"o":"m 392 572 l 392 649 l 243 649 l 243 907 l 156 907 l 156 649 l 38 649 l 38 572 l 156 572 l 156 0 l 188 0 l 233 -117 b 239 -146 238 -126 239 -137 b 174 -212 239 -186 214 -212 b 104 -133 135 -212 106 -182 l 39 -133 b 174 -278 39 -219 92 -278 b 306 -147 251 -278 306 -225 b 292 -92 306 -131 299 -107 l 243 24 l 243 572 z "},"ț":{"ha":418,"x_min":0,"x_max":0,"o":"m 243 649 l 243 907 l 156 907 l 156 649 l 38 649 l 38 572 l 156 572 l 156 0 l 243 0 l 243 572 l 392 572 l 392 649 z m 172 -54 b 100 -292 179 -160 153 -228 l 156 -314 b 263 -54 215 -267 264 -171 z "},"u":{"ha":790,"x_min":0,"x_max":0,"o":"m 590 649 l 590 289 b 375 74 589 132 478 74 b 192 275 269 74 192 150 l 192 649 l 103 649 l 103 271 b 365 -14 101 92 208 -14 b 590 114 446 -14 551 22 l 590 0 l 679 0 l 679 649 z "},"ú":{"ha":790,"x_min":0,"x_max":0,"o":"m 600 957 l 493 957 l 358 744 l 444 744 z m 590 649 l 590 289 b 375 74 589 132 478 74 b 192 275 269 74 192 150 l 192 649 l 103 649 l 103 271 b 365 -14 101 92 208 -14 b 590 114 446 -14 551 22 l 590 0 l 679 0 l 679 649 z "},"ǔ":{"ha":790,"x_min":0,"x_max":0,"o":"m 444 744 l 600 957 l 518 957 l 396 814 l 275 957 l 193 957 l 349 744 z m 590 649 l 590 289 b 375 74 589 132 478 74 b 192 275 269 74 192 150 l 192 649 l 103 649 l 103 271 b 365 -14 101 92 208 -14 b 590 114 446 -14 551 22 l 590 0 l 679 0 l 679 649 z "},"û":{"ha":790,"x_min":0,"x_max":0,"o":"m 396 889 l 518 744 l 600 744 l 444 957 l 349 957 l 193 744 l 275 744 z m 590 649 l 590 289 b 375 74 589 132 478 74 b 192 275 269 74 192 150 l 192 649 l 103 649 l 103 271 b 365 -14 101 92 208 -14 b 590 114 446 -14 551 22 l 590 0 l 679 0 l 679 649 z "},"ü":{"ha":790,"x_min":0,"x_max":0,"o":"m 278 786 b 346 849 315 786 346 813 b 278 913 346 886 315 913 b 211 849 242 913 211 886 b 278 786 211 813 242 786 z m 513 786 b 581 849 550 786 581 813 b 513 913 581 886 550 913 b 446 849 476 913 446 886 b 513 786 446 813 476 786 z m 590 649 l 590 289 b 375 74 589 132 478 74 b 192 275 269 74 192 150 l 192 649 l 103 649 l 103 271 b 365 -14 101 92 208 -14 b 590 114 446 -14 551 22 l 590 0 l 679 0 l 679 649 z "},"ǘ":{"ha":790,"x_min":0,"x_max":0,"o":"m 600 1186 l 493 1186 l 358 974 l 444 974 z m 278 786 b 346 849 315 786 346 813 b 278 913 346 886 315 913 b 211 849 242 913 211 886 b 278 786 211 813 242 786 z m 446 849 b 513 786 446 813 476 786 b 581 849 550 786 581 813 b 513 913 581 886 550 913 b 446 849 476 913 446 886 z m 590 649 l 590 289 b 375 74 589 132 478 74 b 192 275 269 74 192 150 l 192 649 l 103 649 l 103 271 b 365 -14 101 92 208 -14 b 590 114 446 -14 551 22 l 590 0 l 679 0 l 679 649 z "},"ǚ":{"ha":790,"x_min":0,"x_max":0,"o":"m 444 974 l 600 1186 l 518 1186 l 396 1043 l 275 1186 l 193 1186 l 349 974 z m 211 849 b 278 786 211 813 242 786 b 346 849 315 786 346 813 b 278 913 346 886 315 913 b 211 849 242 913 211 886 z m 446 849 b 513 786 446 813 476 786 b 581 849 550 786 581 813 b 513 913 581 886 550 913 b 446 849 476 913 446 886 z m 590 649 l 590 289 b 375 74 589 132 478 74 b 192 275 269 74 192 150 l 192 649 l 103 649 l 103 271 b 365 -14 101 92 208 -14 b 590 114 446 -14 551 22 l 590 0 l 679 0 l 679 649 z "},"ǜ":{"ha":790,"x_min":0,"x_max":0,"o":"m 442 974 l 310 1186 l 201 1186 l 356 974 z m 211 849 b 278 786 211 813 242 786 b 346 849 315 786 346 813 b 278 913 346 886 315 913 b 211 849 242 913 211 886 z m 513 786 b 581 849 550 786 581 813 b 513 913 581 886 550 913 b 446 849 476 913 446 886 b 513 786 446 813 476 786 z m 590 649 l 590 289 b 375 74 589 132 478 74 b 192 275 269 74 192 150 l 192 649 l 103 649 l 103 271 b 365 -14 101 92 208 -14 b 590 114 446 -14 551 22 l 590 0 l 679 0 l 679 649 z "},"ǖ":{"ha":790,"x_min":0,"x_max":0,"o":"m 565 1103 l 229 1103 l 229 1024 l 565 1024 z m 278 786 b 346 849 315 786 346 813 b 278 913 346 886 315 913 b 211 849 242 913 211 886 b 278 786 211 813 242 786 z m 513 913 b 446 849 476 913 446 886 b 513 786 446 813 476 786 b 581 849 550 786 581 813 b 513 913 581 886 550 913 z m 590 649 l 590 289 b 375 74 589 132 478 74 b 192 275 269 74 192 150 l 192 649 l 103 649 l 103 271 b 365 -14 101 92 208 -14 b 590 114 446 -14 551 22 l 590 0 l 679 0 l 679 649 z "},"ù":{"ha":790,"x_min":0,"x_max":0,"o":"m 442 744 l 310 957 l 201 957 l 356 744 z m 590 649 l 590 289 b 375 74 589 132 478 74 b 192 275 269 74 192 150 l 192 649 l 103 649 l 103 271 b 365 -14 101 92 208 -14 b 590 114 446 -14 551 22 l 590 0 l 679 0 l 679 649 z "},"ű":{"ha":790,"x_min":0,"x_max":0,"o":"m 483 957 l 394 957 l 274 744 l 353 744 z m 525 744 l 667 957 l 575 957 l 447 744 z m 590 649 l 590 289 b 375 74 589 132 478 74 b 192 275 269 74 192 150 l 192 649 l 103 649 l 103 271 b 365 -14 101 92 208 -14 b 590 114 446 -14 551 22 l 590 0 l 679 0 l 679 649 z "},"ū":{"ha":790,"x_min":0,"x_max":0,"o":"m 565 886 l 229 886 l 229 807 l 565 807 z m 590 649 l 590 289 b 375 74 589 132 478 74 b 192 275 269 74 192 150 l 192 649 l 103 649 l 103 271 b 365 -14 101 92 208 -14 b 590 114 446 -14 551 22 l 590 0 l 679 0 l 679 649 z "},"ų":{"ha":790,"x_min":0,"x_max":0,"o":"m 729 -133 b 660 -212 726 -182 699 -212 b 594 -146 619 -212 594 -186 b 600 -117 594 -137 596 -126 l 644 0 l 679 0 l 679 649 l 590 649 l 590 289 b 375 74 589 132 478 74 b 192 275 269 74 192 150 l 192 649 l 103 649 l 103 271 b 365 -14 101 92 208 -14 b 590 114 446 -14 551 22 l 590 26 l 540 -92 b 528 -147 533 -107 528 -131 b 660 -278 528 -225 582 -278 b 794 -133 742 -278 794 -219 z "},"ů":{"ha":790,"x_min":0,"x_max":0,"o":"m 394 749 b 529 881 469 749 529 807 b 394 1014 529 954 469 1014 b 264 881 322 1014 264 954 b 394 749 264 807 322 749 z m 394 956 b 471 881 438 956 471 922 b 394 807 471 839 438 807 b 322 881 354 807 322 839 b 394 956 322 922 354 956 z m 590 649 l 590 289 b 375 74 589 132 478 74 b 192 275 269 74 192 150 l 192 649 l 103 649 l 103 271 b 365 -14 101 92 208 -14 b 590 114 446 -14 551 22 l 590 0 l 679 0 l 679 649 z "},"v":{"ha":694,"x_min":0,"x_max":0,"o":"m 571 649 l 346 108 l 124 649 l 29 649 l 300 0 l 392 0 l 667 649 z "},"w":{"ha":1096,"x_min":0,"x_max":0,"o":"m 972 649 l 783 135 l 593 649 l 501 649 l 313 133 l 122 649 l 26 649 l 275 0 l 353 0 l 546 531 l 747 0 l 825 0 l 1067 649 z "},"ẃ":{"ha":1096,"x_min":0,"x_max":0,"o":"m 754 957 l 647 957 l 513 744 l 599 744 z m 972 649 l 783 135 l 593 649 l 501 649 l 313 133 l 122 649 l 26 649 l 275 0 l 353 0 l 546 531 l 747 0 l 825 0 l 1067 649 z "},"ŵ":{"ha":1096,"x_min":0,"x_max":0,"o":"m 550 889 l 672 744 l 754 744 l 599 957 l 503 957 l 347 744 l 429 744 z m 972 649 l 783 135 l 593 649 l 501 649 l 313 133 l 122 649 l 26 649 l 275 0 l 353 0 l 546 531 l 747 0 l 825 0 l 1067 649 z "},"ẅ":{"ha":1096,"x_min":0,"x_max":0,"o":"m 432 786 b 500 849 469 786 500 813 b 432 913 500 886 469 913 b 365 849 396 913 365 886 b 432 786 365 813 396 786 z m 667 786 b 735 849 704 786 735 813 b 667 913 735 886 704 913 b 600 849 631 913 600 886 b 667 786 600 813 631 786 z m 972 649 l 783 135 l 593 649 l 501 649 l 313 133 l 122 649 l 26 649 l 275 0 l 353 0 l 546 531 l 747 0 l 825 0 l 1067 649 z "},"ẁ":{"ha":1096,"x_min":0,"x_max":0,"o":"m 596 744 l 464 957 l 356 957 l 510 744 z m 972 649 l 783 135 l 593 649 l 501 649 l 313 133 l 122 649 l 26 649 l 275 0 l 353 0 l 546 531 l 747 0 l 825 0 l 1067 649 z "},"x":{"ha":654,"x_min":0,"x_max":0,"o":"m 638 0 l 381 358 l 590 649 l 482 649 l 328 431 l 172 649 l 64 649 l 275 357 l 17 0 l 122 0 l 328 283 l 531 0 z "},"y":{"ha":692,"x_min":0,"x_max":0,"o":"m 571 649 l 347 118 l 126 649 l 31 649 l 299 8 l 165 -315 l 260 -315 l 667 649 z "},"ý":{"ha":692,"x_min":0,"x_max":0,"o":"m 551 957 l 444 957 l 310 744 l 396 744 z m 571 649 l 347 118 l 126 649 l 31 649 l 299 8 l 165 -315 l 260 -315 l 667 649 z "},"ŷ":{"ha":692,"x_min":0,"x_max":0,"o":"m 347 889 l 469 744 l 551 744 l 396 957 l 300 957 l 144 744 l 226 744 z m 571 649 l 347 118 l 126 649 l 31 649 l 299 8 l 165 -315 l 260 -315 l 667 649 z "},"ÿ":{"ha":692,"x_min":0,"x_max":0,"o":"m 229 786 b 297 849 267 786 297 813 b 229 913 297 886 267 913 b 163 849 193 913 163 886 b 229 786 163 813 193 786 z m 464 786 b 532 849 501 786 532 813 b 464 913 532 886 501 913 b 397 849 428 913 397 886 b 464 786 397 813 428 786 z m 571 649 l 347 118 l 126 649 l 31 649 l 299 8 l 165 -315 l 260 -315 l 667 649 z "},"ỳ":{"ha":692,"x_min":0,"x_max":0,"o":"m 393 744 l 261 957 l 153 957 l 307 744 z m 571 649 l 347 118 l 126 649 l 31 649 l 299 8 l 165 -315 l 260 -315 l 667 649 z "},"z":{"ha":672,"x_min":0,"x_max":0,"o":"m 610 649 l 69 649 l 69 564 l 479 564 l 57 69 l 57 0 l 610 0 l 610 85 l 183 85 l 610 578 z "},"ź":{"ha":672,"x_min":0,"x_max":0,"o":"m 539 957 l 432 957 l 297 744 l 383 744 z m 610 649 l 69 649 l 69 564 l 479 564 l 57 69 l 57 0 l 610 0 l 610 85 l 183 85 l 610 578 z "},"ž":{"ha":672,"x_min":0,"x_max":0,"o":"m 383 744 l 539 957 l 457 957 l 335 814 l 214 957 l 132 957 l 288 744 z m 610 649 l 69 649 l 69 564 l 479 564 l 57 69 l 57 0 l 610 0 l 610 85 l 183 85 l 610 578 z "},"ż":{"ha":672,"x_min":0,"x_max":0,"o":"m 336 779 b 404 842 375 779 404 806 b 336 906 404 879 375 906 b 268 842 299 906 268 879 b 336 779 268 806 299 779 z m 610 649 l 69 649 l 69 564 l 479 564 l 57 69 l 57 0 l 610 0 l 610 85 l 183 85 l 610 578 z "},"ﬀ":{"ha":893,"x_min":0,"x_max":0,"o":"m 861 929 l 910 929 l 910 1014 l 849 1014 b 615 733 679 1014 615 896 l 615 649 l 249 649 l 249 743 b 406 929 249 847 283 929 l 454 929 l 454 1014 l 393 1014 b 160 733 224 1014 160 896 l 160 649 l 32 649 l 32 572 l 160 572 l 160 0 l 249 0 l 249 572 l 615 572 l 615 0 l 704 0 l 704 572 l 869 572 l 869 649 l 704 649 l 704 743 b 861 929 704 847 739 929 z "},"ﬃ":{"ha":1214,"x_min":0,"x_max":0,"o":"m 1103 649 l 704 649 l 704 743 b 861 929 704 847 739 929 l 888 929 l 888 1014 l 849 1014 b 615 733 679 1014 615 896 l 615 649 l 249 649 l 249 743 b 406 929 249 847 283 929 l 454 929 l 454 1014 l 393 1014 b 160 733 224 1014 160 896 l 160 649 l 32 649 l 32 572 l 160 572 l 160 0 l 249 0 l 249 572 l 615 572 l 615 0 l 704 0 l 704 572 l 1014 572 l 1014 0 l 1103 0 z m 1058 951 b 990 888 1022 951 990 925 b 1058 825 990 851 1022 825 b 1128 888 1097 825 1128 851 b 1058 951 1128 925 1097 951 z "},"ﬄ":{"ha":1215,"x_min":0,"x_max":0,"o":"m 1104 1014 l 849 1014 b 615 733 679 1014 615 896 l 615 649 l 249 649 l 249 743 b 406 929 249 847 283 929 l 454 929 l 454 1014 l 393 1014 b 160 733 224 1014 160 896 l 160 649 l 32 649 l 32 572 l 160 572 l 160 0 l 249 0 l 249 572 l 615 572 l 615 0 l 704 0 l 704 572 l 869 572 l 869 649 l 704 649 l 704 743 b 861 929 704 847 739 929 l 1015 929 l 1015 0 l 1104 0 z "},"ﬁ":{"ha":758,"x_min":0,"x_max":0,"o":"m 647 649 l 249 649 l 249 743 b 406 929 249 847 283 929 l 438 929 l 438 1014 l 393 1014 b 160 733 224 1014 160 896 l 160 649 l 32 649 l 32 572 l 160 572 l 160 0 l 249 0 l 249 572 l 558 572 l 558 0 l 647 0 z m 603 951 b 535 888 567 951 535 925 b 603 825 535 851 567 825 b 672 888 642 825 672 851 b 603 951 672 925 642 951 z "},"ﬂ":{"ha":760,"x_min":0,"x_max":0,"o":"m 649 1014 l 393 1014 b 160 733 224 1014 160 896 l 160 649 l 32 649 l 32 572 l 160 572 l 160 0 l 249 0 l 249 572 l 414 572 l 414 649 l 249 649 l 249 743 b 406 929 249 847 283 929 l 560 929 l 560 0 l 649 0 z "},"ª":{"ha":757,"x_min":0,"x_max":0,"o":"m 563 1010 l 563 910 b 357 1022 524 982 442 1022 b 94 751 214 1022 94 910 b 357 481 94 593 214 481 b 563 593 440 481 524 521 l 563 492 l 643 492 l 643 1010 z m 367 557 b 176 751 263 557 176 643 b 367 944 176 861 263 944 b 561 749 469 944 561 867 b 367 557 561 636 472 557 z m 117 321 l 633 321 l 633 393 l 117 393 z "},"º":{"ha":742,"x_min":0,"x_max":0,"o":"m 371 481 b 644 753 518 481 644 588 b 371 1022 644 917 518 1022 b 97 753 222 1022 97 917 b 371 481 97 588 222 481 z m 371 557 b 179 753 265 557 179 635 b 371 946 179 871 265 946 b 564 753 476 946 564 871 b 371 557 564 635 476 557 z m 114 393 l 114 321 l 631 321 l 631 393 z "},"А":{"ha":846,"x_min":0,"x_max":0,"o":"m 740 0 l 836 0 l 472 957 l 375 957 l 10 0 l 107 0 l 203 254 l 644 254 z m 235 336 l 424 835 l 613 336 z "},"Б":{"ha":832,"x_min":0,"x_max":0,"o":"m 494 582 l 233 582 l 233 871 l 674 871 l 674 957 l 142 957 l 142 0 l 497 0 b 774 292 697 0 774 146 b 494 582 774 439 697 582 z m 499 86 l 233 86 l 233 497 l 475 497 b 682 292 625 497 682 406 b 499 86 682 179 621 86 z "},"В":{"ha":872,"x_min":0,"x_max":0,"o":"m 617 510 b 743 721 706 546 743 635 b 489 957 743 869 643 957 l 142 957 l 142 0 l 524 0 b 794 264 693 0 794 128 b 617 510 794 364 739 478 z m 488 871 b 651 714 589 871 651 811 b 506 546 651 619 600 546 l 233 546 l 233 871 z m 508 86 l 233 86 l 233 465 l 504 465 b 703 271 629 465 703 374 b 508 86 703 172 632 86 z "},"Г":{"ha":643,"x_min":0,"x_max":0,"o":"m 142 957 l 142 0 l 233 0 l 233 871 l 613 871 l 613 957 z "},"Д":{"ha":913,"x_min":0,"x_max":0,"o":"m 757 86 l 757 957 l 203 957 l 203 356 b 35 86 203 174 136 86 l 21 86 l 21 -199 l 113 -199 l 113 0 l 739 0 l 739 -199 l 831 -199 l 831 86 z m 294 871 l 665 871 l 665 86 l 217 86 b 294 354 267 143 294 239 z "},"Е":{"ha":775,"x_min":0,"x_max":0,"o":"m 232 86 l 232 426 l 629 426 l 629 513 l 232 513 l 232 871 l 688 871 l 688 957 l 142 957 l 142 0 l 703 0 l 703 86 z "},"Ё":{"ha":775,"x_min":0,"x_max":0,"o":"m 271 1094 b 339 1157 308 1094 339 1121 b 271 1221 339 1194 308 1221 b 204 1157 235 1221 204 1194 b 271 1094 204 1121 235 1094 z m 506 1094 b 574 1157 543 1094 574 1121 b 506 1221 574 1194 543 1221 b 439 1157 469 1221 439 1194 b 506 1094 439 1121 469 1094 z m 232 86 l 232 426 l 629 426 l 629 513 l 232 513 l 232 871 l 688 871 l 688 957 l 142 957 l 142 0 l 703 0 l 703 86 z "},"Ж":{"ha":1156,"x_min":0,"x_max":0,"o":"m 1165 0 l 703 467 l 1094 957 l 981 957 l 624 507 l 624 957 l 532 957 l 532 504 l 174 957 l 61 957 l 453 467 l -10 0 l 115 0 l 532 421 l 532 0 l 624 0 l 624 419 l 1040 0 z "},"З":{"ha":781,"x_min":0,"x_max":0,"o":"m 524 513 b 656 717 608 547 656 626 b 367 968 656 867 542 968 b 96 829 254 968 146 913 l 165 779 b 365 882 203 840 283 882 b 563 715 483 882 563 813 b 376 550 563 617 488 550 l 278 550 l 278 468 l 382 468 b 614 271 514 468 614 390 b 354 72 614 154 503 72 b 121 218 256 72 165 128 l 39 176 b 360 -14 96 60 219 -14 b 707 272 564 -14 707 101 b 524 513 707 393 633 483 z "},"И":{"ha":958,"x_min":0,"x_max":0,"o":"m 721 957 l 232 161 l 232 957 l 140 957 l 140 0 l 235 0 l 725 797 l 725 0 l 817 0 l 817 957 z "},"Й":{"ha":958,"x_min":0,"x_max":0,"o":"m 481 1075 b 649 1247 600 1075 649 1156 l 574 1247 b 481 1146 574 1189 543 1146 b 389 1247 424 1146 389 1189 l 311 1247 b 481 1075 311 1140 379 1075 z m 721 957 l 232 161 l 232 957 l 140 957 l 140 0 l 235 0 l 725 797 l 725 0 l 817 0 l 817 957 z "},"К":{"ha":760,"x_min":0,"x_max":0,"o":"m 774 0 l 313 467 l 704 957 l 590 957 l 232 507 l 232 957 l 142 957 l 142 0 l 232 0 l 232 421 l 650 0 z "},"Л":{"ha":896,"x_min":0,"x_max":0,"o":"m 201 957 l 201 311 b 33 86 201 157 135 86 l 19 86 l 19 0 l 39 0 b 293 310 192 0 293 106 l 293 871 l 664 871 l 664 0 l 754 0 l 754 957 z "},"М":{"ha":1315,"x_min":0,"x_max":0,"o":"m 1231 0 l 1111 957 l 1026 957 l 658 197 l 290 957 l 204 957 l 86 0 l 175 0 l 274 796 l 617 99 l 701 99 l 1042 793 l 1140 0 z "},"Н":{"ha":993,"x_min":0,"x_max":0,"o":"m 760 957 l 760 517 l 233 517 l 233 957 l 142 957 l 142 0 l 233 0 l 233 435 l 760 435 l 760 0 l 851 0 l 851 957 z "},"О":{"ha":1113,"x_min":0,"x_max":0,"o":"m 556 -14 b 1039 476 828 -14 1039 206 b 556 968 1039 749 828 968 b 72 476 283 968 72 749 b 556 -14 72 206 283 -14 z m 556 72 b 164 476 335 72 164 254 b 556 882 164 699 335 882 b 947 476 776 882 947 699 b 556 72 947 254 776 72 z "},"П":{"ha":971,"x_min":0,"x_max":0,"o":"m 142 957 l 142 0 l 233 0 l 233 872 l 738 872 l 738 0 l 829 0 l 829 957 z "},"Р":{"ha":843,"x_min":0,"x_max":0,"o":"m 518 957 l 142 957 l 142 0 l 233 0 l 233 374 l 514 374 b 792 665 714 374 792 517 b 518 957 792 813 714 957 z m 510 460 l 233 460 l 233 871 l 517 871 b 700 665 649 871 700 768 b 510 460 700 561 647 460 z "},"С":{"ha":942,"x_min":0,"x_max":0,"o":"m 553 -14 b 892 131 688 -14 808 42 l 826 189 b 553 72 757 117 660 72 b 164 476 335 72 164 254 b 553 881 164 699 335 881 b 826 764 660 881 758 836 l 892 822 b 553 967 808 911 688 967 b 72 476 285 967 72 747 b 553 -14 72 206 285 -14 z "},"Т":{"ha":760,"x_min":0,"x_max":0,"o":"m 731 957 l 29 957 l 29 871 l 333 871 l 333 0 l 425 0 l 425 871 l 731 871 z "},"У":{"ha":804,"x_min":0,"x_max":0,"o":"m 706 957 l 422 396 l 104 957 l 1 957 l 374 307 l 210 0 l 311 0 l 807 957 z "},"Ф":{"ha":1156,"x_min":0,"x_max":0,"o":"m 1088 476 b 624 835 1088 683 951 824 l 624 957 l 532 957 l 532 835 b 68 476 207 824 68 683 b 532 119 68 271 206 131 l 532 0 l 624 0 l 624 119 b 1088 476 951 131 1088 271 z m 160 476 b 532 749 160 633 269 739 l 532 206 b 160 476 269 215 160 321 z m 624 206 l 624 749 b 996 476 886 739 996 633 b 624 206 996 321 886 215 z "},"Х":{"ha":817,"x_min":0,"x_max":0,"o":"m 804 0 l 463 515 l 760 957 l 650 957 l 408 589 l 167 957 l 57 957 l 354 515 l 14 0 l 122 0 l 408 440 l 694 0 z "},"Ч":{"ha":901,"x_min":0,"x_max":0,"o":"m 668 957 l 668 461 b 396 433 567 439 482 433 b 164 685 247 433 164 506 l 164 957 l 72 957 l 72 683 b 390 347 72 453 190 347 b 668 375 478 347 565 353 l 668 0 l 760 0 l 760 957 z "},"Ц":{"ha":1007,"x_min":0,"x_max":0,"o":"m 851 86 l 851 957 l 760 957 l 760 85 l 233 85 l 233 957 l 142 957 l 142 0 l 835 0 l 835 -199 l 926 -199 l 926 86 z "},"Ш":{"ha":1411,"x_min":0,"x_max":0,"o":"m 1179 957 l 1179 85 l 751 85 l 751 957 l 660 957 l 660 85 l 233 85 l 233 957 l 142 957 l 142 0 l 1271 0 l 1271 957 z "},"Щ":{"ha":1425,"x_min":0,"x_max":0,"o":"m 1271 86 l 1271 957 l 1179 957 l 1179 85 l 751 85 l 751 957 l 660 957 l 660 85 l 233 85 l 233 957 l 142 957 l 142 0 l 1253 0 l 1253 -199 l 1344 -199 l 1344 86 z "},"Ь":{"ha":826,"x_min":0,"x_max":0,"o":"m 494 582 l 233 582 l 233 957 l 142 957 l 142 0 l 497 0 b 774 292 697 0 774 146 b 494 582 774 439 697 582 z m 499 86 l 233 86 l 233 497 l 475 497 b 682 292 625 497 682 406 b 499 86 682 179 621 86 z "},"Ъ":{"ha":906,"x_min":0,"x_max":0,"o":"m 575 582 l 313 582 l 313 957 l 17 957 l 17 871 l 221 871 l 221 0 l 578 0 b 854 292 776 0 854 146 b 575 582 854 439 778 582 z m 579 86 l 313 86 l 313 497 l 556 497 b 763 292 704 497 763 406 b 579 86 763 179 701 86 z "},"Ы":{"ha":1154,"x_min":0,"x_max":0,"o":"m 494 582 l 233 582 l 233 957 l 142 957 l 142 0 l 497 0 b 774 292 697 0 774 146 b 494 582 774 439 697 582 z m 921 957 l 921 0 l 1013 0 l 1013 957 z m 499 86 l 233 86 l 233 497 l 475 497 b 682 292 625 497 682 406 b 499 86 682 179 621 86 z "},"Э":{"ha":950,"x_min":0,"x_max":0,"o":"m 399 967 b 58 822 263 967 142 911 l 124 764 b 399 881 192 836 290 881 b 785 513 603 881 767 718 l 249 513 l 249 426 l 783 426 b 399 72 760 228 599 72 b 124 189 290 72 193 117 l 58 131 b 399 -14 142 42 263 -14 b 878 476 665 -14 878 206 b 399 967 878 747 665 967 z "},"Ю":{"ha":1467,"x_min":0,"x_max":0,"o":"m 910 968 b 429 517 653 968 449 769 l 233 517 l 233 957 l 142 957 l 142 0 l 233 0 l 233 435 l 429 435 b 910 -14 450 183 653 -14 b 1394 476 1182 -14 1394 206 b 910 968 1394 749 1182 968 z m 910 72 b 519 476 690 72 519 254 b 910 882 519 699 690 882 b 1303 476 1131 882 1303 699 b 910 72 1303 254 1131 72 z "},"Я":{"ha":853,"x_min":0,"x_max":0,"o":"m 356 957 b 79 665 156 957 79 813 b 351 375 79 519 154 379 l 86 0 l 197 0 l 460 375 l 619 375 l 619 0 l 711 0 l 711 957 z m 378 460 b 171 665 228 460 171 551 b 354 871 171 779 232 871 l 619 871 l 619 460 z "},"а":{"ha":854,"x_min":0,"x_max":0,"o":"m 654 649 l 654 524 b 396 663 606 611 506 663 b 67 325 214 663 67 522 b 396 -14 67 128 215 -14 b 654 126 504 -14 606 38 l 654 0 l 743 0 l 743 649 z m 403 71 b 156 326 267 71 156 182 b 403 578 156 469 267 578 b 654 322 532 578 654 479 b 403 71 654 172 538 71 z "},"б":{"ha":832,"x_min":0,"x_max":0,"o":"m 433 663 b 185 543 329 663 232 613 b 549 892 200 697 278 865 b 694 981 619 899 671 933 l 622 1021 b 531 971 600 992 585 976 b 86 407 163 935 86 650 b 425 -14 86 114 224 -14 b 765 326 610 -14 765 121 b 433 663 765 532 610 663 z m 425 71 b 175 356 261 71 175 194 b 425 578 175 475 288 578 b 676 326 563 578 676 479 b 425 71 676 172 563 71 z "},"в":{"ha":746,"x_min":0,"x_max":0,"o":"m 557 346 b 642 488 622 369 642 433 b 451 649 642 585 565 649 l 111 649 l 111 0 l 476 0 b 678 181 610 0 678 90 b 557 346 678 250 643 325 z m 447 564 b 553 472 514 564 553 531 b 458 378 553 415 518 378 l 200 378 l 200 564 z m 468 85 l 200 85 l 200 301 l 463 301 b 590 189 543 301 590 250 b 468 85 590 133 547 85 z "},"г":{"ha":517,"x_min":0,"x_max":0,"o":"m 111 649 l 111 0 l 200 0 l 200 564 l 488 564 l 488 649 z "},"д":{"ha":706,"x_min":0,"x_max":0,"o":"m 583 63 l 583 649 l 161 649 l 161 274 b 40 72 161 133 114 72 l 31 72 l 31 -158 l 118 -158 l 118 0 l 547 0 l 547 -158 l 638 -158 l 638 63 z m 249 257 l 249 564 l 496 564 l 496 82 l 190 82 b 249 257 232 117 249 183 z "},"е":{"ha":779,"x_min":0,"x_max":0,"o":"m 717 326 b 397 663 717 532 582 663 b 67 326 214 663 67 532 b 397 -14 67 121 214 -14 b 688 149 519 -14 631 44 l 611 182 b 400 71 568 111 489 71 b 157 288 269 71 172 149 l 715 288 b 717 326 717 300 717 314 z m 158 364 b 397 578 175 503 269 578 b 629 364 524 578 617 499 z "},"ё":{"ha":779,"x_min":0,"x_max":0,"o":"m 268 786 b 336 849 306 786 336 813 b 268 913 336 886 306 913 b 201 849 232 913 201 886 b 268 786 201 813 232 786 z m 503 786 b 571 849 540 786 571 813 b 503 913 571 886 540 913 b 436 849 467 913 436 886 b 503 786 436 813 467 786 z m 717 326 b 397 663 717 532 582 663 b 67 326 214 663 67 532 b 397 -14 67 121 214 -14 b 688 149 519 -14 631 44 l 611 182 b 400 71 568 111 489 71 b 157 288 269 71 172 149 l 715 288 b 717 326 717 300 717 314 z m 158 364 b 397 578 175 503 269 578 b 629 364 524 578 617 499 z "},"ж":{"ha":882,"x_min":0,"x_max":0,"o":"m 879 0 l 547 319 l 825 649 l 715 649 l 485 368 l 485 649 l 396 649 l 396 374 l 167 649 l 56 649 l 335 318 l 3 0 l 124 0 l 396 264 l 396 0 l 485 0 l 485 267 l 757 0 z "},"з":{"ha":592,"x_min":0,"x_max":0,"o":"m 396 351 b 490 486 457 376 490 429 b 279 661 490 593 406 661 b 76 569 194 661 119 622 l 136 514 b 272 576 163 553 217 576 b 401 482 349 576 401 538 b 272 379 401 422 353 379 l 211 379 l 211 308 l 286 308 b 436 190 374 308 436 261 b 268 72 436 121 367 72 b 114 154 203 72 146 103 l 43 106 b 274 -12 88 31 174 -12 b 526 186 424 -12 526 69 b 396 351 525 268 475 329 z "},"и":{"ha":758,"x_min":0,"x_max":0,"o":"m 564 649 l 200 149 l 200 649 l 111 649 l 111 0 l 188 0 l 558 504 l 558 0 l 647 0 l 647 649 z "},"й":{"ha":758,"x_min":0,"x_max":0,"o":"m 360 769 b 529 942 461 769 529 835 l 451 942 b 360 840 451 883 417 840 b 267 942 297 840 267 883 l 192 942 b 360 769 192 850 240 769 z m 564 649 l 200 149 l 200 649 l 111 649 l 111 0 l 188 0 l 558 504 l 558 0 l 647 0 l 647 649 z "},"к":{"ha":589,"x_min":0,"x_max":0,"o":"m 593 0 l 261 319 l 538 649 l 429 649 l 200 371 l 200 649 l 111 649 l 111 0 l 200 0 l 200 265 l 472 0 z "},"л":{"ha":721,"x_min":0,"x_max":0,"o":"m 161 649 l 161 232 b 43 79 161 121 114 79 l 31 79 l 31 0 l 60 0 b 249 231 174 0 249 81 l 249 564 l 521 564 l 521 0 l 610 0 l 610 649 z "},"м":{"ha":972,"x_min":0,"x_max":0,"o":"m 900 0 l 814 649 l 735 649 l 488 165 l 238 649 l 158 649 l 72 0 l 161 0 l 226 489 l 450 69 l 524 69 l 746 488 l 811 0 z "},"н":{"ha":775,"x_min":0,"x_max":0,"o":"m 575 649 l 575 363 l 200 363 l 200 649 l 111 649 l 111 0 l 200 0 l 200 283 l 575 283 l 575 0 l 664 0 l 664 649 z "},"о":{"ha":811,"x_min":0,"x_max":0,"o":"m 406 -14 b 746 326 590 -14 746 121 b 406 663 746 532 590 663 b 67 326 221 663 67 532 b 406 -14 67 121 221 -14 z m 406 71 b 156 326 268 71 156 172 b 406 578 156 479 268 578 b 657 326 542 578 657 479 b 406 71 657 172 542 71 z "},"п":{"ha":751,"x_min":0,"x_max":0,"o":"m 111 649 l 111 0 l 200 0 l 200 564 l 551 564 l 551 0 l 640 0 l 640 649 z "},"р":{"ha":854,"x_min":0,"x_max":0,"o":"m 458 663 b 200 521 350 663 247 610 l 200 649 l 111 649 l 111 -315 l 200 -315 l 200 126 b 458 -14 249 38 349 -14 b 788 324 640 -14 788 126 b 458 663 788 521 640 663 z m 451 71 b 200 326 322 71 200 169 b 451 578 200 476 317 578 b 700 322 589 578 700 467 b 451 71 700 179 589 71 z "},"с":{"ha":696,"x_min":0,"x_max":0,"o":"m 410 -12 b 643 76 503 -12 585 21 l 588 136 b 413 72 543 96 482 72 b 156 325 271 72 156 174 b 413 578 156 478 271 578 b 588 513 482 578 543 553 l 643 574 b 410 663 585 628 503 663 b 67 325 225 663 67 531 b 410 -12 67 119 225 -12 z "},"т":{"ha":558,"x_min":0,"x_max":0,"o":"m 529 649 l 29 649 l 29 564 l 235 564 l 235 0 l 324 0 l 324 564 l 529 564 z "},"у":{"ha":692,"x_min":0,"x_max":0,"o":"m 571 649 l 347 118 l 126 649 l 31 649 l 299 8 l 165 -315 l 260 -315 l 667 649 z "},"ф":{"ha":932,"x_min":0,"x_max":0,"o":"m 865 319 b 508 661 864 514 742 647 l 508 1014 l 422 1014 l 422 661 b 65 319 190 647 67 514 b 422 -12 65 128 189 1 l 422 -315 l 508 -315 l 508 -12 b 865 319 742 1 865 128 z m 154 319 b 422 576 156 465 246 563 l 422 72 b 154 319 244 85 154 176 z m 508 72 l 508 576 b 776 319 686 563 776 465 b 508 72 776 176 686 85 z "},"х":{"ha":654,"x_min":0,"x_max":0,"o":"m 638 0 l 381 358 l 590 649 l 482 649 l 328 431 l 172 649 l 64 649 l 275 357 l 17 0 l 122 0 l 328 283 l 531 0 z "},"ч":{"ha":692,"x_min":0,"x_max":0,"o":"m 492 649 l 492 317 b 307 300 426 303 361 300 b 151 458 211 300 151 340 l 151 649 l 64 649 l 64 456 b 290 218 64 290 147 218 b 492 235 350 218 421 221 l 492 0 l 581 0 l 581 649 z "},"ц":{"ha":754,"x_min":0,"x_max":0,"o":"m 621 85 l 621 649 l 532 649 l 532 85 l 200 85 l 200 649 l 111 649 l 111 0 l 600 0 l 600 -158 l 688 -158 l 688 85 z "},"ш":{"ha":1035,"x_min":0,"x_max":0,"o":"m 835 649 l 835 85 l 561 85 l 561 649 l 472 649 l 472 85 l 200 85 l 200 649 l 111 649 l 111 0 l 924 0 l 924 649 z "},"щ":{"ha":1058,"x_min":0,"x_max":0,"o":"m 924 85 l 924 649 l 835 649 l 835 85 l 561 85 l 561 649 l 472 649 l 472 85 l 200 85 l 200 649 l 111 649 l 111 0 l 907 0 l 907 -158 l 994 -158 l 994 85 z "},"ь":{"ha":649,"x_min":0,"x_max":0,"o":"m 389 403 l 200 403 l 200 649 l 111 649 l 111 0 l 394 0 b 600 204 542 0 600 101 b 389 403 600 308 542 403 z m 383 85 l 200 85 l 200 318 l 379 318 b 511 203 474 318 511 267 b 383 85 511 138 472 85 z "},"ъ":{"ha":701,"x_min":0,"x_max":0,"o":"m 443 403 l 254 403 l 254 649 l 29 649 l 29 564 l 165 564 l 165 0 l 449 0 b 654 204 596 0 654 101 b 443 403 654 308 594 403 z m 438 85 l 254 85 l 254 318 l 433 318 b 565 203 528 318 565 267 b 438 85 565 138 526 85 z "},"ы":{"ha":888,"x_min":0,"x_max":0,"o":"m 389 403 l 200 403 l 200 649 l 111 649 l 111 0 l 394 0 b 600 204 542 0 600 101 b 389 403 600 308 542 403 z m 688 649 l 688 0 l 776 0 l 776 649 z m 383 85 l 200 85 l 200 318 l 379 318 b 511 203 474 318 511 267 b 383 85 511 138 472 85 z "},"э":{"ha":721,"x_min":0,"x_max":0,"o":"m 310 663 b 56 550 207 663 117 618 l 121 499 b 308 578 167 547 232 578 b 563 360 443 578 546 482 l 204 360 l 204 279 l 561 279 b 308 71 540 161 439 71 b 121 149 232 71 167 100 l 56 99 b 310 -14 117 29 207 -14 b 656 325 503 -14 656 140 b 310 663 656 510 503 663 z "},"ю":{"ha":1064,"x_min":0,"x_max":0,"o":"m 658 663 b 321 363 483 663 338 547 l 200 363 l 200 649 l 111 649 l 111 0 l 200 0 l 200 283 l 322 283 b 658 -14 342 103 486 -14 b 997 326 843 -14 997 121 b 658 663 997 532 843 663 z m 658 71 b 407 326 521 71 407 172 b 658 578 407 479 521 578 b 908 326 794 578 908 479 b 658 71 908 172 794 71 z "},"я":{"ha":654,"x_min":0,"x_max":0,"o":"m 279 649 b 71 447 132 649 71 550 b 257 247 71 350 125 258 l 72 0 l 178 0 l 357 246 l 454 246 l 454 0 l 542 0 l 542 649 z m 296 325 b 161 446 200 325 161 379 b 285 564 161 511 200 564 l 454 564 l 454 325 z "},"Δ":{"ha":851,"x_min":0,"x_max":0,"o":"m 475 957 l 376 957 l 13 0 l 839 0 z m 139 82 l 426 835 l 711 82 z "},"Ω":{"ha":1140,"x_min":0,"x_max":0,"o":"m 1053 486 b 571 968 1053 758 842 968 b 89 486 300 968 89 758 b 317 86 89 313 182 160 l 100 86 l 100 0 l 500 0 l 500 82 b 181 486 325 119 181 285 b 571 882 181 708 350 882 b 961 486 790 882 961 708 b 640 82 961 285 817 119 l 640 0 l 1042 0 l 1042 86 l 825 86 b 1053 486 958 160 1053 313 z "},"π":{"ha":743,"x_min":0,"x_max":0,"o":"m 572 169 l 572 564 l 676 564 l 676 649 l 53 649 l 53 564 l 143 564 l 143 0 l 232 0 l 232 564 l 483 564 l 483 171 b 669 -14 483 25 583 -12 l 679 -14 l 679 71 b 572 169 610 71 572 92 z "},"⁰":{"ha":485,"x_min":0,"x_max":0,"o":"m 243 721 b 425 979 386 721 425 836 b 243 1240 425 1125 386 1240 b 60 979 99 1240 60 1125 b 243 721 60 836 99 721 z m 243 792 b 136 979 161 792 136 875 b 243 1169 136 1086 161 1169 b 349 979 325 1169 349 1086 b 243 792 349 875 325 792 z "},"¹":{"ha":314,"x_min":0,"x_max":0,"o":"m 225 1240 l 39 1160 l 39 1089 l 158 1138 l 158 728 l 233 728 l 233 1240 z "},"²":{"ha":433,"x_min":0,"x_max":0,"o":"m 171 799 l 319 968 b 372 1094 350 1004 372 1044 b 215 1240 372 1182 308 1240 b 50 1106 124 1240 67 1188 l 121 1094 b 211 1169 132 1142 164 1169 b 294 1096 260 1169 294 1139 b 263 1019 294 1068 282 1044 l 53 769 l 51 728 l 376 728 l 376 799 z "},"³":{"ha":443,"x_min":0,"x_max":0,"o":"m 293 1001 b 363 1104 336 1024 363 1061 b 207 1240 363 1188 296 1240 b 58 1171 144 1240 93 1211 l 100 1122 b 197 1171 119 1150 158 1171 b 285 1101 249 1171 283 1143 b 196 1022 288 1057 253 1022 l 163 1022 l 163 965 l 213 965 b 310 878 269 965 310 929 b 197 790 310 825 264 790 b 92 847 153 790 115 811 l 40 804 b 201 721 74 751 132 721 b 389 869 310 721 389 782 b 293 1001 389 935 350 983 z "},"⁴":{"ha":485,"x_min":0,"x_max":0,"o":"m 443 896 l 361 896 l 361 1233 l 306 1233 l 32 853 l 32 828 l 285 828 l 285 728 l 361 728 l 361 828 l 443 828 z m 136 896 l 285 1107 l 285 896 z "},"⁵":{"ha":457,"x_min":0,"x_max":0,"o":"m 249 1060 b 143 1032 210 1060 171 1050 l 169 1163 l 374 1163 l 374 1235 l 106 1235 l 61 982 l 103 956 b 226 996 138 979 186 996 b 331 897 289 996 331 956 b 215 792 331 833 283 792 b 104 856 174 792 126 817 l 46 814 b 219 721 81 757 153 721 b 408 896 319 721 408 788 b 249 1060 408 989 342 1060 z "},"⁶":{"ha":474,"x_min":0,"x_max":0,"o":"m 257 1046 b 133 1000 203 1046 161 1028 b 261 1169 139 1086 171 1169 b 354 1111 301 1169 335 1151 l 413 1149 b 258 1240 383 1208 324 1240 b 58 943 92 1240 58 1078 b 242 721 58 793 135 721 b 422 889 363 721 422 801 b 257 1046 422 976 357 1046 z m 244 792 b 140 897 189 792 140 824 b 246 983 140 961 200 983 b 346 889 306 985 346 943 b 244 792 346 836 307 792 z "},"⁷":{"ha":418,"x_min":0,"x_max":0,"o":"m 44 1233 l 44 1163 l 276 1163 l 75 728 l 161 728 l 390 1224 l 390 1233 z "},"⁸":{"ha":478,"x_min":0,"x_max":0,"o":"m 331 1013 b 389 1113 363 1029 389 1067 b 239 1240 389 1185 322 1240 b 90 1113 156 1240 90 1185 b 146 1013 90 1068 115 1029 b 51 876 92 992 51 938 b 239 721 51 788 135 721 b 426 876 340 721 426 788 b 331 1013 426 939 385 992 z m 239 1175 b 317 1108 283 1175 317 1144 b 239 1039 317 1071 285 1039 b 161 1108 193 1039 161 1071 b 239 1175 161 1144 194 1175 z m 239 789 b 129 885 175 789 129 831 b 239 981 129 938 174 981 b 349 885 304 981 349 938 b 239 789 349 831 303 789 z "},"⁹":{"ha":474,"x_min":0,"x_max":0,"o":"m 232 1240 b 53 1072 113 1240 53 1161 b 218 915 53 985 118 915 b 342 964 274 915 315 935 b 214 792 338 876 306 792 b 121 850 175 792 140 810 l 63 814 b 215 721 92 753 150 721 b 415 1025 383 721 415 890 b 232 1240 415 1160 340 1240 z m 229 978 b 128 1072 169 978 128 1019 b 231 1169 128 1125 167 1169 b 333 1064 286 1169 333 1136 b 229 978 335 1001 275 978 z "},"⁄":{"ha":250,"x_min":0,"x_max":0,"o":"m -229 -14 l -154 -14 l 471 932 l 396 932 z "},"½":{"ha":997,"x_min":0,"x_max":0,"o":"m 710 932 l 85 -14 l 160 -14 l 785 932 z m 157 410 l 232 410 l 232 921 l 225 921 l 39 840 l 39 769 l 157 818 z m 735 71 l 883 240 b 935 365 914 276 935 315 b 778 513 935 453 872 513 b 614 378 688 513 631 458 l 685 365 b 774 442 694 413 728 442 b 858 367 822 442 858 411 b 825 292 858 340 846 317 l 615 42 l 615 0 l 939 0 l 939 71 z "},"¼":{"ha":1006,"x_min":0,"x_max":0,"o":"m 710 932 l 85 -14 l 160 -14 l 785 932 z m 157 410 l 232 410 l 232 921 l 225 921 l 39 840 l 39 769 l 157 818 z m 964 168 l 882 168 l 882 506 l 826 506 l 553 125 l 553 100 l 806 100 l 806 0 l 882 0 l 882 100 l 964 100 z m 657 168 l 806 378 l 806 168 z "},"¾":{"ha":1135,"x_min":0,"x_max":0,"o":"m 839 932 l 214 -14 l 289 -14 l 914 932 z m 389 551 b 294 682 389 615 350 663 b 363 785 336 704 363 743 b 207 921 363 868 296 921 b 58 851 144 921 93 892 l 100 803 b 197 851 119 832 158 851 b 285 782 249 851 283 824 b 196 704 288 739 253 704 l 163 704 l 163 646 l 213 646 b 310 558 269 646 310 611 b 197 471 310 506 264 471 b 92 528 153 471 115 492 l 40 485 b 201 403 74 432 132 403 b 389 551 310 403 389 463 z m 1093 168 l 1011 168 l 1011 506 l 956 506 l 682 125 l 682 100 l 935 100 l 935 0 l 1011 0 l 1011 100 l 1093 100 z m 786 168 l 935 378 l 935 168 z "},"⅛":{"ha":1042,"x_min":0,"x_max":0,"o":"m 710 932 l 85 -14 l 160 -14 l 785 932 z m 157 410 l 232 410 l 232 921 l 225 921 l 39 840 l 39 769 l 157 818 z m 894 285 b 953 383 926 301 953 339 b 803 513 953 456 886 513 b 654 383 719 513 654 456 b 710 285 654 340 679 301 b 615 149 656 264 615 210 b 803 -7 615 60 699 -7 b 990 149 904 -7 990 58 b 894 285 990 211 949 264 z m 803 447 b 881 379 847 447 881 417 b 803 310 881 342 849 311 b 725 379 757 311 725 342 b 803 447 725 417 758 447 z m 803 61 b 693 157 739 61 693 103 b 803 253 693 210 738 253 b 913 157 868 253 913 210 b 803 61 913 103 867 61 z "},"⅜":{"ha":1171,"x_min":0,"x_max":0,"o":"m 839 932 l 214 -14 l 289 -14 l 914 932 z m 389 551 b 294 682 389 615 350 663 b 363 785 336 704 363 743 b 207 921 363 868 296 921 b 58 851 144 921 93 892 l 100 803 b 197 851 119 832 158 851 b 285 782 249 851 283 824 b 196 704 288 739 253 704 l 163 704 l 163 646 l 213 646 b 310 558 269 646 310 611 b 197 471 310 506 264 471 b 92 528 153 471 115 492 l 40 485 b 201 403 74 432 132 403 b 389 551 310 403 389 463 z m 1024 285 b 1082 383 1056 301 1082 339 b 932 513 1082 456 1015 513 b 783 383 849 513 783 456 b 839 285 783 340 808 301 b 744 149 785 264 744 210 b 932 -7 744 60 828 -7 b 1119 149 1033 -7 1119 58 b 1024 285 1119 211 1078 264 z m 932 447 b 1010 379 976 447 1010 417 b 932 310 1010 342 978 311 b 854 379 886 311 854 342 b 932 447 854 417 888 447 z m 932 61 b 822 157 868 61 822 103 b 932 253 822 210 867 253 b 1042 157 997 253 1042 210 b 932 61 1042 103 996 61 z "},"⅝":{"ha":1185,"x_min":0,"x_max":0,"o":"m 853 932 l 228 -14 l 303 -14 l 928 932 z m 408 578 b 249 740 408 671 342 740 b 143 713 210 740 171 731 l 169 844 l 374 844 l 374 915 l 106 915 l 61 664 l 103 638 b 226 678 138 661 186 678 b 331 578 289 678 331 636 b 215 472 331 515 283 472 b 104 536 174 472 126 499 l 46 496 b 219 401 81 438 153 401 b 408 578 319 401 408 468 z m 1038 285 b 1096 383 1069 301 1096 339 b 946 513 1096 456 1029 513 b 797 383 863 513 797 456 b 853 285 797 340 822 301 b 758 149 799 264 758 210 b 946 -7 758 60 842 -7 b 1133 149 1047 -7 1133 58 b 1038 285 1133 211 1092 264 z m 946 447 b 1024 379 990 447 1024 417 b 946 310 1024 342 992 311 b 868 379 900 311 868 342 b 946 447 868 417 901 447 z m 946 61 b 836 157 882 61 836 103 b 946 253 836 210 881 253 b 1056 157 1011 253 1056 210 b 946 61 1056 103 1010 61 z "},"⅞":{"ha":1079,"x_min":0,"x_max":0,"o":"m 761 932 l 136 -14 l 211 -14 l 836 932 z m 181 410 l 410 904 l 410 914 l 64 914 l 64 843 l 296 843 l 94 410 z m 933 285 b 992 383 965 301 992 339 b 842 513 992 456 925 513 b 693 383 758 513 693 456 b 749 285 693 340 718 301 b 654 149 694 264 654 210 b 842 -7 654 60 738 -7 b 1029 149 943 -7 1029 58 b 933 285 1029 211 988 264 z m 842 447 b 919 379 886 447 919 417 b 842 310 919 342 888 311 b 764 379 796 311 764 342 b 842 447 764 417 797 447 z m 842 61 b 732 157 778 61 732 103 b 842 253 732 210 776 253 b 951 157 907 253 951 210 b 842 61 951 103 906 61 z "},"*":{"ha":639,"x_min":0,"x_max":0,"o":"m 576 757 l 560 817 l 347 756 l 351 978 l 289 978 l 292 756 l 79 817 l 63 757 l 274 704 l 143 531 l 193 494 l 319 674 l 447 494 l 496 531 l 365 704 z "},"\\":{"ha":640,"x_min":0,"x_max":0,"o":"m 510 0 l 599 0 l 131 957 l 40 957 z "},"·":{"ha":338,"x_min":0,"x_max":0,"o":"m 168 272 b 239 339 207 272 239 300 b 168 406 239 376 207 406 b 99 339 131 406 99 376 b 168 272 99 300 131 272 z "},"•":{"ha":604,"x_min":0,"x_max":0,"o":"m 303 150 b 490 328 406 150 490 225 b 303 506 490 431 406 506 b 115 328 200 506 115 431 b 303 150 115 225 200 150 z "},":":{"ha":338,"x_min":0,"x_max":0,"o":"m 169 531 b 239 596 207 531 239 558 b 169 663 239 635 207 663 b 99 596 131 663 99 635 b 169 531 99 558 131 531 z m 169 -14 b 239 51 207 -14 239 14 b 169 118 239 90 207 118 b 99 51 131 118 99 90 b 169 -14 99 14 131 -14 z "},",":{"ha":306,"x_min":0,"x_max":0,"o":"m 64 -236 b 199 171 158 -139 210 13 l 110 171 b 3 -215 122 11 78 -108 z "},"…":{"ha":910,"x_min":0,"x_max":0,"o":"m 160 -14 b 232 53 200 -14 232 14 b 160 118 232 90 200 118 b 90 53 122 118 90 90 b 160 -14 90 14 122 -14 z m 454 -14 b 525 53 493 -14 525 14 b 454 118 525 90 493 118 b 385 53 415 118 385 90 b 454 -14 385 14 415 -14 z m 749 -14 b 819 53 788 -14 819 14 b 749 118 819 90 788 118 b 678 53 710 118 678 90 b 749 -14 678 14 710 -14 z "},"!":{"ha":347,"x_min":0,"x_max":0,"o":"m 138 251 l 211 251 l 218 957 l 129 957 z m 172 -10 b 244 56 213 -10 244 18 b 172 122 244 93 213 122 b 103 56 135 122 103 93 b 172 -10 103 18 135 -10 z "},"¡":{"ha":322,"x_min":0,"x_max":0,"o":"m 161 663 b 90 597 122 663 90 635 b 161 531 90 558 122 531 b 232 597 200 531 232 558 b 161 663 232 635 200 663 z m 125 392 l 117 -315 l 206 -315 l 199 392 z "},"#":{"ha":939,"x_min":0,"x_max":0,"o":"m 147 0 l 229 0 l 299 243 l 511 243 l 443 0 l 526 0 l 596 243 l 765 243 l 788 328 l 618 328 l 700 624 l 869 624 l 893 708 l 724 708 l 792 957 l 708 957 l 640 708 l 426 708 l 494 957 l 411 957 l 343 708 l 174 708 l 151 624 l 318 624 l 238 328 l 69 328 l 46 243 l 215 243 z m 321 328 l 403 624 l 615 624 l 535 328 z "},".":{"ha":322,"x_min":0,"x_max":0,"o":"m 160 -14 b 232 51 200 -14 232 14 b 160 118 232 90 200 118 b 90 51 122 118 90 90 b 160 -14 90 14 122 -14 z "},"?":{"ha":649,"x_min":0,"x_max":0,"o":"m 194 251 l 281 251 l 282 319 b 401 447 282 404 332 426 b 597 703 508 479 597 572 b 326 968 597 865 472 968 b 51 706 185 968 58 867 l 138 706 b 326 883 146 819 232 883 b 510 703 426 883 510 815 b 376 531 510 615 449 556 l 319 511 b 194 319 244 482 192 436 z m 238 -10 b 308 56 276 -10 308 18 b 238 122 308 94 276 122 b 167 56 199 122 167 94 b 238 -10 167 18 199 -10 z "},"¿":{"ha":638,"x_min":0,"x_max":0,"o":"m 406 663 b 335 597 367 663 335 635 b 406 531 335 558 367 531 b 476 597 444 531 476 558 b 406 663 476 635 444 663 z m 449 401 l 363 401 l 361 325 b 242 197 361 240 311 218 b 46 -60 136 164 46 72 b 317 -324 46 -221 171 -324 b 592 -61 460 -324 585 -224 l 506 -61 b 317 -240 499 -175 411 -240 b 135 -60 217 -240 135 -172 b 267 113 135 29 194 89 l 324 133 b 449 325 399 163 450 208 z "},"\"":{"ha":447,"x_min":0,"x_max":0,"o":"m 107 582 l 174 582 l 179 957 l 101 957 z m 274 582 l 340 582 l 347 957 l 268 957 z "},"'":{"ha":281,"x_min":0,"x_max":0,"o":"m 107 582 l 174 582 l 179 957 l 101 957 z "},";":{"ha":351,"x_min":0,"x_max":0,"o":"m 179 663 b 110 596 142 663 110 635 b 179 531 110 558 142 531 b 250 596 218 531 250 558 b 179 663 250 635 218 663 z m 99 -236 b 233 171 193 -139 244 13 l 144 171 b 38 -215 157 11 113 -108 z "},"/":{"ha":640,"x_min":0,"x_max":0,"o":"m 42 0 l 131 0 l 600 957 l 510 957 z "},"_":{"ha":904,"x_min":0,"x_max":0,"o":"m 79 -121 l 825 -121 l 825 -39 l 79 -39 z "},"{":{"ha":499,"x_min":0,"x_max":0,"o":"m 224 533 l 224 751 b 424 939 224 858 294 939 l 467 939 l 467 1014 l 404 1014 b 139 751 260 1014 138 913 l 139 528 b 50 433 139 482 100 439 l 50 358 b 139 264 100 353 139 310 l 139 40 b 404 -222 138 -121 260 -222 l 467 -222 l 467 -147 l 424 -147 b 224 40 294 -147 224 -67 l 224 258 b 128 396 224 313 193 385 b 224 533 193 411 224 479 z "},"}":{"ha":499,"x_min":0,"x_max":0,"o":"m 360 528 l 360 751 b 94 1014 361 913 239 1014 l 31 1014 l 31 939 l 74 939 b 274 751 204 939 275 858 l 274 533 b 371 396 274 479 306 411 b 274 258 306 385 274 313 l 274 40 b 74 -147 275 -67 204 -147 l 31 -147 l 31 -222 l 94 -222 b 360 40 239 -222 361 -121 l 360 264 b 449 358 360 310 399 353 l 449 433 b 360 528 399 439 360 482 z "},"[":{"ha":410,"x_min":0,"x_max":0,"o":"m 368 935 l 368 1014 l 131 1014 l 131 -222 l 368 -222 l 368 -143 l 218 -143 l 218 935 z "},"]":{"ha":410,"x_min":0,"x_max":0,"o":"m 42 1014 l 42 935 l 192 935 l 192 -143 l 42 -143 l 42 -222 l 279 -222 l 279 1014 z "},"(":{"ha":468,"x_min":0,"x_max":0,"o":"m 438 -222 l 438 -147 b 160 394 272 -142 160 69 b 438 939 160 719 272 932 l 438 1014 b 75 394 221 1007 75 772 b 438 -222 75 18 221 -215 z "},")":{"ha":468,"x_min":0,"x_max":0,"o":"m 31 -222 b 393 394 247 -215 393 18 b 31 1014 393 772 247 1007 l 31 939 b 308 394 196 932 308 719 b 31 -147 308 69 196 -142 z "},"⁽":{"ha":321,"x_min":0,"x_max":0,"o":"m 279 588 l 279 643 b 121 936 207 646 121 728 b 279 1228 121 1143 207 1225 l 279 1283 b 56 936 146 1278 56 1142 b 279 588 56 729 146 593 z "},"⁾":{"ha":321,"x_min":0,"x_max":0,"o":"m 40 588 b 265 936 175 593 265 729 b 40 1283 265 1142 175 1278 l 40 1228 b 199 936 114 1225 199 1143 b 40 643 199 728 114 646 z "},"—":{"ha":1103,"x_min":0,"x_max":0,"o":"m 100 278 l 1003 278 l 1003 357 l 100 357 z "},"–":{"ha":819,"x_min":0,"x_max":0,"o":"m 100 278 l 719 278 l 719 357 l 100 357 z "},"-":{"ha":664,"x_min":0,"x_max":0,"o":"m 99 276 l 565 276 l 565 363 l 99 363 z "},"­":{"ha":664,"x_min":0,"x_max":0,"o":"m 99 276 l 565 276 l 565 363 l 99 363 z "},"«":{"ha":621,"x_min":0,"x_max":0,"o":"m 258 36 l 346 36 l 154 324 l 346 611 l 258 611 l 67 324 z m 464 36 l 553 36 l 360 324 l 551 611 l 464 611 l 272 324 z "},"»":{"ha":621,"x_min":0,"x_max":0,"o":"m 69 36 l 157 36 l 349 324 l 157 611 l 69 611 l 261 324 z m 275 36 l 363 36 l 554 324 l 363 611 l 275 611 l 467 324 z "},"‹":{"ha":415,"x_min":0,"x_max":0,"o":"m 258 36 l 346 36 l 154 324 l 346 611 l 258 611 l 67 324 z "},"›":{"ha":415,"x_min":0,"x_max":0,"o":"m 69 36 l 157 36 l 349 324 l 157 611 l 69 611 l 261 324 z "},"„":{"ha":483,"x_min":0,"x_max":0,"o":"m 61 -200 b 196 207 156 -103 207 49 l 113 207 b 6 -181 125 47 82 -72 z m 243 -200 b 378 207 338 -103 389 49 l 294 207 b 188 -181 307 47 264 -72 z "},"“":{"ha":497,"x_min":0,"x_max":0,"o":"m 85 607 l 168 607 b 275 994 156 767 199 886 l 219 1014 b 85 607 125 917 74 765 z m 267 607 l 350 607 b 457 994 338 767 381 886 l 401 1014 b 267 607 307 917 256 765 z "},"”":{"ha":497,"x_min":0,"x_max":0,"o":"m 113 607 b 247 1014 208 704 258 856 l 165 1014 b 57 626 176 854 133 735 z m 294 607 b 429 1014 390 704 440 856 l 347 1014 b 239 626 358 854 315 735 z "},"‘":{"ha":315,"x_min":0,"x_max":0,"o":"m 85 607 l 168 607 b 275 994 156 767 199 886 l 219 1014 b 85 607 125 917 74 765 z "},"’":{"ha":315,"x_min":0,"x_max":0,"o":"m 113 607 b 247 1014 208 704 258 856 l 165 1014 b 57 626 176 854 133 735 z "},"‚":{"ha":301,"x_min":0,"x_max":0,"o":"m 61 -200 b 196 207 156 -103 207 49 l 113 207 b 6 -181 125 47 82 -72 z "},"":{"ha":236,"x_min":0,"x_max":0,"o":"m 69 594 b 160 825 115 649 160 729 l 90 825 b 26 615 90 749 72 675 z "},"":{"ha":217,"x_min":0,"x_max":0,"o":"m 108 721 b 158 769 135 721 158 742 b 108 817 158 797 135 817 b 58 769 81 817 58 797 b 108 721 58 742 81 721 z "}," ":{"ha":364,"x_min":0,"x_max":0,"o":""},"₪":{"ha":1111,"x_min":0,"x_max":0,"o":"m 142 0 l 229 0 l 229 826 l 443 826 b 643 633 564 826 643 740 l 643 308 l 731 308 l 731 633 b 443 914 731 790 617 914 l 142 914 z m 669 0 l 971 0 l 971 914 l 882 914 l 882 88 l 669 88 b 469 281 547 88 469 174 l 469 606 l 382 606 l 382 281 b 669 0 382 124 494 0 z "},"¢":{"ha":708,"x_min":0,"x_max":0,"o":"m 589 136 b 414 72 544 96 483 72 b 157 325 272 72 157 174 b 414 578 157 478 272 578 b 589 513 483 578 544 553 l 644 574 b 432 663 590 624 517 657 l 432 803 l 365 803 l 365 660 b 68 325 201 640 68 514 b 365 -10 68 136 201 10 l 365 -164 l 432 -164 l 432 -12 b 644 76 517 -7 590 25 z "},"₡":{"ha":867,"x_min":0,"x_max":0,"o":"m 501 101 b 429 108 476 101 453 104 l 629 792 b 747 715 674 775 714 749 l 807 768 b 653 872 765 814 713 850 l 690 1000 l 636 1017 l 599 889 b 501 900 568 896 535 900 l 543 1043 l 489 1060 l 442 896 b 67 458 229 867 68 682 b 217 124 67 325 125 206 l 168 -43 l 221 -60 l 264 88 b 353 42 292 69 321 54 l 315 -86 l 368 -103 l 406 26 b 501 15 436 19 468 15 b 807 147 624 15 732 67 l 746 200 b 501 101 682 135 594 101 z m 289 175 l 476 814 b 501 815 485 815 493 815 b 575 808 526 815 551 813 l 376 125 b 289 175 344 136 315 154 z m 156 458 b 415 804 156 626 264 765 l 244 218 b 156 458 189 281 156 365 z "},"¤":{"ha":819,"x_min":0,"x_max":0,"o":"m 96 735 l 199 632 b 144 474 163 586 144 529 b 196 318 144 418 163 364 l 96 218 l 151 163 l 251 263 b 407 211 297 229 353 211 b 565 265 463 211 518 229 l 668 161 l 724 217 l 621 321 b 672 472 654 365 672 418 b 619 631 672 528 654 583 l 724 735 l 668 790 l 564 686 b 407 738 518 721 463 738 b 254 688 353 738 299 721 l 151 790 z m 408 296 b 229 475 308 296 229 376 b 408 653 229 572 311 653 b 588 475 506 653 588 572 b 408 296 588 376 506 296 z "},"$":{"ha":713,"x_min":0,"x_max":0,"o":"m 654 279 b 418 513 654 404 558 479 l 301 542 b 163 679 176 571 163 639 b 349 836 163 771 249 836 b 533 679 453 836 529 772 l 624 679 b 381 915 619 811 519 904 l 381 1038 l 314 1038 l 314 914 b 71 679 183 900 71 810 b 279 463 71 610 97 506 l 397 433 b 563 275 494 410 563 360 b 360 107 563 193 496 107 b 156 274 240 107 163 189 l 65 274 b 314 28 71 158 167 47 l 314 -101 l 381 -101 l 381 25 b 654 279 558 35 654 160 z "},"₫":{"ha":918,"x_min":0,"x_max":0,"o":"m 864 908 l 746 908 l 746 1014 l 657 1014 l 657 908 l 403 908 l 403 844 l 657 844 l 657 603 b 399 743 608 692 508 743 b 69 406 217 743 69 604 b 399 67 69 208 218 67 b 657 208 507 67 610 121 l 657 81 l 746 81 l 746 844 l 864 844 z m 406 151 b 158 407 268 151 158 263 b 406 658 158 550 268 658 b 657 404 535 658 657 560 b 406 151 657 253 540 151 z m 167 -86 l 700 -86 l 700 -21 l 167 -21 z "},"€":{"ha":1054,"x_min":0,"x_max":0,"o":"m 690 553 l 289 553 b 646 839 332 715 471 839 b 919 725 749 839 846 794 l 978 786 b 646 924 890 871 772 924 b 197 553 419 924 244 765 l 54 553 l 54 493 l 690 493 z m 646 72 b 289 360 469 72 331 197 l 690 360 l 690 419 l 54 419 l 54 360 l 196 360 b 646 -12 243 146 419 -12 b 978 125 772 -12 890 39 l 919 186 b 646 72 846 115 749 72 z "},"ƒ":{"ha":728,"x_min":0,"x_max":0,"o":"m 625 914 b 360 643 449 914 388 788 l 344 564 l 210 564 l 210 482 l 328 482 l 267 175 b 93 -19 249 76 207 -19 l 26 -19 l 10 -99 l 100 -100 b 361 194 267 -100 332 39 l 417 482 l 590 482 l 590 564 l 432 564 l 447 640 b 622 831 467 739 508 831 l 688 831 l 704 914 z "},"₴":{"ha":790,"x_min":0,"x_max":0,"o":"m 557 554 l 589 583 b 681 749 636 632 681 671 b 486 914 681 850 603 914 l 142 914 l 142 829 l 476 829 b 588 739 542 829 588 794 b 511 618 588 693 556 661 l 440 554 l 100 554 l 100 492 l 697 492 l 697 554 z m 100 360 l 222 360 l 190 331 b 99 165 143 282 99 243 b 293 0 99 64 176 0 l 665 0 l 665 85 l 301 85 b 190 175 236 85 190 118 b 267 294 190 221 222 253 l 338 360 l 697 360 l 697 422 l 100 422 z "},"₤":{"ha":871,"x_min":0,"x_max":0,"o":"m 483 463 l 290 463 l 290 640 b 474 840 290 767 379 840 b 658 660 581 840 654 767 l 747 660 b 481 922 743 821 624 922 b 201 640 336 922 201 825 l 201 463 l 90 463 l 90 397 l 483 397 z m 715 204 l 715 138 b 667 85 715 106 696 85 l 290 85 l 290 263 l 483 263 l 483 328 l 90 328 l 90 263 l 201 263 l 201 85 l 68 85 l 68 0 l 685 0 b 804 140 760 0 804 61 l 804 204 z "},"₺":{"ha":818,"x_min":0,"x_max":0,"o":"m 669 536 l 669 458 b 365 88 669 231 553 88 l 261 88 l 261 483 l 454 625 l 454 694 l 261 553 l 261 636 l 454 778 l 454 847 l 261 706 l 261 914 l 172 914 l 172 640 l 74 568 l 74 499 l 172 571 l 172 488 l 74 415 l 74 346 l 172 418 l 172 0 l 365 0 b 757 458 606 0 757 181 l 757 536 z "},"₧":{"ha":1829,"x_min":0,"x_max":0,"o":"m 518 957 l 142 957 l 142 0 l 233 0 l 233 374 l 514 374 b 792 665 714 374 792 517 b 518 957 792 813 714 957 z m 1075 907 l 986 907 l 986 649 l 869 649 l 869 572 l 986 572 l 986 0 l 1075 0 l 1075 572 l 1224 572 l 1224 649 l 1075 649 z m 510 460 l 233 460 l 233 871 l 517 871 b 700 665 649 871 700 768 b 510 460 700 561 647 460 z m 1604 357 l 1508 381 b 1407 479 1461 392 1407 418 b 1533 583 1407 540 1458 583 b 1658 486 1599 583 1654 544 l 1744 486 b 1532 663 1740 603 1640 663 b 1318 481 1408 663 1318 586 b 1483 303 1318 372 1392 325 l 1576 281 b 1679 176 1644 264 1679 229 b 1529 65 1679 111 1622 65 b 1376 175 1435 65 1385 121 l 1275 175 b 1529 -14 1306 51 1418 -14 b 1768 175 1664 -14 1768 60 b 1604 357 1768 250 1731 326 z "},"₱":{"ha":926,"x_min":0,"x_max":0,"o":"m 876 743 l 749 743 b 492 914 717 839 636 914 l 165 914 l 165 743 l 74 743 l 74 689 l 165 689 l 165 606 l 74 606 l 74 553 l 165 553 l 165 0 l 257 0 l 257 372 l 489 372 b 756 553 647 372 728 450 l 876 553 l 876 606 l 764 606 b 765 636 765 615 765 626 b 761 689 765 654 764 671 l 876 689 z m 257 828 l 492 828 b 649 743 571 828 622 793 l 257 743 z m 674 636 b 672 606 674 626 674 615 l 257 606 l 257 689 l 668 689 b 674 636 672 672 674 654 z m 485 458 l 257 458 l 257 553 l 657 553 b 485 458 632 499 578 458 z "},"₽":{"ha":833,"x_min":0,"x_max":0,"o":"m 504 385 b 781 644 703 385 781 503 b 507 914 781 783 703 914 l 181 914 l 181 464 l 75 464 l 75 385 l 181 385 l 181 278 l 75 278 l 75 208 l 181 208 l 181 0 l 272 0 l 272 208 l 633 208 l 633 278 l 272 278 l 272 385 z m 506 828 b 689 644 638 828 689 740 b 499 471 689 547 636 471 l 272 471 l 272 828 z "},"₨":{"ha":806,"x_min":0,"x_max":0,"o":"m 510 853 l 731 853 l 756 914 l 93 914 l 94 828 l 319 828 b 497 699 417 828 476 781 l 94 699 l 94 638 l 507 638 l 507 621 b 317 417 507 515 451 417 l 94 417 l 94 331 l 256 332 l 488 0 l 597 0 l 363 333 b 601 621 539 349 601 482 l 601 638 l 731 638 l 756 699 l 596 699 b 510 853 585 761 557 813 z "},"£":{"ha":856,"x_min":0,"x_max":0,"o":"m 706 204 l 706 138 b 656 85 706 106 686 85 l 281 85 l 281 344 l 474 344 l 474 408 l 281 408 l 281 640 b 463 840 281 767 369 840 b 649 660 571 840 643 767 l 738 660 b 471 922 732 821 614 922 b 192 640 326 922 192 825 l 192 408 l 81 408 l 81 344 l 192 344 l 192 85 l 58 85 l 58 0 l 675 0 b 793 140 750 0 793 61 l 793 204 z "},"₮":{"ha":794,"x_min":0,"x_max":0,"o":"m 751 828 l 751 914 l 49 914 l 49 828 l 354 828 l 354 513 l 210 407 l 210 339 l 354 444 l 354 361 l 210 256 l 210 186 l 354 292 l 354 0 l 446 0 l 446 360 l 590 465 l 590 535 l 446 429 l 446 513 l 590 618 l 590 686 l 446 581 l 446 828 z "},"₦":{"ha":1042,"x_min":0,"x_max":0,"o":"m 974 504 l 974 563 l 860 563 l 860 914 l 768 914 l 768 563 l 504 563 l 279 914 l 183 914 l 183 563 l 68 563 l 68 504 l 183 504 l 183 411 l 68 411 l 68 353 l 183 353 l 183 0 l 275 0 l 275 353 l 539 353 l 767 0 l 860 0 l 860 353 l 974 353 l 974 411 l 860 411 l 860 504 z m 275 764 l 404 563 l 275 563 z m 275 411 l 275 504 l 442 504 l 501 411 z m 768 411 l 601 411 l 542 504 l 768 504 z m 768 153 l 639 353 l 768 353 z "},"₩":{"ha":1319,"x_min":0,"x_max":0,"o":"m 1246 914 l 1149 914 l 1028 547 l 776 547 l 699 818 l 619 818 l 542 547 l 290 547 l 169 914 l 72 914 l 197 547 l 82 547 l 82 489 l 217 489 l 249 397 l 82 397 l 82 339 l 268 339 l 383 0 l 468 0 l 565 339 l 753 339 l 850 0 l 936 0 l 1051 339 l 1238 339 l 1238 397 l 1071 397 l 1101 489 l 1238 489 l 1238 547 l 1122 547 z m 658 664 l 692 547 l 625 547 z m 310 489 l 525 489 l 499 397 l 340 397 z m 582 397 l 608 489 l 710 489 l 736 397 z m 979 397 l 819 397 l 793 489 l 1008 489 z m 425 143 l 360 339 l 482 339 z m 894 139 l 836 339 l 960 339 z "},"¥":{"ha":899,"x_min":0,"x_max":0,"o":"m 401 0 l 494 0 l 494 185 l 738 185 l 738 253 l 494 253 l 494 385 l 738 385 l 738 453 l 497 453 l 858 957 l 749 957 l 449 539 l 150 957 l 42 957 l 399 453 l 160 453 l 160 385 l 401 385 l 401 253 l 160 253 l 160 185 l 401 185 z "},"⁼":{"ha":492,"x_min":0,"x_max":0,"o":"m 72 1003 l 418 1003 l 418 1054 l 72 1054 z m 72 843 l 418 843 l 418 894 l 72 894 z "},"⁻":{"ha":438,"x_min":0,"x_max":0,"o":"m 71 900 l 365 900 l 365 956 l 71 956 z "},"+":{"ha":686,"x_min":0,"x_max":0,"o":"m 622 404 l 386 404 l 386 640 l 300 640 l 300 404 l 64 404 l 64 318 l 300 318 l 300 81 l 386 81 l 386 318 l 622 318 z "},"−":{"ha":790,"x_min":0,"x_max":0,"o":"m 103 325 l 688 325 l 688 407 l 103 407 z "},"×":{"ha":653,"x_min":0,"x_max":0,"o":"m 563 203 l 388 378 l 561 551 l 501 614 l 326 439 l 153 611 l 92 551 l 265 378 l 90 203 l 151 143 l 326 317 l 503 140 z "},"÷":{"ha":751,"x_min":0,"x_max":0,"o":"m 375 506 b 446 572 414 506 446 535 b 375 638 446 610 414 638 b 306 572 338 638 306 610 b 375 506 306 535 338 506 z m 90 294 l 661 294 l 661 378 l 90 378 z m 375 33 b 446 99 414 33 446 61 b 375 165 446 138 414 165 b 306 99 338 165 306 138 b 375 33 306 61 338 33 z "},"=":{"ha":839,"x_min":0,"x_max":0,"o":"m 104 442 l 735 442 l 735 528 l 104 528 z m 104 161 l 735 161 l 735 247 l 104 247 z "},"≠":{"ha":839,"x_min":0,"x_max":0,"o":"m 174 10 l 250 10 l 343 161 l 733 161 l 733 247 l 390 247 l 515 442 l 733 442 l 733 528 l 564 528 l 653 675 l 575 675 l 486 528 l 104 528 l 104 442 l 439 442 l 314 247 l 104 247 l 104 161 l 267 161 z "},">":{"ha":843,"x_min":0,"x_max":0,"o":"m 88 679 l 88 583 l 672 364 l 88 143 l 88 49 l 792 318 l 792 408 z "},"<":{"ha":844,"x_min":0,"x_max":0,"o":"m 757 679 l 51 408 l 51 318 l 757 50 l 757 143 l 171 364 l 757 583 z "},"≥":{"ha":885,"x_min":0,"x_max":0,"o":"m 100 165 l 804 435 l 804 525 l 100 794 l 100 700 l 685 479 l 100 260 z m 100 0 l 792 0 l 792 81 l 100 81 z "},"≤":{"ha":885,"x_min":0,"x_max":0,"o":"m 785 165 l 785 260 l 200 479 l 785 700 l 785 794 l 81 525 l 81 435 z m 93 0 l 785 0 l 785 81 l 93 81 z "},"±":{"ha":736,"x_min":0,"x_max":0,"o":"m 411 451 l 411 663 l 324 663 l 324 451 l 90 451 l 90 365 l 324 365 l 324 150 l 411 150 l 411 365 l 644 365 l 644 451 z m 90 0 l 644 0 l 644 82 l 90 82 z "},"≈":{"ha":954,"x_min":0,"x_max":0,"o":"m 846 511 l 807 565 b 643 488 767 526 703 488 b 482 535 572 488 524 518 b 304 585 436 553 386 585 b 101 489 224 585 146 536 l 140 433 b 304 513 182 475 244 513 b 465 464 376 513 424 481 b 644 415 511 446 563 415 b 846 511 725 415 803 463 z m 853 242 l 815 294 b 650 217 774 253 710 217 b 489 264 579 217 531 247 b 311 314 443 282 393 314 b 108 218 231 314 153 265 l 146 163 b 311 240 188 204 253 240 b 474 193 383 240 432 210 b 650 143 518 175 569 143 b 853 242 731 143 810 192 z "},"~":{"ha":949,"x_min":0,"x_max":0,"o":"m 847 408 l 810 463 b 646 385 769 424 704 385 b 483 432 574 385 525 415 b 307 482 439 450 388 482 b 104 386 225 482 147 433 l 142 331 b 306 408 183 372 247 408 b 468 361 378 408 426 378 b 646 311 514 343 564 311 b 847 408 728 311 804 360 z "},"¬":{"ha":889,"x_min":0,"x_max":0,"o":"m 107 482 l 107 396 l 694 396 l 694 174 l 781 174 l 781 482 z "},"∅":{"ha":1135,"x_min":0,"x_max":0,"o":"m 1053 922 l 1010 964 l 890 844 b 567 969 806 922 693 969 b 85 478 296 969 85 750 b 201 156 85 354 128 242 l 83 38 l 125 -7 l 244 113 b 567 -12 329 35 442 -12 b 1051 478 839 -12 1051 207 b 933 801 1051 603 1007 715 z m 151 478 b 567 903 151 713 333 903 b 843 797 674 903 771 863 l 250 204 b 151 478 188 278 151 374 z m 985 478 b 567 56 985 244 801 56 b 292 160 460 56 364 94 l 885 754 b 985 478 947 681 985 583 z "},"∞":{"ha":1196,"x_min":0,"x_max":0,"o":"m 890 638 b 675 539 804 638 742 600 l 597 467 l 524 539 b 307 638 457 603 389 638 b 81 413 179 638 81 550 b 307 188 81 275 179 188 b 524 288 390 188 454 225 l 599 360 l 675 288 b 890 188 743 225 806 188 b 1115 413 1017 188 1115 275 b 890 638 1115 550 1017 638 z m 468 340 b 317 272 419 296 369 272 b 165 413 229 272 165 322 b 317 553 165 504 229 553 b 461 490 371 553 414 536 l 542 413 z m 879 272 b 728 340 824 272 778 293 l 656 411 l 729 485 b 879 553 778 533 824 553 b 1029 413 967 553 1029 504 b 879 272 1029 322 967 272 z "},"∫":{"ha":464,"x_min":0,"x_max":0,"o":"m 367 1014 b 133 733 197 1014 108 896 l 242 42 b 85 -139 258 -58 204 -139 l 38 -139 l 38 -222 l 97 -222 b 331 21 260 -222 354 -117 l 222 743 b 379 929 213 847 257 929 l 428 929 l 428 1014 z "},"∏":{"ha":994,"x_min":0,"x_max":0,"o":"m 853 957 l 142 957 l 142 -222 l 233 -222 l 233 874 l 761 874 l 761 -222 l 853 -222 z "},"∑":{"ha":817,"x_min":0,"x_max":0,"o":"m 764 957 l 47 957 l 47 913 l 400 368 l 47 -178 l 47 -222 l 764 -222 l 764 -140 l 175 -140 l 503 368 l 176 874 l 764 874 z "},"√":{"ha":850,"x_min":0,"x_max":0,"o":"m 768 1168 l 396 -78 l 239 450 l -4 450 l -4 374 l 167 374 l 349 -222 l 444 -222 l 863 1168 z "},"µ":{"ha":813,"x_min":0,"x_max":0,"o":"m 129 649 l 129 -203 l 217 -203 l 217 63 b 388 -12 254 11 317 -12 b 594 107 464 -12 557 21 l 594 0 l 683 0 l 683 649 l 594 649 l 594 288 b 388 75 593 132 489 75 b 217 271 286 75 217 150 l 217 649 z "},"∂":{"ha":769,"x_min":0,"x_max":0,"o":"m 425 925 l 411 846 b 599 450 574 846 631 697 b 381 574 554 533 460 574 b 64 274 219 574 83 435 b 315 -14 44 111 156 -14 b 676 350 501 -14 639 131 b 425 925 714 572 729 925 z m 558 289 b 329 75 542 168 442 76 b 151 276 215 75 138 158 b 371 485 165 392 258 483 b 558 289 485 485 571 407 z "},"%":{"ha":843,"x_min":0,"x_max":0,"o":"m 226 579 b 404 757 325 579 404 657 b 226 935 404 856 325 935 b 50 757 126 935 50 856 b 226 579 50 657 126 579 z m 161 0 l 229 0 l 672 914 l 606 914 z m 226 649 b 118 757 165 649 118 694 b 226 865 118 817 165 865 b 336 757 286 865 336 817 b 226 649 336 694 286 649 z m 615 -14 b 794 164 714 -14 794 64 b 615 342 794 263 714 342 b 439 164 515 342 439 263 b 615 -14 439 64 515 -14 z m 615 56 b 508 164 554 56 508 103 b 615 272 508 224 554 272 b 725 164 675 272 725 224 b 615 56 725 103 675 56 z "},"‰":{"ha":1267,"x_min":0,"x_max":0,"o":"m 226 579 b 404 757 325 579 404 657 b 226 935 404 856 325 935 b 50 757 126 935 50 856 b 226 579 50 657 126 579 z m 161 0 l 229 0 l 672 914 l 606 914 z m 226 649 b 118 757 165 649 118 694 b 226 865 118 817 165 865 b 336 757 286 865 336 817 b 226 649 336 694 286 649 z m 615 -14 b 794 164 714 -14 794 64 b 615 342 794 263 714 342 b 439 164 515 342 439 263 b 615 -14 439 64 515 -14 z m 1043 -14 b 1222 164 1142 -14 1222 64 b 1043 342 1222 263 1142 342 b 867 164 943 342 867 263 b 1043 -14 867 64 943 -14 z m 615 56 b 508 164 554 56 508 103 b 615 272 508 224 554 272 b 725 164 675 272 725 224 b 615 56 725 103 675 56 z m 1043 56 b 936 164 982 56 936 103 b 1043 272 936 224 982 272 b 1153 164 1104 272 1153 224 b 1043 56 1153 103 1104 56 z "},"⁺":{"ha":406,"x_min":0,"x_max":0,"o":"m 357 942 l 229 942 l 229 1068 l 176 1068 l 176 942 l 50 942 l 50 889 l 176 889 l 176 761 l 229 761 l 229 889 l 357 889 z "},"↑":{"ha":786,"x_min":0,"x_max":0,"o":"m 746 640 l 393 993 l 39 640 l 99 581 l 350 832 l 350 0 l 435 0 l 435 835 l 688 581 z "},"→":{"ha":1178,"x_min":0,"x_max":0,"o":"m 767 836 l 707 776 l 961 522 l 72 522 l 72 438 l 957 438 l 707 188 l 767 129 l 1118 482 z "},"↓":{"ha":785,"x_min":0,"x_max":0,"o":"m 686 368 l 435 115 l 435 957 l 350 957 l 350 115 l 97 368 l 39 308 l 392 -44 l 746 308 z "},"←":{"ha":1178,"x_min":0,"x_max":0,"o":"m 1106 522 l 217 522 l 471 776 l 411 836 l 58 482 l 411 129 l 471 188 l 219 438 l 1106 438 z "},"↔":{"ha":1446,"x_min":0,"x_max":0,"o":"m 1040 844 l 981 786 l 1229 536 l 215 535 l 465 785 l 406 844 l 54 490 l 407 136 l 467 196 l 211 450 l 1236 451 l 981 197 l 1040 138 l 1392 492 z "},"↕":{"ha":804,"x_min":0,"x_max":0,"o":"m 442 -1 l 442 1022 l 696 768 l 756 828 l 401 1179 l 49 828 l 107 768 l 357 1018 l 357 3 l 107 253 l 49 193 l 401 -158 l 756 193 l 696 253 z "},"○":{"ha":964,"x_min":0,"x_max":0,"o":"m 894 490 b 482 903 894 718 710 903 b 69 490 254 903 69 718 b 482 78 69 263 254 78 b 894 490 710 78 894 263 z m 818 490 b 482 154 818 306 668 154 b 146 490 297 154 146 306 b 482 826 146 675 297 826 b 818 490 668 826 818 676 z "},"◊":{"ha":833,"x_min":0,"x_max":0,"o":"m 394 986 l 367 986 l 57 492 l 367 0 l 394 0 l 704 492 z m 614 492 l 381 119 l 147 492 l 381 864 z "},"■":{"ha":969,"x_min":0,"x_max":0,"o":"m 111 857 l 111 110 l 858 110 l 858 857 z "},"□":{"ha":863,"x_min":0,"x_max":0,"o":"m 88 857 l 88 110 l 835 110 l 835 857 z m 163 782 l 760 782 l 760 185 l 163 185 z "},"▲":{"ha":1082,"x_min":0,"x_max":0,"o":"m 111 96 l 971 94 l 540 839 z "},"▶":{"ha":967,"x_min":0,"x_max":0,"o":"m 113 935 l 111 74 l 856 506 z "},"▼":{"ha":1082,"x_min":0,"x_max":0,"o":"m 111 838 l 540 94 l 971 839 z "},"◀":{"ha":967,"x_min":0,"x_max":0,"o":"m 854 935 l 111 506 l 856 74 z "},"★":{"ha":1221,"x_min":0,"x_max":0,"o":"m 811 347 l 1138 585 l 735 585 l 610 968 l 486 585 l 83 585 l 408 347 l 285 -35 l 610 201 l 936 -35 z "},"☐":{"ha":938,"x_min":0,"x_max":0,"o":"m 469 -8 b 868 392 690 -8 868 171 b 469 789 868 611 690 789 b 69 392 249 789 69 611 b 469 -8 69 171 249 -8 z m 469 68 b 146 392 289 68 146 211 b 469 714 146 571 289 714 b 793 392 649 714 793 569 b 469 68 793 211 649 68 z "},"☑":{"ha":989,"x_min":0,"x_max":0,"o":"m 931 922 l 854 963 l 694 706 b 449 789 626 757 542 789 b 49 392 228 789 49 611 b 449 -8 49 171 228 -8 b 849 392 669 -8 849 171 b 757 644 849 488 814 576 z m 772 392 b 449 68 772 211 628 68 b 125 392 269 68 125 211 b 449 714 125 571 269 714 b 654 640 526 714 599 686 l 443 300 l 276 536 l 210 481 l 433 168 l 460 168 l 714 576 b 772 392 751 524 772 460 z "},"☜":{"ha":1383,"x_min":0,"x_max":0,"o":"m 43 638 b 147 543 40 576 82 544 l 292 540 b 269 496 279 531 274 515 b 349 397 258 446 288 415 b 333 360 342 388 338 379 b 421 258 326 300 357 267 b 399 217 407 246 401 233 b 504 124 393 171 426 133 l 1042 124 l 1042 60 b 1101 0 1042 28 1068 0 l 1219 0 b 1279 60 1251 0 1279 32 l 1279 624 b 1219 683 1279 653 1251 683 l 1101 683 b 1042 624 1068 683 1042 656 l 1042 576 l 797 878 b 625 926 726 963 675 954 b 597 794 593 908 569 840 l 628 729 l 147 731 b 43 638 82 731 46 693 z m 151 601 b 110 633 121 601 110 615 b 151 667 110 653 121 667 l 679 663 b 772 542 679 663 756 565 b 818 531 783 526 803 519 b 824 568 829 536 832 556 l 686 760 b 671 875 651 808 628 851 b 753 832 701 892 721 864 l 1043 488 l 1042 181 l 706 182 b 675 276 717 211 713 267 b 717 346 700 288 717 313 b 636 433 717 381 700 425 b 657 483 647 440 654 457 b 546 594 663 542 628 593 z m 360 457 b 324 490 335 460 325 471 b 376 539 321 526 342 539 l 536 540 b 593 492 576 540 597 519 b 546 457 590 471 575 457 z m 426 313 b 390 354 401 315 389 329 b 433 392 393 381 406 392 l 610 394 b 656 347 643 394 656 375 b 611 310 656 322 636 310 z m 503 186 b 461 224 465 188 461 203 b 496 251 461 244 472 253 l 614 247 b 658 211 647 246 658 238 b 611 183 658 192 642 182 z "},"☞":{"ha":1383,"x_min":0,"x_max":0,"o":"m 1340 638 b 1236 731 1338 693 1301 731 l 756 729 l 786 794 b 758 926 814 840 790 908 b 586 878 708 954 657 963 l 342 576 l 342 624 b 282 683 342 656 315 683 l 164 683 b 104 624 132 683 104 653 l 104 60 b 164 0 104 32 132 0 l 282 0 b 342 60 315 0 342 28 l 342 124 l 879 124 b 985 217 957 133 990 171 b 963 258 982 233 976 246 b 1050 360 1026 267 1057 300 b 1035 397 1046 379 1042 388 b 1114 496 1096 415 1125 446 b 1092 540 1110 515 1104 531 l 1236 543 b 1340 638 1301 544 1343 576 z m 1232 601 l 838 594 b 726 483 756 593 721 542 b 747 433 729 457 736 440 b 667 346 683 425 667 381 b 708 276 667 313 683 288 b 678 182 671 267 667 211 l 342 181 l 340 488 l 631 832 b 713 875 663 864 682 892 b 697 760 756 851 732 808 l 560 568 b 565 531 551 556 554 536 b 611 542 581 519 600 526 b 704 663 628 565 704 663 l 1232 667 b 1274 633 1263 667 1274 653 b 1232 601 1274 615 1263 601 z m 1024 457 l 838 457 b 790 492 808 457 793 471 b 847 540 786 519 807 540 l 1007 539 b 1060 490 1042 539 1063 526 b 1024 457 1058 471 1049 460 z m 957 313 l 772 310 b 728 347 747 310 728 322 b 774 394 728 375 740 394 l 950 392 b 993 354 978 392 990 381 b 957 313 994 329 982 315 z m 881 186 l 772 183 b 725 211 742 182 725 192 b 769 247 725 238 736 246 l 888 251 b 922 224 911 253 922 244 b 881 186 922 203 918 188 z "},"♦":{"ha":869,"x_min":0,"x_max":0,"o":"m 449 -35 l 788 472 l 449 979 l 111 472 z "},"♼":{"ha":1206,"x_min":0,"x_max":0,"o":"m 603 -14 b 1094 478 875 -14 1094 206 b 603 969 1094 749 875 969 b 111 478 332 969 111 749 b 603 -14 111 206 332 -14 z m 490 563 l 332 653 l 411 789 b 489 836 411 789 429 831 l 714 835 b 782 790 714 835 757 831 l 821 726 l 879 761 l 792 606 l 613 604 l 667 638 l 610 733 b 589 736 604 743 596 743 z m 707 85 l 617 240 l 706 396 l 706 332 l 818 333 b 831 349 829 333 835 340 l 731 524 l 888 613 l 967 478 b 967 386 967 478 992 440 l 854 192 b 782 154 854 192 828 156 l 707 153 z m 419 153 b 339 197 419 153 375 149 l 226 392 b 231 474 226 392 208 432 l 267 539 l 208 572 l 386 574 l 478 419 l 422 451 l 367 353 b 375 333 361 343 365 335 l 575 333 l 576 153 z "},"✓":{"ha":833,"x_min":0,"x_max":0,"o":"m 854 963 l 444 300 l 276 536 l 211 481 l 435 168 l 461 168 l 931 922 z "},"":{"ha":1363,"x_min":0,"x_max":0,"o":"m 111 0 l 1251 0 l 1251 972 l 111 972 z m 724 510 b 703 519 715 510 708 513 b 696 547 699 526 696 535 b 703 575 696 558 699 568 b 725 585 708 582 715 585 b 746 574 735 585 742 581 l 747 574 b 746 586 746 579 746 583 l 746 613 l 761 613 l 761 511 l 750 511 l 747 519 l 746 519 b 724 510 742 513 733 510 z m 935 603 b 936 610 935 606 935 607 b 943 611 938 611 940 611 b 950 610 946 611 949 611 b 951 603 951 607 951 606 b 950 596 951 600 951 599 b 943 594 949 594 946 594 b 936 596 940 594 938 594 b 935 603 935 599 935 600 z m 279 511 l 265 511 l 238 592 l 236 592 b 238 557 238 579 238 568 l 238 511 l 224 511 l 224 607 l 246 607 l 272 531 l 300 607 l 322 607 l 322 511 l 307 511 l 307 576 b 308 590 308 585 308 589 l 307 590 z m 529 522 b 540 524 533 522 538 522 l 540 513 b 533 510 539 511 536 511 l 525 510 b 504 532 511 510 504 517 l 504 572 l 493 572 l 493 579 l 504 585 l 510 600 l 519 600 l 519 583 l 540 583 l 540 572 l 519 572 l 519 533 b 522 525 519 529 519 526 b 529 522 524 522 526 522 z m 414 547 b 404 519 414 535 410 526 b 379 510 399 513 389 510 b 361 514 372 510 365 511 b 349 528 356 517 351 521 b 344 547 346 533 344 539 b 353 575 344 558 347 568 b 379 585 360 582 368 585 b 404 575 390 585 399 582 b 414 547 410 568 414 558 z m 483 532 b 475 515 483 524 481 519 b 453 510 469 511 463 510 b 429 514 443 510 435 511 l 429 526 b 453 521 438 524 446 521 b 468 529 463 521 468 524 b 465 535 468 532 467 533 b 461 538 465 536 463 538 b 450 543 458 539 456 542 b 433 553 442 546 436 549 b 429 565 431 556 429 560 b 436 579 429 571 432 576 b 457 585 442 583 449 585 b 482 579 465 585 474 583 l 476 568 b 457 572 468 571 463 572 b 444 565 449 572 444 571 b 447 560 444 564 446 561 b 461 553 450 558 454 556 b 475 547 468 551 472 549 b 481 540 478 544 479 543 b 483 532 482 538 483 535 z m 614 511 l 604 511 l 600 521 b 589 511 596 517 593 514 b 575 510 586 510 581 510 b 558 515 568 510 563 511 b 553 532 554 519 553 525 b 561 549 553 539 556 544 b 586 554 567 553 575 554 l 599 556 l 599 558 b 596 569 599 564 599 567 b 586 572 594 572 590 572 b 575 571 582 572 579 572 b 565 567 572 571 568 569 l 560 578 b 574 583 564 581 568 582 b 586 585 578 585 582 585 b 607 579 596 585 603 583 b 614 560 613 575 614 568 z m 676 585 l 683 585 l 682 569 b 675 571 679 571 678 571 b 660 564 669 571 664 568 b 654 549 657 560 654 556 l 654 511 l 639 511 l 639 583 l 651 583 l 653 571 l 654 571 b 664 581 656 575 660 578 b 676 585 667 583 671 585 z m 818 510 b 792 519 807 510 799 513 b 782 546 785 526 782 535 b 792 575 782 558 785 568 b 815 585 797 582 806 585 b 839 576 825 585 833 582 b 847 551 844 571 847 563 l 847 543 l 799 543 b 804 528 799 536 800 531 b 819 521 807 524 813 521 b 831 522 824 521 828 522 l 843 526 l 843 514 l 832 510 z m 915 532 b 908 515 915 524 914 519 b 886 510 903 511 896 510 b 863 514 876 510 868 511 l 863 526 b 886 521 871 524 879 521 b 900 529 896 521 900 524 b 899 535 900 532 900 533 b 894 538 899 536 896 538 b 883 543 892 539 888 542 b 867 553 875 546 869 549 b 863 565 864 556 863 560 b 869 579 863 571 865 576 b 890 585 875 583 882 585 b 915 579 899 585 907 583 l 910 568 b 890 572 901 571 896 572 b 878 565 882 572 878 571 b 881 560 878 564 879 561 b 894 553 883 558 888 556 b 908 547 901 551 906 549 b 914 540 911 544 913 543 b 915 532 915 538 915 535 z m 1013 583 l 1038 583 l 1038 575 l 1025 572 b 1028 567 1026 571 1026 569 b 1029 560 1028 565 1029 563 b 1021 542 1029 553 1026 546 b 1000 536 1015 538 1008 536 l 993 536 b 988 529 990 535 988 532 b 990 525 988 528 989 526 b 999 524 992 525 994 524 l 1011 524 b 1031 519 1019 524 1026 522 b 1036 504 1035 515 1036 511 b 1026 485 1036 496 1033 489 b 997 478 1019 481 1010 478 b 974 483 986 478 979 481 b 967 499 968 488 967 492 b 971 510 967 503 968 507 b 982 517 974 513 976 515 b 976 521 981 517 978 518 l 975 526 b 978 533 975 529 976 532 b 985 539 979 535 981 538 b 975 547 981 540 978 543 b 971 560 972 550 971 556 b 979 578 971 568 974 574 b 1000 585 983 582 992 585 l 1007 585 b 1013 583 1010 585 1011 583 z m 1118 558 l 1118 511 l 1101 511 l 1101 556 b 1099 568 1101 561 1101 565 b 1088 572 1096 571 1093 572 b 1074 567 1081 572 1076 571 b 1069 547 1071 563 1069 556 l 1069 511 l 1053 511 l 1053 583 l 1065 583 l 1068 574 b 1078 582 1071 578 1074 581 b 1092 585 1082 583 1086 585 b 1118 558 1108 585 1118 576 z m 951 583 l 951 511 l 935 511 l 935 583 z m 986 560 b 990 549 986 556 988 551 b 1000 546 993 547 996 546 b 1014 560 1010 546 1014 550 b 1010 571 1014 565 1013 568 b 1000 575 1008 574 1004 575 b 990 571 996 575 992 574 b 986 560 988 568 986 565 z m 815 574 b 804 568 811 574 807 571 b 799 554 800 565 799 561 l 832 554 b 826 568 832 561 829 565 b 815 574 824 571 821 574 z m 360 547 b 379 522 360 531 367 522 b 397 547 392 522 397 531 b 379 572 397 564 392 572 b 365 565 372 572 368 569 b 360 547 361 561 360 556 z m 728 522 b 742 528 735 522 739 524 b 747 544 746 531 747 536 l 747 547 b 742 567 747 556 746 563 b 728 572 739 571 735 572 b 715 565 722 572 718 569 b 711 547 713 561 711 554 b 715 528 711 539 713 532 b 728 522 718 524 722 522 z m 581 521 b 594 526 586 521 590 522 b 599 539 597 529 599 533 l 599 546 l 590 544 b 574 542 582 544 578 543 b 569 532 571 539 569 536 b 572 524 569 528 569 525 b 581 521 574 522 576 521 z m 981 499 b 985 492 981 496 982 493 b 997 489 988 490 992 489 b 1015 493 1006 489 1011 490 b 1022 501 1019 494 1022 499 b 1018 508 1022 506 1021 507 b 1006 511 1017 510 1013 511 l 994 511 b 983 508 990 511 986 510 b 981 499 981 506 981 503 z m 943 347 b 921 357 933 347 926 350 b 914 385 917 364 914 374 b 921 413 914 397 917 406 b 943 422 926 419 933 422 b 965 413 953 422 960 419 b 964 425 965 418 964 422 l 964 451 l 979 451 l 979 349 l 968 349 l 965 358 l 964 358 b 943 347 960 351 951 347 z m 257 432 l 257 349 l 242 349 l 242 432 l 214 432 l 214 444 l 286 444 l 286 432 z m 599 389 l 599 349 l 583 349 l 583 444 l 638 444 l 638 432 l 599 432 l 599 401 l 635 401 l 635 389 z m 319 349 l 290 422 l 307 422 l 322 381 b 326 364 325 375 326 369 l 328 364 b 329 372 328 367 328 369 b 346 422 331 376 336 392 l 363 422 l 332 339 b 303 317 326 324 317 317 b 293 318 300 317 297 317 l 293 329 l 301 329 b 317 342 308 329 314 333 z m 414 347 b 392 357 404 347 397 350 l 392 317 l 376 317 l 376 422 l 389 422 l 392 411 b 414 422 397 419 404 422 b 435 413 424 422 431 419 b 443 385 440 407 443 397 b 435 357 443 374 440 364 b 414 347 429 351 422 347 z m 496 347 b 468 357 483 347 475 350 b 460 385 463 364 460 374 b 468 413 460 396 463 406 b 493 422 474 419 482 422 b 515 414 501 422 510 419 b 524 390 521 408 524 400 l 524 382 l 475 382 b 481 365 475 375 478 369 b 496 360 485 361 489 360 b 508 361 500 360 504 360 b 519 365 511 361 515 363 l 519 353 b 508 349 517 350 513 349 b 496 347 504 347 500 347 z m 721 385 b 711 357 721 374 718 364 b 686 347 706 351 697 347 b 668 351 679 347 674 349 b 656 365 663 356 658 360 b 651 385 653 371 651 378 b 661 413 651 397 654 407 b 686 422 667 419 675 422 b 711 413 697 422 706 419 b 721 385 718 406 721 397 z m 804 349 l 793 349 l 790 358 b 781 350 788 354 785 353 b 767 347 776 349 772 347 b 747 354 758 347 751 350 b 740 374 743 358 740 365 l 740 422 l 756 422 l 756 376 b 760 364 756 371 757 367 b 771 360 763 361 765 360 b 785 365 776 360 782 363 b 789 385 788 369 789 376 l 789 422 l 804 422 z m 893 396 l 893 349 l 878 349 l 878 393 b 875 406 878 399 876 403 b 864 410 872 408 869 410 b 850 404 857 410 853 408 b 844 385 847 400 844 394 l 844 349 l 829 349 l 829 422 l 842 422 l 844 413 b 854 419 847 415 850 418 b 868 422 858 422 863 422 b 893 396 885 422 893 414 z m 1042 422 l 1049 422 l 1047 408 l 1040 408 b 1026 403 1035 408 1029 407 b 1019 386 1022 399 1019 393 l 1019 349 l 1004 349 l 1004 422 l 1017 422 l 1019 408 b 1029 419 1022 413 1025 417 b 1042 422 1033 422 1038 422 z m 1083 349 l 1054 422 l 1071 422 l 1086 381 b 1090 364 1089 375 1090 369 l 1092 364 b 1093 372 1092 367 1092 369 b 1110 422 1094 376 1100 392 l 1126 422 l 1096 339 b 1067 317 1090 324 1081 317 b 1057 318 1064 317 1061 317 l 1057 329 l 1065 329 b 1081 342 1072 329 1078 333 z m 493 411 b 481 407 488 411 483 410 b 475 393 478 403 476 399 l 508 393 b 504 407 508 399 507 403 b 493 411 501 410 497 411 z m 410 410 b 396 404 404 410 399 408 b 392 388 393 401 392 396 l 392 385 b 396 367 392 376 393 369 b 410 360 399 363 404 360 b 422 367 415 360 419 363 b 426 385 425 371 426 378 b 422 404 426 393 425 400 b 410 410 419 408 415 410 z m 668 385 b 686 360 668 368 674 360 b 704 385 699 360 704 368 b 686 410 704 401 699 410 b 672 404 679 410 675 408 b 668 385 669 400 668 393 z m 947 360 b 961 365 953 360 957 361 b 965 383 964 369 965 375 l 965 385 b 961 404 965 394 964 400 b 946 410 957 408 953 410 b 933 404 942 410 938 408 b 929 385 931 399 929 393 b 933 367 929 376 931 371 b 947 360 936 363 940 360 z "},"@":{"ha":1383,"x_min":0,"x_max":0,"o":"m 672 -265 l 711 -265 l 711 -192 l 672 -192 b 142 347 374 -192 142 47 b 674 890 142 646 374 890 b 1233 372 975 890 1233 672 b 1051 51 1233 244 1194 51 b 935 163 994 51 935 74 l 935 361 b 660 631 932 513 807 631 b 385 354 508 631 385 508 b 660 81 385 204 508 81 b 796 124 708 81 757 97 l 796 210 b 660 154 757 175 706 154 b 458 354 549 154 458 244 b 660 556 458 468 549 556 b 861 354 771 556 861 468 l 861 168 b 1051 -21 861 22 954 -21 b 1308 372 1243 -21 1308 210 b 674 964 1308 713 1015 964 b 68 347 333 964 68 686 b 672 -265 68 6 332 -265 z "},"&":{"ha":890,"x_min":0,"x_max":0,"o":"m 821 69 b 688 288 706 69 688 176 l 688 494 l 814 494 l 814 568 l 688 568 l 688 689 l 599 689 l 599 569 l 393 569 b 222 729 282 569 222 646 b 383 882 222 815 289 882 b 526 808 442 882 494 857 l 599 856 b 383 968 554 924 476 968 b 136 735 239 968 136 858 b 239 539 136 657 176 579 b 72 283 138 492 72 396 b 376 -14 72 124 192 -14 b 632 115 476 -14 585 26 b 819 -14 649 29 731 -14 l 842 -14 l 842 69 z m 379 72 b 158 286 242 72 158 169 b 397 494 158 404 246 494 l 599 494 l 599 278 b 379 72 594 161 508 72 z "},"¶":{"ha":851,"x_min":0,"x_max":0,"o":"m 351 -87 l 433 -87 l 433 957 l 346 957 b 50 661 182 957 50 825 b 351 364 50 500 185 369 z m 350 -242 l 458 -242 b 606 -67 551 -239 606 -157 l 606 874 l 633 874 b 724 776 685 874 724 828 l 724 672 l 806 672 l 806 776 b 626 957 806 876 725 957 l 522 957 l 522 -72 b 444 -164 522 -121 499 -164 l 350 -164 z "},"§":{"ha":694,"x_min":0,"x_max":0,"o":"m 356 222 b 439 235 385 222 413 226 l 439 322 b 356 307 414 313 385 307 b 175 485 257 307 175 375 l 175 696 b 356 874 175 804 257 874 b 525 768 429 874 494 835 l 606 794 b 356 960 564 897 465 960 b 89 696 211 960 89 857 l 89 485 b 356 222 89 324 211 222 z m 339 -169 b 606 94 483 -169 606 -67 l 606 304 b 339 568 606 467 483 568 b 257 556 310 568 282 563 l 257 467 b 339 482 282 476 310 482 b 519 304 438 482 519 414 l 519 94 b 339 -85 519 -15 438 -85 b 169 22 265 -85 200 -44 l 89 -4 b 339 -169 131 -108 229 -169 z "},"©":{"ha":1115,"x_min":0,"x_max":0,"o":"m 557 -14 b 1043 476 828 -14 1043 206 b 557 968 1043 747 828 968 b 72 476 286 968 72 747 b 557 -14 72 206 286 -14 z m 557 53 b 138 476 324 53 138 243 b 557 901 138 710 324 901 b 976 476 790 901 976 710 b 557 53 976 243 790 53 z m 563 224 b 738 300 626 224 689 253 l 690 354 b 563 294 653 318 607 294 b 390 472 465 294 390 375 b 563 650 390 571 465 650 b 689 593 607 650 654 628 l 738 643 b 563 721 688 693 625 721 b 319 472 425 721 319 610 b 563 224 319 336 425 224 z "},"®":{"ha":1115,"x_min":0,"x_max":0,"o":"m 557 968 b 72 476 286 968 72 747 b 557 -14 72 206 286 -14 b 1043 476 828 -14 1043 206 b 557 968 1043 747 828 968 z m 557 53 b 138 476 324 53 138 243 b 557 901 138 710 324 901 b 976 476 790 901 976 710 b 557 53 976 243 790 53 z m 739 563 b 585 718 739 643 692 718 l 399 718 l 399 229 l 469 229 l 469 401 l 547 401 l 665 229 l 743 229 l 622 406 b 739 563 706 422 739 479 z m 469 653 l 582 653 b 671 558 646 653 671 604 b 581 465 671 513 646 465 l 469 465 z "},"℗":{"ha":1115,"x_min":0,"x_max":0,"o":"m 557 968 b 72 476 286 968 72 747 b 557 -14 72 206 286 -14 b 1043 476 828 -14 1043 206 b 557 968 1043 747 828 968 z m 557 53 b 138 476 324 53 138 243 b 557 901 138 710 324 901 b 976 476 790 901 976 710 b 557 53 976 243 790 53 z m 601 718 l 415 718 l 415 224 l 488 224 l 488 396 l 601 396 b 757 557 715 396 757 483 b 601 718 757 638 711 718 z m 599 468 l 488 468 l 488 647 l 601 647 b 683 557 660 647 683 603 b 599 468 683 511 660 468 z "},"™":{"ha":1319,"x_min":0,"x_max":0,"o":"m 49 883 l 218 883 l 218 383 l 303 383 l 303 883 l 474 883 l 474 957 l 49 957 z m 1219 383 l 1149 957 l 1075 957 l 875 536 l 674 957 l 600 957 l 528 383 l 615 383 l 667 801 l 840 444 l 908 444 l 1083 803 l 1133 383 z "},"°":{"ha":482,"x_min":0,"x_max":0,"o":"m 242 628 b 411 797 335 628 411 704 b 242 968 411 892 335 968 b 71 797 147 968 71 892 b 242 628 71 704 147 628 z m 242 692 b 135 797 183 692 135 740 b 242 904 135 856 183 904 b 347 797 299 904 347 856 b 242 692 347 740 299 692 z "},"|":{"ha":328,"x_min":0,"x_max":0,"o":"m 131 -171 l 197 -171 l 197 1106 l 131 1106 z "},"¦":{"ha":335,"x_min":0,"x_max":0,"o":"m 135 583 l 201 583 l 201 1106 l 135 1106 z m 135 -171 l 201 -171 l 201 349 l 135 349 z "},"†":{"ha":579,"x_min":0,"x_max":0,"o":"m 246 -176 l 333 -176 l 333 596 l 510 596 l 510 685 l 333 685 l 333 947 l 246 947 l 246 685 l 69 685 l 69 596 l 246 596 z "},"ℓ":{"ha":533,"x_min":0,"x_max":0,"o":"m 285 279 b 463 494 425 279 463 358 l 463 754 b 286 968 463 875 417 968 b 104 754 144 968 104 875 l 104 214 b 286 0 104 94 144 0 l 424 0 l 424 88 l 296 88 b 193 214 215 88 193 136 l 193 279 z m 286 885 b 374 758 351 885 374 831 l 374 476 b 279 356 374 406 353 356 l 193 356 l 193 758 b 286 885 193 829 211 885 z "},"‡":{"ha":579,"x_min":0,"x_max":0,"o":"m 246 -176 l 333 -176 l 333 121 l 510 121 l 510 210 l 333 210 l 333 596 l 510 596 l 510 685 l 333 685 l 333 947 l 246 947 l 246 685 l 69 685 l 69 596 l 246 596 l 246 210 l 69 210 l 69 121 l 246 121 z "},"№":{"ha":1328,"x_min":0,"x_max":0,"o":"m 1101 621 b 1271 792 1196 621 1271 697 b 1101 963 1271 886 1196 963 b 929 792 1006 963 929 886 b 1101 621 929 697 1006 621 z m 726 161 l 238 957 l 142 957 l 142 0 l 233 0 l 233 797 l 724 0 l 818 0 l 818 957 l 726 957 z m 1101 892 b 1200 792 1156 892 1200 847 b 1101 692 1200 736 1156 692 b 1001 792 1046 692 1001 736 b 1101 892 1001 847 1046 892 z m 936 510 l 1265 510 l 1265 563 l 936 563 z "},"℮":{"ha":901,"x_min":0,"x_max":0,"o":"m 456 -14 b 790 182 629 -14 718 69 l 747 208 b 456 32 685 114 611 32 b 244 119 372 32 303 64 l 244 388 l 840 388 b 461 792 840 606 697 792 b 79 389 224 792 79 610 b 456 -14 79 171 229 -14 z m 244 433 l 244 660 b 461 746 300 717 378 746 b 674 660 542 746 624 706 l 674 433 z "},"^":{"ha":654,"x_min":0,"x_max":0,"o":"m 593 413 l 369 957 l 286 957 l 61 413 l 151 413 l 328 853 l 504 413 z "},"⬤":{"ha":1047,"x_min":0,"x_max":0,"o":"m 936 490 b 524 903 936 718 751 903 b 111 490 296 903 111 718 b 524 78 111 263 296 78 b 936 490 751 78 936 263 z "},"℠":{"ha":1356,"x_min":0,"x_max":0,"o":"m 331 707 l 261 725 b 181 804 189 744 181 781 b 285 889 181 854 226 889 b 386 804 344 889 383 854 l 469 804 b 286 965 467 904 388 965 b 96 801 183 965 96 900 b 238 649 96 751 117 681 l 311 629 b 406 540 369 613 406 583 b 288 450 406 492 361 450 b 175 539 222 450 181 490 l 90 539 b 286 376 96 447 172 376 b 489 544 403 376 489 446 b 331 707 489 642 411 685 z m 1261 383 l 1189 957 l 1117 957 l 917 535 l 715 957 l 642 957 l 571 383 l 656 383 l 708 801 l 882 444 l 950 444 l 1125 803 l 1175 383 z "},"":{"ha":419,"x_min":0,"x_max":0,"o":"m 233 792 b 119 908 167 792 119 840 b 233 1022 119 975 167 1022 b 315 989 263 1022 294 1008 l 374 1028 b 250 1092 342 1063 301 1088 l 250 1178 l 208 1178 l 208 1092 b 42 908 117 1081 42 1011 b 208 722 42 804 117 733 l 208 635 l 250 635 l 250 722 b 374 786 301 726 342 751 l 315 825 b 233 792 294 804 263 792 z "},"̈":{"ha":0,"x_min":0,"x_max":0,"o":"m -469 786 b -401 849 -432 786 -401 813 b -469 913 -401 886 -432 913 b -536 849 -506 913 -536 886 b -469 786 -536 813 -506 786 z m -235 786 b -167 849 -197 786 -167 813 b -235 913 -167 886 -197 913 b -301 849 -271 913 -301 886 b -235 786 -301 813 -271 786 z "},"̇":{"ha":0,"x_min":0,"x_max":0,"o":"m -346 779 b -278 842 -307 779 -278 806 b -346 906 -278 879 -307 906 b -414 842 -383 906 -414 879 b -346 779 -414 806 -383 779 z "},"̀":{"ha":0,"x_min":0,"x_max":0,"o":"m -332 744 l -246 744 l -378 957 l -486 957 z "},"́":{"ha":0,"x_min":0,"x_max":0,"o":"m -476 744 l -390 744 l -235 957 l -342 957 z "},"̋":{"ha":0,"x_min":0,"x_max":0,"o":"m -494 744 l -415 744 l -285 957 l -374 957 z m -321 744 l -243 744 l -101 957 l -193 957 z "},"̂":{"ha":0,"x_min":0,"x_max":0,"o":"m -553 744 l -471 744 l -350 889 l -228 744 l -146 744 l -301 957 l -397 957 z "},"̌":{"ha":0,"x_min":0,"x_max":0,"o":"m -397 744 l -301 744 l -146 957 l -228 957 l -350 814 l -471 957 l -553 957 z "},"̆":{"ha":0,"x_min":0,"x_max":0,"o":"m -351 767 b -182 939 -250 767 -182 832 l -260 939 b -351 838 -260 881 -294 838 b -444 939 -414 838 -444 881 l -519 939 b -351 767 -519 847 -471 767 z "},"̊":{"ha":0,"x_min":0,"x_max":0,"o":"m -357 749 b -222 881 -282 749 -222 807 b -357 1014 -222 954 -282 1014 b -487 881 -429 1014 -487 954 b -357 749 -487 807 -429 749 z m -357 807 b -429 881 -397 807 -429 839 b -357 956 -429 922 -397 956 b -281 881 -314 956 -281 922 b -357 807 -281 839 -314 807 z "},"̃":{"ha":0,"x_min":0,"x_max":0,"o":"m -485 774 l -419 774 b -376 838 -418 817 -396 838 b -246 772 -336 838 -310 772 b -136 908 -193 772 -142 811 l -201 908 b -246 846 -203 864 -225 846 b -376 911 -283 846 -311 911 b -485 774 -429 911 -481 871 z "},"̄":{"ha":0,"x_min":0,"x_max":0,"o":"m -503 807 l -167 807 l -167 886 l -503 886 z "},"̦":{"ha":0,"x_min":0,"x_max":0,"o":"m -206 -314 b -99 -54 -146 -267 -97 -171 l -189 -54 b -261 -292 -182 -160 -208 -228 z "},"̧":{"ha":0,"x_min":0,"x_max":0,"o":"m -354 -278 b -222 -147 -276 -278 -222 -225 b -235 -92 -222 -131 -228 -107 l -286 29 l -350 29 l -294 -117 b -289 -146 -290 -126 -289 -137 b -354 -212 -289 -186 -314 -212 b -424 -133 -393 -212 -421 -182 l -489 -133 b -354 -278 -489 -219 -436 -278 z "},"̨":{"ha":0,"x_min":0,"x_max":0,"o":"m -356 -278 b -222 -133 -275 -278 -222 -219 l -286 -133 b -356 -212 -289 -182 -318 -212 b -422 -146 -397 -212 -422 -186 b -417 -117 -422 -137 -421 -126 l -361 29 l -425 29 l -475 -92 b -489 -147 -482 -107 -489 -131 b -356 -278 -489 -225 -435 -278 z "},"´":{"ha":656,"x_min":0,"x_max":0,"o":"m 179 760 l 265 760 l 421 972 l 314 972 z "},"˘":{"ha":703,"x_min":0,"x_max":0,"o":"m 351 781 b 521 951 453 781 521 844 l 443 951 b 351 850 443 894 408 850 b 258 951 289 850 258 894 l 183 951 b 351 781 183 861 232 781 z "},"ˇ":{"ha":699,"x_min":0,"x_max":0,"o":"m 301 760 l 397 760 l 553 972 l 471 972 l 349 829 l 228 972 l 146 972 z "},"¸":{"ha":711,"x_min":0,"x_max":0,"o":"m 357 -278 b 489 -147 435 -278 489 -225 b 476 -92 489 -131 483 -107 l 425 29 l 361 29 l 417 -117 b 422 -146 421 -126 422 -137 b 357 -212 422 -186 397 -212 b 288 -133 318 -212 290 -182 l 222 -133 b 357 -278 222 -219 275 -278 z "},"ˆ":{"ha":699,"x_min":0,"x_max":0,"o":"m 146 760 l 228 760 l 349 903 l 471 760 l 553 760 l 397 972 l 301 972 z "},"¨":{"ha":703,"x_min":0,"x_max":0,"o":"m 233 807 b 301 869 271 807 301 833 b 233 933 301 907 271 933 b 167 869 197 933 167 907 b 233 807 167 833 197 807 z m 468 807 b 536 869 506 807 536 833 b 468 933 536 907 506 933 b 401 869 432 933 401 907 b 468 807 401 833 432 807 z "},"˙":{"ha":692,"x_min":0,"x_max":0,"o":"m 346 799 b 414 863 385 799 414 826 b 346 926 414 899 385 926 b 278 863 308 926 278 899 b 346 799 278 826 308 799 z "},"`":{"ha":656,"x_min":0,"x_max":0,"o":"m 324 760 l 410 760 l 278 972 l 169 972 z "},"˝":{"ha":606,"x_min":0,"x_max":0,"o":"m 111 760 l 190 760 l 321 972 l 232 972 z m 285 760 l 363 760 l 504 972 l 413 972 z "},"¯":{"ha":669,"x_min":0,"x_max":0,"o":"m 167 825 l 503 825 l 503 904 l 167 904 z "},"˛":{"ha":711,"x_min":0,"x_max":0,"o":"m 356 -278 b 489 -133 436 -278 489 -219 l 425 -133 b 356 -212 422 -182 393 -212 b 289 -146 314 -212 289 -186 b 294 -117 289 -137 290 -126 l 350 29 l 286 29 l 236 -92 b 222 -147 229 -107 222 -131 b 356 -278 222 -225 276 -278 z "},"˚":{"ha":710,"x_min":0,"x_max":0,"o":"m 353 749 b 488 881 428 749 488 807 b 353 1014 488 954 428 1014 b 222 881 281 1014 222 954 b 353 749 222 807 281 749 z m 353 807 b 281 881 313 807 281 839 b 353 956 281 922 313 956 b 429 881 396 956 429 922 b 353 807 429 839 396 807 z "},"˜":{"ha":621,"x_min":0,"x_max":0,"o":"m 136 788 l 201 788 b 244 851 203 832 225 851 b 375 786 285 851 311 786 b 485 922 428 786 479 825 l 419 922 b 375 860 418 879 396 860 b 244 925 338 860 310 925 b 136 788 192 925 140 885 z "},"":{"ha":1618,"x_min":0,"x_max":0,"o":"m 764 665 b 488 957 764 813 686 957 l 131 957 l 131 0 l 222 0 l 222 375 l 383 375 l 646 0 l 757 0 l 492 375 b 764 665 689 379 764 519 z m 465 460 l 222 460 l 222 871 l 489 871 b 672 665 611 871 672 779 b 465 460 672 551 614 460 z m 1242 663 b 983 521 1135 663 1032 610 l 983 649 l 896 649 l 896 -315 l 983 -315 l 983 126 b 1243 -14 1032 38 1132 -14 b 1572 324 1425 -14 1572 126 b 1242 663 1572 521 1424 663 z m 1236 71 b 983 326 1106 71 983 169 b 1236 578 983 476 1101 578 b 1483 322 1372 578 1483 467 b 1236 71 1483 179 1372 71 z "}}}
